<?xml version="1.0" encoding="UTF-8" standalone="no"?>
<!DOCTYPE svg PUBLIC "-//W3C//DTD SVG 1.1//EN" "http://www.w3.org/Graphics/SVG/1.1/DTD/svg11.dtd">
<svg width="100%" height="100%" viewBox="0 0 900 400" version="1.1" xmlns="http://www.w3.org/2000/svg" xmlns:xlink="http://www.w3.org/1999/xlink" xml:space="preserve" xmlns:serif="http://www.serif.com/" style="fill-rule:evenodd;clip-rule:evenodd;stroke-linejoin:round;stroke-miterlimit:2;">
    <g transform="matrix(3.49946,0,0,2.26,4.97174,1.84951)">
        <rect x="-1.989" y="-1.468" width="258.15" height="178.786" style="fill:white;"/>
    </g>
    <g transform="matrix(0.5,0,0,0.5,-61.6002,-243.04)">
        <path d="M1098.7,707.031C1096.44,704.382 1093.1,701.076 1092.14,697.896C1096.09,700.079 1099.2,704.012 1102.34,707.409C1119.68,708.12 1154.64,707.573 1169.96,710.897C1174.63,711.738 1179.3,712.613 1183.96,713.522C1180.91,710.751 1176.43,706.945 1173.8,703.986L1174.1,702.781L1172.79,702.703L1172.86,701.854L1172.85,702.547L1174.03,702.498L1173.5,703.32L1175.16,703.263C1179.43,706.623 1182.6,709.353 1186.6,712.975C1207.66,713.223 1228.73,712.752 1249.76,711.563C1259.2,717.842 1286.99,743.079 1297.35,751.761L1348.77,794.919C1361.54,805.585 1374.61,816.218 1386.49,827.903C1389.08,830.453 1390.8,832.173 1391.3,835.987C1392.81,847.524 1382.05,847.396 1373.58,847.778C1367.84,848.036 1362.54,848.114 1356.75,848.896C1356.47,885.006 1356.49,921.117 1356.78,957.227C1361.25,956.829 1367.49,956.462 1371.77,955.697C1368.62,950.401 1364.4,944.815 1360.83,938.79C1365.84,943.561 1370.24,947.741 1373.07,954.149C1381.92,957.341 1447.07,945.756 1469.05,948.592C1453.28,954.14 1414.26,953.551 1407.12,958.322C1414.14,965.058 1431.19,982.804 1436.23,990.319C1440.47,989.937 1448.67,988.742 1452.37,989.831L1453.11,991.356C1448.13,996.141 1406.88,995.511 1401.83,999.644C1408.86,1008.47 1420.1,1018.97 1428.26,1028.71C1419.6,1024.6 1404.86,1008.38 1401.18,999.704C1393.8,996.836 1368.35,1003.07 1357.07,1001.31C1357.06,1008.39 1358.06,1027.18 1356.21,1034.67C1355.31,1038.32 1346.71,1039.09 1342.07,1039.62C1322.01,1041.9 1301.7,1043.81 1281.54,1046.01C1245.38,1050.15 1209.18,1053.99 1172.96,1057.53C1156.29,1059.18 1138.62,1062.01 1121.92,1061.98C1115.92,1061.97 1109.67,1060.83 1104.14,1058.46C1094.21,1054.2 1008.6,972.397 996.264,959.305C980.295,942.353 966.674,923.567 951.988,905.542C942.451,893.836 916.939,867.33 912.176,855.073C897.898,855.317 883.617,855.261 869.342,854.905C866.39,846.906 864.316,839.059 861.035,830.471C870.315,818.158 883.944,803.256 894.189,791.364L947.478,728.807C966.81,724.695 1010.82,723.846 1032.11,722.349C1063.92,720.113 1096.92,718.665 1128.78,716.605C1135.74,716.155 1165.29,714.799 1169.12,713.115C1160.83,710.531 1119.07,711.193 1108.12,710.515C1102.1,710.142 1093.49,709.411 1087.15,708.843L1087.83,707.154L1098.7,707.031Z" style="fill:rgb(2,2,2);fill-rule:nonzero;"/>
    </g>
    <g transform="matrix(0.5,0,0,0.5,-61.6002,-243.04)">
        <path d="M1357.01,959.403C1366.85,960.037 1403.46,956.272 1407.12,958.322C1410.76,968.483 1426.13,981.631 1434.2,990.558C1413.88,993.76 1393.54,994.143 1373.5,997.414C1366.92,996.715 1363.72,998.376 1357,1000.01L1357.01,959.403Z" style="fill:white;fill-rule:nonzero;"/>
    </g>
    <g transform="matrix(0.5,0,0,0.5,-61.6002,-243.04)">
        <path d="M1247.11,756.937C1251.21,759.295 1268.61,773.998 1273.26,777.925C1300.76,801.105 1326.42,820.602 1350.14,847.691C1349.4,905.792 1349.32,971.972 1350.27,1029.9C1306.19,1033.48 1258.16,1040.37 1213.24,1044.85C1182.8,1048.04 1150.66,1050.91 1120.49,1055.14C1118.97,1033.61 1120.54,1007.25 1120.65,985.229L1120.76,859.286C1130.8,856.322 1159.61,830.363 1169.01,822.515C1195.19,800.827 1221.22,778.967 1247.11,756.937Z" style="fill:white;fill-rule:nonzero;"/>
    </g>
    <g transform="matrix(0.5,0,0,0.5,-61.6002,-243.04)">
        <path d="M1231.2,842.428C1250.65,841.795 1286.98,842.631 1307.48,843.965C1308.3,844.019 1309.88,845.519 1309.98,846.488C1312.35,868.147 1315.05,991.819 1310.17,1005.22C1305.47,1009.18 1252.75,1012.46 1243.04,1013.32C1221.38,1016.18 1198.48,1017.19 1176.65,1018.89C1168.97,1020.44 1168.17,1009.77 1168.06,1003.71C1167.81,990.833 1168.05,977.129 1167.87,964.05C1167.28,938.036 1167.47,912.01 1168.46,886.007C1168.79,874.222 1168.83,859.169 1170.16,847.657C1185.7,844.354 1214.97,843.209 1231.2,842.428Z" style="fill:rgb(2,2,2);fill-rule:nonzero;"/>
    </g>
    <g transform="matrix(0.5,0,0,0.5,-61.6002,-243.04)">
        <path d="M1222.33,849.5C1231.52,848.524 1247.2,848.96 1256.83,849.039C1273.49,849.243 1290.16,849.215 1306.82,848.955L1305.04,1000.24C1287.86,1001.08 1269.07,1003.06 1251.91,1004.77C1226.51,1006.49 1200.92,1009.44 1175.31,1011.12C1172.64,958.452 1173.62,905.245 1172.99,852.204C1187.88,852.064 1207.14,850.403 1222.33,849.5Z" style="fill:white;fill-rule:nonzero;"/>
    </g>
    <g transform="matrix(0.5,0,0,0.5,-61.6002,-243.04)">
        <path d="M1208.47,865.44C1218.56,864.976 1227.58,864.961 1237.63,865.04C1238.72,878.002 1238.12,902.086 1238.11,915.597C1238.09,941.692 1238.18,969.679 1236.58,995.63C1229.89,996.966 1218.85,997.675 1211.75,998.34C1204.26,998.998 1190.48,1000.88 1184.06,998.459C1179.31,990.46 1180.92,881.162 1182.76,866.32L1208.47,865.44Z" style="fill:rgb(2,2,2);fill-rule:nonzero;"/>
    </g>
    <g transform="matrix(0.5,0,0,0.5,-61.6002,-243.04)">
        <path d="M1213.62,935.424C1218.48,934.972 1226.06,935.06 1231.15,934.98C1231.23,954.181 1231.1,973.713 1231.97,992.867C1223.57,992.891 1216.64,993.212 1208.25,993.791L1186.9,995.099C1188.44,979.781 1187.8,953.101 1187.91,937.144C1196.26,936.329 1205.2,935.939 1213.62,935.424Z" style="fill:white;fill-rule:nonzero;"/>
    </g>
    <g transform="matrix(0.5,0,0,0.5,-61.6002,-243.04)">
        <path d="M1229.93,881.073C1231.92,883.229 1231.05,923.679 1231.03,929.85L1189.04,931.521C1187.04,928.852 1188.59,915.745 1188.87,911.71C1206.88,897.046 1209.41,892.903 1229.93,881.073Z" style="fill:white;fill-rule:nonzero;"/>
    </g>
    <g transform="matrix(0.5,0,0,0.5,-61.6002,-243.04)">
        <path d="M1228.68,870.617C1231.17,872.719 1230.23,871.405 1231.1,875.004C1229.42,878.668 1219.96,882.863 1215.96,885.513C1206.7,891.649 1198.36,897.493 1190.68,905.593L1189.04,905.546L1189.32,902.02C1194.62,893.038 1218.91,876.088 1228.68,870.617Z" style="fill:white;fill-rule:nonzero;"/>
    </g>
    <g transform="matrix(0.5,0,0,0.5,-61.6002,-243.04)">
        <path d="M1210.27,873.469C1214.31,872.502 1216,871.915 1220.1,871.925L1220.32,872.61C1208.03,876.185 1206.01,881.667 1196.12,887.826L1189.9,892.957L1189.18,892.382C1190.02,880.443 1203.25,880.761 1210.27,873.469Z" style="fill:white;fill-rule:nonzero;"/>
    </g>
    <g transform="matrix(0.5,0,0,0.5,-61.6002,-243.04)">
        <path d="M1187.11,878.55C1187.53,876.618 1187.4,875.123 1188.64,874.354C1192.88,871.721 1205.33,872.984 1210.27,873.469C1206.47,874.404 1190.06,878.977 1187.11,878.55Z" style="fill:white;fill-rule:nonzero;"/>
    </g>
    <g transform="matrix(0.5,0,0,0.5,-61.6002,-243.04)">
        <path d="M1284.44,862.446C1287.6,862.284 1289.72,861.815 1292.5,863.231C1296.36,870.715 1293.8,976.88 1292.5,990.969C1283.2,992.805 1266.22,993.888 1256.24,994.71C1252.65,995.006 1251.4,995.576 1248.9,993.118C1246.4,985.659 1246.58,876.279 1248.44,865.225C1251.74,862.046 1277.42,862.664 1284.44,862.446Z" style="fill:rgb(2,2,2);fill-rule:nonzero;"/>
    </g>
    <g transform="matrix(0.5,0,0,0.5,-61.6002,-243.04)">
        <path d="M1281.78,931.443C1285.57,931.13 1284.17,930.495 1286.54,932.414C1288.18,949.502 1286.21,968.645 1287.67,986.891C1277.77,987.788 1267.86,988.575 1257.95,989.254L1254.58,989.594C1251.71,986.236 1253.61,942.015 1253.87,934.133C1262.48,932.825 1272.98,932.195 1281.78,931.443Z" style="fill:white;fill-rule:nonzero;"/>
    </g>
    <g transform="matrix(0.5,0,0,0.5,-61.6002,-243.04)">
        <path d="M1285.42,868.724C1288.27,872.458 1286.7,918.693 1286.6,926.726C1276.3,927.21 1265.65,928.076 1255.33,928.773C1252.56,925.054 1253.71,900.753 1253.76,894.468C1261.68,887.235 1276.55,875.208 1285.42,868.724Z" style="fill:white;fill-rule:nonzero;"/>
    </g>
    <g transform="matrix(0.5,0,0,0.5,-61.6002,-243.04)">
        <path d="M1274.75,869.843C1277.32,870.217 1276.59,869.594 1277.91,871.006C1274.79,874.019 1261.16,882.772 1256.6,886C1255.61,886.711 1256.28,886.362 1254.45,886.644C1253.27,879.462 1268.97,871.983 1274.75,869.843Z" style="fill:white;fill-rule:nonzero;"/>
    </g>
    <g transform="matrix(0.5,0,0,0.5,-61.6002,-243.04)">
        <path d="M1223.58,718.413C1228.44,717.849 1237.95,718.041 1243.2,718.008C1233.02,729.295 1214.84,743.413 1203.07,753.168L1143.93,802.857C1135.12,810.366 1120.17,822.41 1113.61,831.045C1041.6,827.198 966.246,830.875 894.096,829.223C885.517,829.161 878.565,829.218 870.026,829.779C890.964,807.145 909.914,781.832 930.744,759.016C937.7,751.398 945.021,743.277 950.58,734.624C966.851,732.969 988.549,733.621 1006,732.327C1078.48,726.953 1151.13,724.263 1223.58,718.413Z" style="fill:white;fill-rule:nonzero;"/>
    </g>
    <g transform="matrix(0.5,0,0,0.5,-61.6002,-243.04)">
        <path d="M1195.95,728.951L1196.38,729.406C1195.96,732.018 1192.59,734.626 1190.37,736.918C1198.06,737.046 1205.8,737.315 1213.49,737.535C1207.86,739.258 1201.38,739.446 1195.48,739.693C1187.77,740.017 1189.61,742.101 1184.12,744.953C1184.43,742.552 1184.58,743.676 1183.78,741.566C1177.48,740.642 1157.65,742.821 1149.93,743.444C1145.32,748.931 1137.7,755.881 1132.37,761.016C1147.87,760.886 1164.68,759.567 1180,761.055L1179.58,761.744C1172.47,763.795 1166.02,763.555 1158.63,763.716C1154.09,769.878 1150.33,774.929 1143.89,779.359C1147.82,773.27 1152.28,769.001 1157.28,763.783C1141.26,764.372 1125.23,764.807 1109.2,765.089C1104.66,771.842 1098.57,777.639 1092.82,783.403C1102.37,783.366 1149.23,781.499 1155.67,783.292L1155.29,784.202C1151.43,785.568 1128.19,786.053 1121.89,786.39C1117.45,791.91 1109.3,799.759 1104.14,805.027C1109.45,804.89 1121.64,803.765 1125.63,806.158L1124.94,807.271C1119.59,808.499 1090.17,807.93 1081.63,808.662L1080.26,808.786C1076.2,813.333 1074.64,815.076 1069.7,818.978L1068.01,818.866L1068.48,819.774L1067.73,820.118L1067.31,819.951C1069.55,815.639 1073.64,812.395 1077.26,808.986C1061,808.836 1044.74,808.809 1028.48,808.907C1022.76,814.482 1019.34,817.6 1012.62,821.844L1025.09,809.069C1008.68,808.83 992.274,808.945 975.872,809.413C973.206,812.377 968.037,818.573 964.154,819.438C965.48,815.93 969.869,812.351 972.736,809.592C957.201,808.869 938.959,809.618 922.903,809.403C919.887,812.152 913.945,818.06 910.276,818.888C911.723,815.434 915.436,812.505 918.256,809.834C913.313,809.982 901.888,810.946 898.232,808.234C900.343,806.535 937.189,806.868 943.246,806.817C949.659,800.553 955.061,795.561 961.878,789.748C947.054,789.758 928.885,790.386 914.484,789.009L914.415,788.374C922.654,786.467 928.495,786.883 936.982,786.977C940.889,781.945 947.983,774.84 952.559,769.715C944.113,770.043 938.458,770.511 930.002,768.782C937.079,765.993 970.587,767.286 982.05,766.041L983.538,765.871C988.483,759.231 993.527,755.33 999.821,750.091C985.54,750.505 954.732,753.603 943.016,750.245L943.203,749.51C954.024,748.157 966.92,747.996 978.054,747.359C981.556,744.322 985.092,740.704 989.294,739.066C988.261,741.962 984.801,744.754 982.435,747.029C995.276,747.032 1007.5,746.477 1020.33,745.9C1023.72,742.181 1028.86,735.892 1033.57,734.558L1031.75,737.305L1032.4,735.102L1030.96,736.115L1031.85,737.312C1029.91,739.923 1025.83,743.108 1023.23,745.365L1069.46,744.034C1072.64,740.228 1076.02,735.509 1080.87,734.411C1079.52,737.653 1075.1,740.874 1072.27,743.328L1120.81,742.051C1125.4,733.026 1127.89,731.92 1136.66,728.064L1123.14,741.067C1143.57,739.804 1164.92,739.428 1185.5,738.582C1188.57,735.179 1192.47,731.991 1195.95,728.951Z" style="fill:rgb(2,2,2);fill-rule:nonzero;"/>
    </g>
    <g transform="matrix(0.5,0,0,0.5,-61.6002,-243.04)">
        <path d="M1091.55,786.444C1098.98,785.787 1111.51,785.987 1119.34,785.859C1113.26,791.792 1106.77,797.641 1102.83,805.16C1096.45,805.582 1089.67,805.685 1083.25,805.882L1051.37,806.187C1057.22,800.011 1064.47,794.314 1069.09,787.27C1076.58,787.105 1084.07,786.829 1091.55,786.444Z" style="fill:white;fill-rule:nonzero;"/>
    </g>
    <g transform="matrix(0.5,0,0,0.5,-61.6002,-243.04)">
        <path d="M994.57,788.468L1015.32,788.095C1009.69,794.249 1003.28,799.798 997.286,806.408C986.775,807.047 977.663,806.8 967.181,806.567C961.199,806.265 952.742,806.615 946.571,806.69C952.74,800.252 959.565,796.101 966.178,789.129C975.643,788.966 985.107,788.746 994.57,788.468Z" style="fill:white;fill-rule:nonzero;"/>
    </g>
    <g transform="matrix(0.5,0,0,0.5,-61.6002,-243.04)">
        <path d="M1017.68,788.447C1033.56,787.647 1050.73,787.982 1066.72,788.073C1059.7,794.823 1055.12,798.911 1049.02,806.49L1000.07,806.26C1006.61,800.044 1011.66,795.142 1017.68,788.447Z" style="fill:white;fill-rule:nonzero;"/>
    </g>
    <g transform="matrix(0.5,0,0,0.5,-61.6002,-243.04)">
        <path d="M1071.8,766.513L1107.45,765.595C1101.34,772.374 1095.33,776.075 1090.01,783.988L1074.64,784.304C1063.86,784.888 1051.84,784.755 1040.97,784.865C1046.8,778.368 1052.66,774.789 1057.51,767.03L1071.8,766.513Z" style="fill:white;fill-rule:nonzero;"/>
    </g>
    <g transform="matrix(0.5,0,0,0.5,-61.6002,-243.04)">
        <path d="M1035,767.488L1056.31,767.118C1050.34,772.59 1043.29,778.594 1038.42,784.947C1029.53,785.277 1020.42,785.376 1011.5,785.576C1004.23,785.836 997.2,785.644 989.935,785.5C996.05,780.026 1001.43,775.512 1006.57,769.045C1015.86,768.336 1025.66,767.979 1035,767.488Z" style="fill:white;fill-rule:nonzero;"/>
    </g>
    <g transform="matrix(0.5,0,0,0.5,-61.6002,-243.04)">
        <path d="M1136.7,743.432C1138.86,743.151 1144.69,743.141 1147.14,743.065C1141.94,748.412 1135.2,754.719 1131.63,761.064L1095.75,762.379C1091.45,762.626 1086.69,762.66 1082.34,762.786C1088.08,757.095 1094.41,751.928 1098.89,745.281C1111.5,744.734 1124.1,744.118 1136.7,743.432Z" style="fill:white;fill-rule:nonzero;"/>
    </g>
    <g transform="matrix(0.5,0,0,0.5,-61.6002,-243.04)">
        <path d="M970.235,769.537C981.472,769.166 993.073,769.16 1004.35,769.022C998.229,775.317 993.6,778.422 987.653,785.721L970.496,786.317C960.584,786.937 949.107,786.67 939.067,786.668C943.232,781.796 950.636,774.79 955.334,770.061L970.235,769.537Z" style="fill:white;fill-rule:nonzero;"/>
    </g>
    <g transform="matrix(0.5,0,0,0.5,-61.6002,-243.04)">
        <path d="M1075.24,746.619L1095.77,745.468C1090.53,751.401 1085.2,757.259 1079.8,763.042C1072.23,764.057 1062.07,763.906 1054.25,764.016L1032.96,764.636C1038.17,759.514 1043.92,754.257 1048.06,748.299C1057.1,747.09 1066.13,746.941 1075.24,746.619Z" style="fill:white;fill-rule:nonzero;"/>
    </g>
    <g transform="matrix(0.5,0,0,0.5,-61.6002,-243.04)">
        <path d="M1037.66,748.462C1040.13,748.18 1040.1,748.209 1042.56,748.609L1043.1,750.283C1041.16,754.006 1033.19,761.2 1029.61,764.856C1017.9,765.96 1005.55,766.048 993.75,766.358C991.782,766.472 990.778,766.319 988.81,766.166L988.094,764.603C990.225,760.599 998.887,753.655 1002.73,750.217C1014.01,749.14 1026.27,748.903 1037.66,748.462Z" style="fill:white;fill-rule:nonzero;"/>
    </g>
    <g transform="matrix(0.5,0,0,0.5,-61.6002,-243.04)">
        <path d="M915.531,855.796L1040.65,856.943C1065.41,857.123 1091.44,856.788 1116.09,857.976C1118.33,896.757 1112.82,940.592 1114.98,980.318C1116.21,1002.77 1115.94,1030.3 1115.06,1052.73C1114.16,1053.5 1114.03,1053.25 1112.54,1053.55C1101.48,1050.06 1072.52,1021.17 1062.9,1011.6C1036.61,985.479 1004.48,962.363 982.325,932.854C961.623,905.285 938.339,881.373 915.531,855.796Z" style="fill:white;fill-rule:nonzero;"/>
    </g>
    <g transform="matrix(0.5,0,0,0.5,-61.6002,-243.04)">
        <path d="M1248.76,717.726C1275.88,743.115 1303.71,767.733 1332.22,791.548C1345.51,802.77 1373.82,825.396 1383.94,836.934C1374.55,838.882 1364.23,839.428 1354.68,839.911C1346.32,834.006 1335.92,823.277 1327.72,816.24C1308.83,800.212 1289.79,784.355 1270.62,768.668C1264.65,763.726 1250.69,748.966 1243.49,752.23C1214.84,773.649 1185.07,802.608 1156.4,825.022C1146.92,832.437 1130.77,847.765 1120.45,852.682C1119.8,845.857 1118.94,840.779 1117.7,834.027C1125.55,825.985 1141.8,813.338 1150.87,805.839C1166.99,792.362 1182.95,778.706 1198.76,764.874C1215.41,750.559 1234.99,734.538 1248.76,717.726Z" style="fill:white;fill-rule:nonzero;"/>
    </g>
    <g transform="matrix(0.5,0,0,0.5,-61.6002,-243.04)">
        <path d="M870.505,836.56C903.393,835.031 944.873,836.221 978.344,836.441L1114.34,836.864C1114.98,843.16 1114.9,845.691 1118.36,850.879L874.538,849.426C872.828,844.868 871.289,841.389 870.505,836.56Z" style="fill:white;fill-rule:nonzero;"/>
    </g>
    <g transform="matrix(0.5,0,0,0.5,-61.6002,-243.04)">
        <path d="M521.419,877.19L428.472,760.488C413.662,742.05 347.223,663.087 342.022,649.577L342.911,649.192C353.321,657.595 380.913,692.646 391.668,705.66C438.144,761.975 483.635,819.095 528.121,876.994C550.814,876.649 576.398,873.956 599.279,872.581C622.245,871.2 647.765,870.295 670.329,867.186L671.123,866.988C692.025,866.855 719.185,863.31 738.591,864.024C749.341,873.682 757.013,886.421 766.293,896.762C785.417,918.075 803.713,939.904 822.337,961.612C825.479,965.274 849.404,995.295 851.803,996.975C870.213,993.83 888.748,995.395 906.367,992.819C896.665,980.62 887.518,967.991 878.953,954.969C868.485,955.156 828.099,957.815 821.659,955.539L821.564,954.327C825.277,952.496 836.801,952.866 841.585,952.764C832.425,941.831 821.74,928.389 817.495,914.707C810.093,914.768 792.736,915.42 786.573,913.848L786.048,912.752C788.558,911.885 788.981,911.692 791.585,911.345C792.711,906.445 779.155,891.527 776.228,884.836L776.456,884.244C785.918,893.565 788.696,899.982 795.331,911.062C812.99,911.08 843.303,911.95 859.931,909.806C854.79,902.889 845.58,890.665 842.555,883.057C849.263,891.207 856.578,901.291 863.046,909.835C874.631,909.616 937.281,907.277 943.548,909.047L943.12,909.961C935.035,911.89 925.723,910.611 917.38,911.349C884.506,914.259 851.781,912.757 818.754,915.09C827.623,929.193 833.779,940.037 845.337,952.132C856.964,951.337 909.823,951.18 914.931,949.613L916.226,948.296C923.305,953.221 968.603,945.409 978.249,950.323C969.259,952.301 954.987,952.159 945.513,952.574C924.284,953.502 902.833,953.463 881.661,955.264C890.429,968.296 900.364,978.907 909.238,992.899C929.877,993.037 954.805,990.347 976.016,990.246C988.449,990.187 1002.4,987.943 1015.06,989.52C1008.9,992.677 951.833,994.75 941.674,995.323C947.596,1005.04 960.726,1021.66 968.079,1032.26C982.577,1031.45 1047.14,1026.45 1056.42,1029.49L1054.01,1029.28L1054.32,1030.32C1041.83,1032.31 1029.23,1032.15 1016.66,1033.17C979.823,1036.15 942.987,1038.59 906.009,1038.63C900.27,1038.63 895.924,1038.93 890.26,1037.78C897.744,1034.02 952.619,1033.64 965.478,1032.78C959.519,1021.83 948.274,1009.79 940.437,995.718C917.182,996.76 892.663,997.567 869.658,998.842C877.682,1008.67 888.871,1022.6 892.484,1034.58C884.378,1023.15 874.177,1011.65 869.01,998.887L853.632,999.418C880.497,1032.07 909.534,1065.06 936.911,1097.6C954.003,1117.92 982.098,1153.62 999.708,1171.11C1014.96,1166.79 1033.4,1164.65 1049.21,1162.41L1123.99,1152.06L1323.93,1124.19C1361.28,1118.99 1400.28,1114.23 1437.32,1107.84C1449.96,1045.05 1461.93,982.128 1473.24,919.085C1476.84,899.552 1480.62,880.052 1484.58,860.589C1485.93,853.59 1489.04,825.811 1495.62,823.24C1499.6,832.804 1485.25,894.531 1482.43,908.598C1496.85,908.827 1511.26,908.964 1525.68,909.009C1531,899.776 1537.68,891.625 1543.36,881.588C1531.64,880.673 1501.54,881.901 1492.92,877.908C1496.3,875.281 1511.36,876.374 1516.11,876.523C1522.06,865.825 1528.36,858.7 1536.36,849.523C1529.38,849.341 1501.06,849.7 1497.62,846.585C1499.59,844.525 1502.8,844.574 1506.13,843.953C1510.24,838.644 1512.16,836.65 1517,832.006C1514.71,836.272 1512.14,840.487 1509.68,844.662C1525.39,844.913 1541.11,845.017 1556.83,844.974C1559.33,841.635 1564.04,834.917 1567.69,833.429C1566.46,837.665 1562.88,841.47 1560.06,845.069C1576.86,845.153 1593.65,844.854 1610.44,844.173C1612.98,841.317 1617.95,834.922 1621.27,833.731C1620.43,837.338 1616.86,841.238 1614.5,844.323C1630.87,844.297 1647.24,843.957 1663.6,843.305C1666.62,839.319 1670.84,833.022 1675.02,830.797L1673.79,833.743L1674.88,830.985L1673.5,832.054L1674.15,833.356C1672.79,836.016 1669.14,840.441 1667.18,843.002C1680.8,843.081 1697.01,842.186 1710.58,841.146C1712.73,837.813 1716.09,832.602 1719.34,830.646C1719.03,833.637 1715.21,838.139 1713.26,840.839C1728.21,840.013 1743.16,839.327 1758.12,838.78C1759.41,835.414 1761.07,829.962 1764.72,828.696C1764.2,832.177 1761.25,835.265 1759,838.189C1763.46,837.838 1782.38,835.407 1784.71,838.15C1778.04,844.908 1671.73,843.012 1657.64,848.021C1653.56,858.863 1646.65,867.245 1640.72,877.171C1656.56,876.201 1673.62,875.47 1689.27,873.628C1691.32,861.81 1697.82,854.059 1704.81,844.51C1701.1,855.256 1694.14,862.808 1689.63,873.239C1705.94,872.713 1745.02,868.802 1758.21,870.892C1750.12,875.826 1617.02,880.738 1597.17,882.26C1591.33,891.341 1585.16,900.163 1579.41,909.089C1586.19,909.192 1615.09,910.519 1618.84,907.804C1618.98,901.367 1628.54,887.777 1633.54,884.678C1629.8,893.822 1623.71,898.512 1619.91,908.406C1644.21,908.158 1667.72,906.338 1691.94,905.2C1702.52,904.702 1719.21,903.49 1729.4,904.74L1729.68,905.526C1719.45,908.756 1704.44,908.017 1693.22,908.5C1678.3,909.099 1663.39,910.003 1648.51,911.211C1646.15,916.775 1638.51,933.842 1633.71,936.792C1636.88,928.012 1642.3,919.778 1647.26,911.899C1602.85,912.746 1610.45,903.044 1587.06,940.752C1623.41,941.07 1659.27,938.97 1695.6,939.197C1700.74,939.229 1705.37,939.548 1710.44,940.477C1690.95,944.784 1680.96,941.481 1664.68,943.226C1659.16,954.669 1651.53,964.775 1646.61,974.836C1658.58,974.986 1672.3,974.672 1683.89,977.103C1670.05,980.263 1647.39,978.93 1632.63,979.035C1626.5,990.052 1619.02,999.78 1613.11,1010.35C1618.62,1010.46 1645.75,1010.26 1648.88,1012.22L1648.45,1013.36C1639.66,1014.84 1607.39,1014.19 1597.86,1013.65C1593.01,1022.31 1581.43,1040.88 1575.52,1048.78C1586.25,1048.94 1607.52,1048.42 1616.66,1051.97L1616.48,1052.84C1603.38,1056.08 1578.76,1051.76 1564.49,1052.33C1562.58,1052.41 1561.37,1053.62 1560.19,1055.02C1556.22,1066.56 1545.96,1077.04 1542.47,1085.88C1554.3,1087.7 1574.05,1086.31 1583.48,1090.6L1583.08,1091.38C1566.81,1092.9 1538.34,1089.22 1520.51,1088.98C1517.93,1094.91 1513.55,1103.9 1508.89,1108.18L1508.41,1107C1510.3,1100.53 1514.36,1094.59 1517.87,1088.77C1499.43,1087.06 1468.34,1088.34 1452.42,1083.8C1465.89,1081.61 1527.77,1083.88 1541.46,1086.09C1541.55,1078.47 1554.16,1060.56 1558.6,1053.19C1554.92,1051.51 1514.81,1050.72 1507.85,1050.48C1505.04,1059.26 1492.67,1078.46 1485.84,1085.12C1490.41,1074.36 1499.68,1060.7 1506.27,1050.44C1489.93,1050 1471.96,1050.87 1456.54,1046.65C1465.59,1044.59 1469.8,1044.81 1479.22,1044.62C1484.55,1033.22 1493.45,1020.68 1501.89,1011.37C1497.57,1021.96 1488.18,1035.06 1481.76,1044.92C1494.38,1044.93 1508.89,1045.94 1521.65,1046.57C1526.95,1034.36 1534.67,1024.71 1542.78,1014.32C1530.49,1014.19 1480.18,1014.59 1471.81,1010.84C1478.02,1009.31 1497.15,1009.86 1504.71,1009.96C1509.77,999.768 1518.4,989.119 1524.3,978.114C1509.86,977.657 1484.91,977.7 1471.45,974.571C1480.67,972.767 1486.77,973.025 1496.19,972.964C1499.57,963.323 1506.93,953.709 1512.85,945.21C1506.46,944.628 1484.65,945.042 1481.26,941.178C1485.51,938.828 1527.17,941.122 1534.68,941.296C1539.98,931.959 1546.73,922.554 1553.07,913.878C1542.32,913.689 1512.07,911.681 1503.09,913.942C1502.31,921.722 1493.78,932.213 1488.89,938.313C1493.08,927.982 1498.44,922.674 1502.36,913.807C1499.54,912.938 1486.19,911.881 1482.46,911.524L1458.12,1041.85C1454.12,1063.98 1450.21,1087.16 1445.83,1109.3C1445.38,1111.58 1443,1114.37 1441.47,1116.19C1458.75,1116.41 1567.47,1120.09 1575.1,1126.25L1575.04,1128.05C1564.16,1134.4 1445.32,1119.52 1438.71,1124.53L1439.13,1126.77C1442.4,1128.38 1472.13,1128.07 1478.37,1129.36C1492.68,1132.34 1548.88,1132.19 1558.8,1137.22L1558.73,1138.71C1553.67,1140.53 1449.56,1132.94 1439.26,1131.77C1439.28,1136.73 1439.52,1142.06 1439.65,1147.05C1469.48,1150.26 1500.2,1152.58 1530.08,1155.78C1545.16,1157.39 1566.33,1158.2 1580.51,1161.32C1597.13,1142.23 1615.34,1115.85 1631.44,1094.98L1730.94,964.998C1749.39,940.549 1765.87,915.166 1785.49,891.665C1797.48,877.303 1809.5,862.989 1821.75,848.847C1825.13,855.941 1831.26,864.247 1835.66,871.074L1865.64,917.489C1884.71,946.979 1903.51,976.643 1922.04,1006.48C1928.75,1017.17 1944.13,1039.51 1947.13,1050.15L1945.54,1050.02C1938.44,1042.85 1913.9,1002.51 1906.77,991.542L1854.77,911.613C1844.17,895.164 1830.91,875.774 1822.9,858.431C1818.76,863.915 1814.71,869.465 1810.74,875.079C1817.7,881.985 1823.26,891.041 1828.6,899.252C1838.4,914.33 1925.76,1055.33 1926.68,1061.7C1927.05,1064.21 1927.38,1065.46 1925.78,1067.59C1917.12,1064.14 1860.02,964.036 1851.7,950.444L1823.63,904.809C1818.95,897.148 1811.56,885.865 1808.31,877.988C1780.94,905.204 1767.7,929.007 1745.5,959.272C1714.48,1001.57 1680.48,1042.64 1648.49,1084.23L1610.29,1134.16C1602.46,1144.39 1591.59,1159.15 1582.66,1168.03C1536.63,1167.75 1489.32,1158.66 1443.42,1156.84C1441.16,1190.99 1444.35,1251.1 1442.16,1287.43C1442.11,1288.31 1441.11,1288.49 1440.11,1288.94C1435.6,1282.69 1439.15,1170.85 1437.99,1151.78C1414.46,1153.46 1374.37,1160.95 1349.72,1164.7L1154.92,1193.74L1083.42,1204.67C1067.44,1207.09 1048.84,1210.26 1032.86,1211.29C1050.84,1233.56 1069.9,1255.14 1088.74,1276.68C1091.77,1280.15 1097.25,1285.61 1095.63,1290.35L1093.22,1291.02C1087.22,1287.93 1041.96,1233.26 1035.01,1225.15L841.697,998.075L776.246,920.951C764.254,906.81 749.862,888.883 737.203,875.701C696.315,916.599 652.889,964.227 612.76,1006.56L377.094,1253.38L298.93,1334.21C292.522,1340.8 271.898,1366.11 263.672,1365L262.724,1363.41C264.508,1356.71 315.319,1304.9 323.095,1296.71L452.828,1161.27C543.883,1065.99 634.526,968.218 726.217,873.757C665.594,876.466 602.451,881.228 541.842,885.344L381.934,895.342C347.173,897.746 312.389,899.814 277.589,901.545C260.722,902.345 243.862,902.893 226.982,903.113C222.949,903.166 219.49,902.426 218.439,898.308C221.943,887.91 238.305,863.089 245.031,852.547L292.782,778.443C300.474,766.558 335.103,710.308 342.192,705.255L343.84,705.538C344.726,710.594 329.934,731.115 326.406,736.661L286.949,798.175C266.506,830.012 244.419,867.109 222.422,897.362C309.565,891.3 397.776,887.732 485.065,880.053C450.388,834.916 413.945,790.493 379.289,745.239C364.638,726.107 348.267,707.712 333.57,688.555C327.033,700.575 309.899,725.161 301.816,737.655L236.38,838.088C226.612,852.816 200.209,896.02 190.187,906.815C190.435,905.953 190.683,905.091 190.93,904.229C192.229,899.215 195.026,894.307 197.758,889.907C219.907,854.24 243.527,819.352 266.165,783.999C279.89,762.175 293.797,740.467 307.886,718.876C313.847,709.667 326.531,688.942 333.821,681.985L335.353,682.235C344.87,688.976 375.141,728.919 384.419,740.793C419.784,786.054 459.923,833.127 492.789,880.065C502.325,879.033 511.868,878.075 521.419,877.19Z" style="fill:rgb(2,2,2);fill-rule:nonzero;"/>
    </g>
    <g transform="matrix(0.5,0,0,0.5,-61.6002,-243.04)">
        <path d="M1538.43,849.054C1556.12,848.903 1575.22,849.343 1592.8,849.319C1604.1,849.304 1650.24,845.289 1657.64,848.021C1652.98,852.818 1640.99,871.789 1638.14,877.958C1616.32,878.788 1594.47,878.874 1572.65,878.216C1576.77,871.942 1582.63,863.487 1586.27,857.057C1579.34,864.836 1575.02,869.123 1569.88,878.12C1562.03,878.28 1554.19,878.329 1546.35,878.266L1518.24,877.058C1523.73,869.556 1533.8,856.547 1538.43,849.054Z" style="fill:white;fill-rule:nonzero;"/>
    </g>
    <g transform="matrix(0.5,0,0,0.5,-61.6002,-243.04)">
        <path d="M1432.94,1119.42L1434.32,1119.48C1435.43,1122.41 1434.81,1140.27 1434.84,1144.87C1398.49,1149.02 1359.71,1155.52 1323.34,1161.04L1188.26,1181.36C1153.11,1186.56 1117.98,1191.94 1082.89,1197.5C1065.53,1200.18 1046.3,1202.68 1029.21,1206.17L1018.88,1193.7C1013.13,1187.31 1008.62,1181.98 1003.34,1175.21C1021.5,1174.87 1045.1,1171.35 1063.49,1168.86L1153.83,1156.16L1293.99,1137.6C1340.39,1131.43 1386.32,1124.63 1432.94,1119.42Z" style="fill:white;fill-rule:nonzero;"/>
    </g>
    <g transform="matrix(0.5,0,0,0.5,-61.6002,-243.04)">
        <path d="M1421.61,1124.47L1423.91,1124.45L1424.52,1125.74C1422.18,1127.77 1416.59,1129.77 1413.45,1130.22C1364.05,1137.2 1314.89,1145.78 1265.5,1152.85L1022.25,1188.85L1018.93,1188.48L1018.51,1187.27C1024.49,1182.37 1107.59,1171.88 1121.54,1169.91L1250.04,1150.76L1353.69,1134.93C1374.14,1131.61 1401.42,1126.07 1421.61,1124.47Z" style="fill:rgb(2,2,2);fill-rule:nonzero;"/>
    </g>
    <g transform="matrix(0.5,0,0,0.5,-61.6002,-243.04)">
        <path d="M1658.77,943.529L1660.24,943.8C1660.7,947.893 1647.61,966.467 1644.68,975.357C1629.68,975.41 1614.68,975.238 1599.69,974.841C1605.68,964.997 1614.09,953.505 1617.81,942.828C1609.47,953.19 1603.93,962.096 1598.05,974.147L1596.11,974.708C1580.22,974.328 1564.34,974.141 1548.45,974.145C1551.13,968.46 1562.14,951.433 1565.89,945.11C1593.53,943.638 1630.31,943.929 1658.77,943.529Z" style="fill:white;fill-rule:nonzero;"/>
    </g>
    <g transform="matrix(0.5,0,0,0.5,-61.6002,-243.04)">
        <path d="M1557.28,1013.45C1570.35,1012.8 1583.44,1012.87 1596.49,1013.69C1587.09,1024.48 1581.96,1034.76 1573.93,1046.4C1572.34,1048.71 1571.45,1048.02 1568.25,1048.18C1553.63,1047.36 1539,1046.84 1524.35,1046.62C1529.79,1036.52 1537.77,1024.49 1543.8,1013.89L1557.28,1013.45Z" style="fill:white;fill-rule:nonzero;"/>
    </g>
    <g transform="matrix(0.5,0,0,0.5,-61.6002,-243.04)">
        <path d="M1530.13,978.505C1545.98,978.103 1561.84,978.273 1577.68,979.015C1571.01,988.8 1564.9,998.96 1559.39,1009.44L1557.25,1010.1C1541.08,1010.35 1524.91,1010.18 1508.75,1009.58C1513.28,1002.16 1522.27,986.977 1527.73,979.209C1528.53,978.974 1529.33,978.74 1530.13,978.505Z" style="fill:white;fill-rule:nonzero;"/>
    </g>
    <g transform="matrix(0.5,0,0,0.5,-61.6002,-243.04)">
        <path d="M1582.32,978.397C1597.38,978.426 1614.15,978.67 1629.09,979.798C1626.19,984.002 1611.01,1009.3 1609.16,1010.33C1593.29,1009.98 1577.43,1009.86 1561.57,1009.98C1564.97,1004.07 1577.92,980.739 1582.32,978.397Z" style="fill:white;fill-rule:nonzero;"/>
    </g>
    <g transform="matrix(0.5,0,0,0.5,-61.6002,-243.04)">
        <path d="M1516.04,944.89C1528.35,944.119 1549.96,944.984 1562.79,945.426C1557.41,953.45 1549.88,965.581 1545.81,974.161C1529.95,974.857 1514.05,974.396 1498.26,972.781C1502.92,962.687 1510.53,955.336 1516.04,944.89Z" style="fill:white;fill-rule:nonzero;"/>
    </g>
    <g transform="matrix(0.5,0,0,0.5,-61.6002,-243.04)">
        <path d="M1546.86,881.883C1562.44,881.699 1578.02,881.71 1593.6,881.917C1588.67,889.711 1579.97,901.283 1576.76,909.349C1561.16,910.73 1544.66,910.089 1529.01,909.532C1533.23,901.709 1541.7,890.334 1546.86,881.883Z" style="fill:white;fill-rule:nonzero;"/>
    </g>
    <g transform="matrix(0.5,0,0,0.5,-61.6002,-243.04)">
        <path d="M1561.41,913.527C1575.04,912.918 1588.87,913.065 1602.53,913.05C1595.95,922.407 1591.51,929.972 1585.8,939.813C1582.65,941.603 1578.52,941.182 1574.74,941.214C1562.06,941.712 1550.16,941.379 1537.48,941.089C1542.97,932.824 1548.43,924.103 1554.52,916.242C1556.78,913.336 1557.96,913.87 1561.41,913.527Z" style="fill:white;fill-rule:nonzero;"/>
    </g>
    <g transform="matrix(0.5,0,0,0.5,-61.6002,-243.04)">
        <path d="M1565.14,572.352C1573.89,571.403 1620.04,578.042 1628.13,581.064C1630.68,585.618 1629.33,586.954 1625.84,590.135L1624.45,591.391C1623,596.295 1623.4,609.298 1623.22,615.322C1628.55,615.889 1656.25,615.496 1658.67,620.582C1661,625.484 1660.19,638.47 1658,644.042C1655.23,646.04 1650.47,645.93 1646.86,646.237C1645.22,698.558 1645.31,759.672 1646.27,812.083C1688.32,810.637 1731.24,807.076 1773.35,805.789C1784.56,805.446 1815.38,803.144 1825,805.268C1830.41,808.88 1865.18,867.262 1871.8,877.829L1942.13,989.072L1975.68,1042.91C1979.85,1049.58 1994.22,1067.93 1991.77,1074.81L1989.85,1075.36C1986.89,1073.81 1984.34,1071.54 1982.68,1068.66C1974.44,1054.4 1965.56,1040.72 1956.68,1026.89C1929.53,984.629 1902.62,942.221 1875.95,899.661L1843.32,848.331C1837.2,838.859 1828.06,826.591 1823.76,816.68C1813.03,830.232 1802.43,843.879 1791.43,857.294C1722,942.017 1656.15,1029.74 1588.44,1115.86C1585.99,1118.97 1583.67,1121.61 1580.12,1123.38L1579.1,1122.44C1580.48,1113.27 1641.53,1036.97 1650.91,1025.06C1684.42,982.551 1717.72,938.132 1751.57,895.928L1794.55,842.756C1801.43,834.146 1811.98,821.55 1817.31,812.455L1818.03,811.2C1805.62,810.754 1774.26,813.447 1759.76,814.129L1613.98,821.479C1589.76,822.601 1563.23,824.748 1539.27,823.957C1522.66,807.55 1507.72,795.778 1491.19,777.288C1489.31,762.177 1490.74,722.019 1490.95,705.288C1398.85,698.599 1306.7,692.641 1214.5,687.415C1163.55,683.699 1109.24,681.806 1057.84,678.719L627.471,654.335L440.38,643.143C409.53,641.308 366.01,640.308 336.337,636.778C324.584,649.253 308.767,678.142 298.736,693.75C275.709,729.115 253.264,764.855 231.409,800.956C211.52,833.776 191.816,866.677 171.016,898.981C169.019,902.082 167.673,904.364 164.533,904.954C162.316,902.822 163.128,904.12 162.544,900.655C164.347,893.828 206.198,829.913 212.981,819.03L279.25,712.583C288.298,697.89 321.571,639.251 332.505,629.903C361.152,632.996 400.463,634.077 430.36,635.909C504.758,640.599 579.182,644.879 653.627,648.748L1196.13,679.711L1344.69,688.137C1393.42,690.341 1442.13,692.987 1490.82,696.076C1491.95,680.095 1492.37,663.019 1493.11,646.914C1489.29,646.932 1486.23,647.411 1482.96,645.622C1477.31,639.26 1479.76,629.367 1480.22,620.014C1487.16,618.292 1509.59,616.319 1516.95,615.811C1517.02,608.486 1517.36,600.152 1516.54,592.914C1516.2,589.968 1515.05,590.115 1511.89,587.887C1510.68,584.746 1510.56,586.212 1511.5,583.381C1519.22,577.985 1554.42,574.007 1565.14,572.352Z" style="fill:rgb(2,2,2);fill-rule:nonzero;"/>
    </g>
    <g transform="matrix(0.5,0,0,0.5,-61.6002,-243.04)">
        <path d="M1570.75,642.377C1593.6,642.678 1617.3,644.059 1640.19,645.094C1638.52,662.757 1639.18,703.278 1639.53,722.27C1639.98,747.374 1638.51,788.922 1640.84,812.653C1607.67,813.685 1575.03,815.753 1541.89,817.073C1532.2,807.452 1506.43,784.415 1500.2,775.527C1499.53,757.711 1500.09,737.255 1500.17,719.249C1500.23,699.394 1500.68,665.036 1498.78,646.155C1520.85,645.037 1541.42,643.126 1563.91,642.414C1561.54,659.132 1562.88,800.538 1568.25,810.47L1567.75,808.352L1569.14,808.335C1571.08,795.359 1570.09,769.668 1570.25,755.2C1570.77,717.595 1570.93,679.985 1570.75,642.377Z" style="fill:white;fill-rule:nonzero;"/>
    </g>
    <g transform="matrix(0.5,0,0,0.5,-61.6002,-243.04)">
        <path d="M1601.33,652.144C1594.71,651.424 1586.12,651.365 1580.52,649.081L1580.76,648.419C1588.96,647.996 1624.89,649.842 1632.78,651.635L1633.34,652.677C1630.06,654.869 1609.85,652.808 1603.5,652.824L1604.07,674.819C1610.81,675.081 1628,675.49 1633.37,678.348C1630.97,680.055 1626.38,679.425 1623.28,679.21C1623.36,687.939 1623.31,696.951 1623.55,705.651C1629.09,705.816 1630.91,705.551 1636.12,707.649C1630.87,710.359 1610.78,709.198 1603.79,709.049C1603.93,716.759 1604.36,724.127 1602.95,731.72C1601.24,727.727 1601.3,713.487 1601.29,708.674C1592.98,708.048 1584.5,707.68 1576.43,705.733L1576.05,704.829C1580.63,704.016 1581.62,703.912 1586.25,704.203L1586.03,677.052C1582.24,676.77 1579.65,676.887 1576.21,675.275C1581.49,672.899 1596.15,674.428 1602.09,674.916C1601.55,667.338 1601.3,659.742 1601.33,652.144Z" style="fill:white;fill-rule:nonzero;"/>
    </g>
    <g transform="matrix(0.5,0,0,0.5,-61.6002,-243.04)">
        <path d="M1601.33,652.144C1594.71,651.424 1586.12,651.365 1580.52,649.081L1580.76,648.419C1588.96,647.996 1624.89,649.842 1632.78,651.635L1633.34,652.677C1630.06,654.869 1609.85,652.808 1603.5,652.824L1604.07,674.819C1610.81,675.081 1628,675.49 1633.37,678.348C1630.97,680.055 1626.38,679.425 1623.28,679.21C1623.36,687.939 1623.31,696.951 1623.55,705.651C1629.09,705.816 1630.91,705.551 1636.12,707.649C1630.87,710.359 1610.78,709.198 1603.79,709.049C1603.93,716.759 1604.36,724.127 1602.95,731.72C1601.24,727.727 1601.3,713.487 1601.29,708.674C1592.98,708.048 1584.5,707.68 1576.43,705.733L1576.05,704.829C1580.63,704.016 1581.62,703.912 1586.25,704.203L1587.94,704.018C1597.77,705.415 1610.95,705.381 1621.11,705.625L1620.98,678.975C1613.49,678.658 1593.64,675.698 1588.68,678.722L1587.91,682.392L1586.03,677.052C1582.24,676.77 1579.65,676.887 1576.21,675.275C1581.49,672.899 1596.15,674.428 1602.09,674.916C1601.55,667.338 1601.3,659.742 1601.33,652.144Z" style="fill:rgb(2,2,2);fill-rule:nonzero;"/>
    </g>
    <g transform="matrix(0.5,0,0,0.5,-61.6002,-243.04)">
        <path d="M1586.03,677.052L1587.91,682.392C1588.47,689.655 1588.13,696.74 1587.94,704.018L1586.25,704.203L1586.03,677.052Z" style="fill:rgb(166,166,170);fill-rule:nonzero;"/>
    </g>
    <g transform="matrix(0.5,0,0,0.5,-61.6002,-243.04)">
        <path d="M1523.9,652.763C1516.61,653.493 1509.19,654.992 1502.4,652.54C1508.11,649.888 1550.37,647.606 1558.4,648.495C1555.35,651.367 1532.01,652.28 1526.18,652.67L1526.78,676.305C1534.62,675.679 1552.72,673.975 1559.49,675.421C1555.84,677.554 1550.38,678.038 1546.01,678.824L1545.97,704.201L1543.78,704.501C1538.72,704.959 1535.31,705.17 1530.24,705.131C1523.69,705.839 1521.58,706.031 1514.89,705.592C1514.57,697.535 1514.65,688.823 1514.57,680.711C1510.71,680.014 1509.92,681.711 1504.71,679.459L1505.17,678.273C1512.03,676.855 1517.18,676.93 1524.17,676.761L1523.9,652.763Z" style="fill:white;fill-rule:nonzero;"/>
    </g>
    <g transform="matrix(0.5,0,0,0.5,-61.6002,-243.04)">
        <path d="M1523.9,652.763C1516.61,653.493 1509.19,654.992 1502.4,652.54C1508.11,649.888 1550.37,647.606 1558.4,648.495C1555.35,651.367 1532.01,652.28 1526.18,652.67L1526.78,676.305C1534.62,675.679 1552.72,673.975 1559.49,675.421C1555.84,677.554 1550.38,678.038 1546.01,678.824L1543.83,679.623C1536.83,678.653 1523.39,678.456 1516.74,680.872L1514.57,680.711C1510.71,680.014 1509.92,681.711 1504.71,679.459L1505.17,678.273C1512.03,676.855 1517.18,676.93 1524.17,676.761L1523.9,652.763Z" style="fill:rgb(2,2,2);fill-rule:nonzero;"/>
    </g>
    <g transform="matrix(0.5,0,0,0.5,-61.6002,-243.04)">
        <path d="M1543.83,679.623L1546.01,678.824L1545.97,704.201L1543.78,704.501C1543.52,697.916 1542.58,685.429 1543.83,679.623Z" style="fill:rgb(86,85,90);fill-rule:nonzero;"/>
    </g>
    <g transform="matrix(0.5,0,0,0.5,-61.6002,-243.04)">
        <path d="M1516.74,680.872C1517.27,688.778 1516.65,697.05 1516.24,704.996C1520.44,704.96 1526.19,704.735 1530.24,705.131C1523.69,705.839 1521.58,706.031 1514.89,705.592C1514.57,697.535 1514.65,688.823 1514.57,680.711L1516.74,680.872Z" style="fill:rgb(166,166,170);fill-rule:nonzero;"/>
    </g>
    <g transform="matrix(0.5,0,0,0.5,-61.6002,-243.04)">
        <path d="M1543.78,704.501L1545.97,704.201C1550.2,704.105 1554.15,703.594 1558.02,705.066C1555.08,707.634 1529.66,708.723 1524.02,709.13L1524,735.546C1530.47,735.554 1536.92,735.457 1543.38,735.409C1547.92,735.375 1557.41,733.562 1560.41,736.482C1554.59,738.983 1550.66,737.198 1545.13,739.483L1542.91,738.942C1537.86,737.726 1510.98,738.877 1503.88,738.897L1504.57,738.098C1511.14,735.551 1514.99,735.885 1522.03,735.787L1521.85,708.958C1512.5,709.257 1506.95,709.462 1497.75,708.471C1504.6,706.65 1507.88,706.34 1514.89,705.592C1521.58,706.031 1523.69,705.839 1530.24,705.131C1535.31,705.17 1538.72,704.959 1543.78,704.501Z" style="fill:rgb(2,2,2);fill-rule:nonzero;"/>
    </g>
    <g transform="matrix(0.5,0,0,0.5,-61.6002,-243.04)">
        <path d="M1620.71,768.477C1610.02,768.363 1586.21,768.31 1576.63,765.766L1575.87,764.943C1587.58,763.537 1629.25,764.739 1640.47,767.461C1633.39,768.258 1629.83,768.727 1622.7,768.429L1622.09,792.702C1626.39,792.8 1629.29,792.514 1633.26,794.193C1631.66,795.868 1622.97,796.058 1620.34,796.104L1600.58,796.406L1599.07,796.076C1593.85,796.162 1580.74,797.3 1577.16,794.412C1579.1,792.132 1614.23,793.068 1619.99,792.928C1620.03,785.025 1619.86,776.246 1620.71,768.477Z" style="fill:rgb(2,2,2);fill-rule:nonzero;"/>
    </g>
    <g transform="matrix(0.5,0,0,0.5,-61.6002,-243.04)">
        <path d="M1585.15,740.545L1584.25,738.417C1581.44,737.741 1579.48,737.289 1576.72,736.29L1576.77,735.267C1585.4,733.99 1625.62,735.9 1634.82,737.128L1635.1,737.9C1630.12,739.409 1629.37,739.253 1624.04,739.257C1624.02,745.702 1624.24,752.367 1623.31,758.71C1621.87,752.308 1621.95,745.592 1621.75,739.009C1615.3,738.886 1592.71,737.857 1588.24,738.582C1586.71,742.379 1587.04,745.44 1587.01,749.55L1585.15,740.545Z" style="fill:rgb(2,2,2);fill-rule:nonzero;"/>
    </g>
    <g transform="matrix(0.5,0,0,0.5,-61.6002,-243.04)">
        <path d="M1543.77,764.176L1545.52,763.628L1550.03,763.894C1553.16,764.065 1554.69,763.752 1557.34,765.436C1552.58,768.085 1529.83,767.9 1523.13,768.058C1523.1,773.524 1523,777.855 1522.59,783.337L1521.35,784.613L1522.23,785.302L1521.88,786.22L1522.13,784.945L1521.21,785.111L1521.67,786.267L1522.14,784.619L1520.98,783.811C1520.26,779.081 1520.48,772.681 1520.47,767.774C1516.14,767.887 1509,768.457 1505.39,766.506C1512.01,763.644 1535.72,763.893 1543.77,764.176Z" style="fill:rgb(2,2,2);fill-rule:nonzero;"/>
    </g>
    <g transform="matrix(0.5,0,0,0.5,-61.6002,-243.04)">
        <path d="M1523.16,793.459C1527.63,792.489 1556.19,792.039 1558.71,794.496C1554.32,797.932 1554.29,793.91 1549.11,797.213C1548.62,800.532 1548.04,803.727 1547.44,807.028C1546.49,805.215 1546.69,798.672 1546.63,796.14C1538.93,796.182 1529.68,797.176 1523.16,793.459Z" style="fill:rgb(2,2,2);fill-rule:nonzero;"/>
    </g>
    <g transform="matrix(0.5,0,0,0.5,-61.6002,-243.04)">
        <path d="M1542.91,738.942L1545.13,739.483C1546.43,745.535 1545.87,757.149 1545.52,763.628L1543.77,764.176C1542.77,758.413 1542.98,745.313 1542.91,738.942Z" style="fill:rgb(86,85,90);fill-rule:nonzero;"/>
    </g>
    <g transform="matrix(0.5,0,0,0.5,-61.6002,-243.04)">
        <path d="M1599.07,796.076L1600.58,796.406C1601.75,801.214 1602.47,805.172 1601.48,810.118C1599.5,806.142 1599.48,800.676 1599.07,796.076Z" style="fill:rgb(86,85,90);fill-rule:nonzero;"/>
    </g>
    <g transform="matrix(0.5,0,0,0.5,-61.6002,-243.04)">
        <path d="M1585.15,740.545L1587.01,749.55C1587.1,751.037 1586.84,753.959 1586.75,755.566L1586.14,755.913C1584.58,749.373 1584.87,747.075 1585.15,740.545Z" style="fill:rgb(86,85,90);fill-rule:nonzero;"/>
    </g>
    <g transform="matrix(0.5,0,0,0.5,-61.6002,-243.04)">
        <path d="M1571.08,579.212C1581.87,581.3 1607.86,584.073 1616.06,586.596C1617.7,590.312 1617,590.161 1616.59,594.833C1608.93,593.961 1580.7,591.31 1574.68,593.458L1574.69,593.877C1579.76,595.184 1580.75,595.221 1586.01,595.169C1586.11,601.378 1585.88,607.488 1587.21,613.515C1572.96,612.122 1559.17,612.834 1544.98,614.09L1545.29,596.226C1552.15,595.575 1557.32,595.724 1563.53,592.927C1558.66,590.878 1531.94,594.663 1525.4,595.687L1525.09,596.597C1530.52,598.417 1536.69,597.214 1542.74,596.806L1543.02,614.079C1537.09,614.909 1528.47,615.298 1522.3,615.753C1522.87,605.164 1523.01,597.72 1521.99,587.227C1532.86,584.363 1553.89,581.425 1565.84,579.401C1565.88,588.469 1566.49,597.526 1567.65,606.519C1570.57,602.911 1570.83,584.819 1571.08,579.212Z" style="fill:white;fill-rule:nonzero;"/>
    </g>
    <g transform="matrix(0.5,0,0,0.5,-61.6002,-243.04)">
        <path d="M1571.91,618.461C1598.69,621.266 1625.98,622.29 1652.8,625.245L1653.06,640.272C1628.7,640.765 1597.03,638.076 1571.99,636.881C1572.2,630.919 1571.99,624.473 1571.91,618.461Z" style="fill:white;fill-rule:nonzero;"/>
    </g>
    <g transform="matrix(0.5,0,0,0.5,-61.6002,-243.04)">
        <path d="M1559.1,619.434C1562.28,618.845 1561.1,618.662 1563.96,619.666C1565.75,624.482 1564.99,631.499 1564.93,637.04C1541.33,638.829 1516.57,641.144 1493.01,641.834C1490.6,641.83 1490.66,641.956 1488.46,641.042C1486.29,637.03 1487.13,630.446 1487.25,625.554L1559.1,619.434Z" style="fill:white;fill-rule:nonzero;"/>
    </g>
    <g transform="matrix(0.5,0,0,0.5,-61.6002,-243.04)">
        <path d="M1588.81,595.805C1598.23,596.4 1607.65,596.889 1617.08,597.272C1617,603.333 1617.04,609.395 1617.18,615.454C1607.72,614.922 1597.96,614.533 1588.58,613.415L1588.81,595.805Z" style="fill:white;fill-rule:nonzero;"/>
    </g>
    <g transform="matrix(0.5,0,0,0.5,-61.6002,-243.04)">
        <path d="M656.623,890.866L657.477,892.08C655.24,896.552 650.235,901.796 646.843,905.738C654.631,905.317 669.69,903.691 676.406,906.222L676.388,907.381C670.124,909.457 655.205,909.833 648.003,910.655C616.375,914.266 587.128,914.676 555.557,919.447C549.653,929.973 535.986,948.099 528.395,957.86C546.871,956.409 621.98,949.272 636.452,951.842L636.703,952.622C629.136,956.75 582.741,958.818 570.005,960.079C565.044,970.07 553.7,983.933 546.06,992.049L544.431,992.4L543.552,994.234L544.71,993.219L543.285,994.04C545.76,985.628 561.483,967.613 567.578,960.535C543.426,961.329 519.657,963.926 495.565,965.74C471.721,967.536 446.107,968.188 422.416,971.156C414.95,983.976 404.311,997.784 395.357,1009.88C448.477,1008.63 501.337,1004.5 554.477,1003.82C560.78,1003.74 573.824,1002.64 578.777,1006.17C573.89,1008.54 524.683,1009.33 515.272,1009.98C511.951,1017.04 497.59,1038.72 491.195,1042.03L491.268,1042.78L490.22,1043.05C493.828,1032.81 506.984,1018.35 514.469,1010.72C490.685,1009.46 461.789,1012.01 437.697,1013.68C430.907,1027.51 415.757,1046.59 405.887,1058.99L478.094,1058.97C491.707,1059 515.091,1058.49 527.457,1060.83L527.028,1061.27C512.885,1064.98 469.75,1064.09 453.169,1064.19C445.154,1076.11 423.687,1107.51 414.28,1116.07C418.954,1102.25 440.022,1075.9 449.907,1064.17C398.841,1063.92 347.776,1064.79 296.749,1066.79C292.315,1073.71 268.819,1107.01 263.455,1110.48C264.409,1101.52 287.991,1073.81 295.333,1066.94C270.654,1067.12 245.973,1066.94 221.3,1066.38C211.92,1080.11 196.786,1098.27 186.306,1111.76C225.5,1116.06 263.741,1113.28 303.07,1113.7C331.711,1114.1 360.312,1116.24 388.944,1116.43C398.88,1116.5 471.906,1113.28 476.419,1119C473.394,1122.35 447.094,1120.99 441.198,1121.03C424.082,1121.28 406.969,1121.68 389.86,1122.21C383.759,1133.24 356.773,1169.68 347.748,1177.93L348.514,1176.07C353.91,1162.72 377.073,1134.28 386.479,1122.08C361.096,1120.73 335.693,1119.81 310.279,1119.32C298.236,1133.11 282.065,1161.52 269.743,1172.82C275.286,1158.41 295.458,1132.12 305.733,1119.82C282.137,1120.23 256.298,1119.43 231.943,1119.73C225.318,1132.96 203.487,1160.53 194.095,1172.91C224.713,1174.44 253.754,1172.66 284.24,1173.17C308.75,1173.91 333.124,1176.65 357.633,1177.69C373.418,1178.35 389.173,1178.78 404.965,1179.03C407.313,1179.07 411.315,1180.44 412.811,1182.44C405.547,1186.65 333.705,1181.46 321.286,1180.84C318.496,1185 315.329,1189.36 312.431,1193.49C303.384,1207.08 281.856,1237.35 270.665,1248.41C277.212,1233.04 306.725,1194.37 317.773,1180.49C290.724,1177.55 259.009,1178.81 231.477,1179.15C228.311,1191.84 199.271,1230.13 188.948,1239.01C195.117,1222.94 219.983,1194.65 231.166,1179.64C205.578,1178.72 184.104,1177.94 158.61,1175.18C150.738,1187.5 122.123,1223.49 111.609,1232.44L112.551,1230.74C120.342,1216.44 144.084,1188.9 155.286,1174.95C144.895,1172.78 134.367,1171.33 123.777,1170.61C113.036,1169.87 71.428,1171 66.479,1167.84C73.262,1165.51 82.104,1166.43 89.218,1165.94C123.22,1163.61 156.369,1171.79 189.867,1172.79C202.275,1152.29 217.072,1137.47 229.352,1119.49C202.995,1118.27 179.161,1117 152.789,1114.2C146.576,1125.46 122.894,1155 113.581,1164.08C118.864,1151.16 139.686,1126.39 149.332,1114.32C139.615,1112.91 129.841,1111.91 120.038,1111.33C109.946,1110.81 72.5,1112.41 67.165,1109.49C79.745,1102.36 164.919,1110.68 184.818,1111.36C188.274,1100.11 209.626,1076.06 218.042,1066.17C203.921,1066.06 101.796,1063.79 95.741,1060.55C104.335,1056.81 164.138,1060.06 178.597,1060.54C181.874,1049.11 201.51,1028.12 209.787,1018.44C194.953,1017.62 180.103,1017.12 165.247,1016.93C159.468,1016.86 132.474,1018.15 129.976,1014.34C141.621,1011.61 169.525,1012.3 181.974,1012.59C202.876,1013.08 223.077,1013.95 244.109,1013.53C248.918,1005.67 268.286,982.08 274.425,975.741C265.346,975.951 152.553,976.383 151.091,974.597C160.693,970.8 223.065,970.993 236.556,970.925C244.234,958.162 257.057,943.128 267.042,932.047C248.064,932.276 229.088,932.623 210.115,933.086C206.307,938.439 189.866,959.233 184.961,961.757C185.113,955.582 200.827,938.886 205.367,933.908C195.342,933.279 136.402,934.007 133.676,932.836L133.351,931.283C135.237,929.434 137.344,928.843 139.965,928.827C156.624,928.722 173.417,928.979 190.063,928.878C223.3,928.566 256.53,927.696 289.738,926.267C292.311,921.254 293.023,919.725 297.423,916.425L298.744,916.666C298.03,920.103 294.712,923.02 292.239,925.75C311.255,926.38 342.485,925.199 361.726,924.031C367.659,916.954 372.312,911.066 379.322,904.957C375.353,913.136 371.952,917.053 366.294,924.076C386.857,923.811 411.001,923.272 431.325,921.462C437.812,914.149 443.259,906.932 450.546,900.284C446.413,909.164 443.855,913.538 437.244,920.704C458.887,920.539 480.505,919.197 502.002,916.685C508.231,909.309 514.034,902.262 520.876,895.413C517.107,903.681 512.765,909.331 507.501,916.677C528.529,915.768 549.535,914.406 570.504,912.594C576.621,908.46 579.196,902.285 586.603,897.385C584.306,902.446 581.072,906.6 577.869,911.159C595.395,910.955 623.609,909.013 641.203,906.707C646.322,901.079 650.862,895.857 656.623,890.866Z" style="fill:rgb(2,2,2);fill-rule:nonzero;"/>
    </g>
    <g transform="matrix(0.5,0,0,0.5,-61.6002,-243.04)">
        <path d="M432.442,1014.58L433.623,1014.65C433.462,1017.33 407.339,1050.54 403.39,1058.94C378.897,1058.99 354.407,1059.44 329.929,1060.28C329.087,1059.87 329.602,1060.19 328.61,1059.03C339.034,1046.63 350.514,1030.41 359.76,1017.03C372.972,1015.09 416.587,1014.96 432.442,1014.58Z" style="fill:white;fill-rule:nonzero;"/>
    </g>
    <g transform="matrix(0.5,0,0,0.5,-61.6002,-243.04)">
        <path d="M324.896,1017.56C336.138,1017.06 346.537,1017.09 357.765,1017.16C349.742,1025.48 329.276,1049.81 326.747,1060.71L282.841,1061.82L253.169,1061.76C263.001,1051.52 278.546,1030.75 286.373,1018.86C298.79,1017.64 312.349,1017.75 324.896,1017.56Z" style="fill:white;fill-rule:nonzero;"/>
    </g>
    <g transform="matrix(0.5,0,0,0.5,-61.6002,-243.04)">
        <path d="M212.49,1018.64C234.438,1017.99 260.853,1018.62 282.938,1018.98C274.078,1029.11 257.162,1050.41 250.349,1061.28C238.098,1063.05 195.161,1061.03 180.196,1060.61C189.959,1046.12 203.966,1033.05 212.49,1018.64Z" style="fill:white;fill-rule:nonzero;"/>
    </g>
    <g transform="matrix(0.5,0,0,0.5,-61.6002,-243.04)">
        <path d="M307.645,930.464C319.411,930.22 331.18,930.128 342.948,930.188C332.79,940.725 319.972,956.794 312.552,969.383C301.401,970.206 288.517,970.458 277.223,970.935C264.715,971.131 251.715,970.928 239.167,970.901C245.653,962.943 265.292,939.16 269.495,931.55C280.416,930.612 296.387,930.681 307.645,930.464Z" style="fill:white;fill-rule:nonzero;"/>
    </g>
    <g transform="matrix(0.5,0,0,0.5,-61.6002,-243.04)">
        <path d="M302.886,974.456C318.274,974.1 333.667,974.001 349.059,974.157C338.151,986.135 328.248,999.375 318.909,1012.61L294.22,1013.32C279.109,1014.4 263.716,1013.93 248.593,1013.34C257.209,1000.9 268.641,987.854 278.087,975.391C286.349,974.975 294.616,974.663 302.886,974.456Z" style="fill:white;fill-rule:nonzero;"/>
    </g>
    <g transform="matrix(0.5,0,0,0.5,-61.6002,-243.04)">
        <path d="M455.398,925.421C463.169,924.746 474.525,924.948 482.568,924.849C474.556,933.02 459.588,953.119 453.862,963.416C441.008,964.518 428.135,965.395 415.25,966.047C405.361,966.457 395.466,966.726 385.568,966.852C392.055,957.97 408.069,937.036 412.343,928.257C424.921,926.631 442.377,926.129 455.398,925.421Z" style="fill:white;fill-rule:nonzero;"/>
    </g>
    <g transform="matrix(0.5,0,0,0.5,-61.6002,-243.04)">
        <path d="M401.745,971.442C406.985,971.065 414.612,971.199 420.054,971.15C411.626,980.94 398.25,998.256 392.387,1010.06C377.743,1011.33 360.159,1011.51 345.25,1011.98L323.635,1012.31C331.691,1000.57 345.428,985.334 352.099,973.803C367.559,972.535 386.056,972.182 401.745,971.442Z" style="fill:white;fill-rule:nonzero;"/>
    </g>
    <g transform="matrix(0.5,0,0,0.5,-61.6002,-243.04)">
        <path d="M533.235,920.568C539.495,920.14 546.813,920.126 553.17,919.968C544.654,928.813 531.457,947.726 525.321,958.621C508.142,959.936 490.952,961.106 473.753,962.131L457.418,963.181C466.609,951.516 477.085,936.706 485.425,924.356C500.178,922.339 518.331,921.403 533.235,920.568Z" style="fill:white;fill-rule:nonzero;"/>
    </g>
    <g transform="matrix(0.5,0,0,0.5,-61.6002,-243.04)">
        <path d="M384.235,928.525L410.047,928.355C403,937.21 386.782,957.18 382.317,966.731C369.096,967.942 355.11,968.341 341.78,968.923L315.688,969.305C322.519,959.332 338.417,941.019 346.935,929.864C359.166,928.842 371.932,928.79 384.235,928.525Z" style="fill:white;fill-rule:nonzero;"/>
    </g>
    <g transform="matrix(0.5,0,0,0.5,-61.6002,-243.04)">
        <path d="M753.388,1087.42C758.931,1086.89 765.174,1087.07 770.794,1087.06C772.601,1121.33 770.994,1173.68 769.609,1207.86C748.994,1212.37 702.201,1216.35 679.877,1219.36C673.952,1220.24 668.529,1220.77 662.577,1221.33C660.824,1206.5 661.193,1178.54 661.447,1163.79C661.793,1141.19 662.329,1118.59 663.055,1095.99C683.301,1092.64 732.583,1088.64 753.388,1087.42Z" style="fill:rgb(2,2,2);fill-rule:nonzero;"/>
    </g>
    <g transform="matrix(0.5,0,0,0.5,-61.6002,-243.04)">
        <path d="M712.749,1154.4C715.864,1153.97 715.721,1153.84 718.715,1154.65C720.596,1159.28 719.754,1200.63 719.71,1208.68C706.627,1209.71 692.102,1212 678.975,1213.81C675.233,1214.48 672.277,1215.36 669.129,1213.89C668.093,1202.19 669.933,1173.89 669.834,1159.3L712.749,1154.4Z" style="fill:white;fill-rule:nonzero;"/>
    </g>
    <g transform="matrix(0.5,0,0,0.5,-61.6002,-243.04)">
        <path d="M703.507,1099.41C706.687,1098.96 716.052,1098.75 719.662,1098.58L719.628,1149.62L685.758,1153.38L669.252,1155.16C670.364,1139.05 669.428,1118.93 669.037,1102.43C680.192,1101.82 692.304,1100.48 703.507,1099.41Z" style="fill:white;fill-rule:nonzero;"/>
    </g>
    <g transform="matrix(0.5,0,0,0.5,-61.6002,-243.04)">
        <path d="M752.229,1150.59C756.124,1150.19 759.08,1149.44 762.665,1150.83C764.317,1160.48 762.376,1187.33 763.925,1201.23L764.104,1202.77L734.562,1206.34L722.895,1208.07L723.109,1153.64L752.229,1150.59Z" style="fill:white;fill-rule:nonzero;"/>
    </g>
    <g transform="matrix(0.5,0,0,0.5,-61.6002,-243.04)">
        <path d="M747.777,1096.42C752.166,1095.97 759.509,1095.86 764.114,1095.66C763.527,1111.97 763.135,1128.28 762.939,1144.6C755.504,1146.01 746.381,1146.9 738.754,1147.84L723.016,1149.27L723.024,1098.16C731.27,1097.51 739.521,1096.93 747.777,1096.42Z" style="fill:white;fill-rule:nonzero;"/>
    </g>
    <g transform="matrix(0.5,0,0,0.5,-61.6002,-243.04)">
        <path d="M558.718,724.421C564.779,730.872 574.603,745.496 580.38,753.474C606.447,754.486 633.948,755.921 659.914,756.096C656.607,751.763 643.884,736.426 643.703,732.108C649.746,738.037 657.991,749.193 663.455,756.151C689.13,756.338 714.802,756.779 740.468,757.475C734.882,750.365 729.388,743.184 723.987,735.932L724.157,735.029C729.59,737.983 739.312,752.163 742.923,757.835C770.614,757.608 799.417,759.163 827.162,760.271C820.845,752.381 814.4,744.695 808.094,736.735C816.586,742.504 823.591,751.838 829.397,760.218C845.079,759.96 860.33,760.802 875.973,760.909L878.841,762.958C869.108,763.795 859.542,763.554 849.776,763.235C809.032,761.904 768.325,762.119 727.579,760.57C720.223,760.29 712.594,760.229 705.246,760.36C713.439,771.497 722.921,783.855 730.539,795.225C756.173,794.869 781.676,796.029 806.535,795.645C803.748,792.156 785.202,769.286 785.191,766.612C791.802,772.525 804.709,788.461 809.978,795.94C818.011,796.015 871.685,796.331 876.15,799.131C866.014,802.29 805.781,798.783 791.053,799.209C728.153,801.024 663.864,796.932 601.07,797.432C608.485,810.387 618.162,823.035 624.774,835.725L702.903,836.117L701.882,834.346C698.797,829.074 683.762,809.735 683.544,805.996L683.45,806.877L682.961,805.271L683.567,806.671L684.744,806.977C693.229,817.012 699.311,824.434 705.23,836.133C728.743,836.55 763.067,837.966 785.96,836.703L788.742,836.884C803.593,838.264 826.089,837.867 841.837,838.214C846.927,838.166 848.106,838.066 852.986,839.1C848.788,841.847 833.052,841.038 827.852,840.879C798.679,841.912 762.488,838.844 735.2,840.965C741.941,850.361 749.438,860.143 754.722,870.364C745.436,861.065 740.054,852.194 733.253,840.949C724.145,840.606 660.636,838.574 656.027,841.272L654.848,841.649C654,840.697 652.636,839.876 651.403,840.024C641.313,841.236 580.376,836.569 575.034,840.322L574.129,840.614C567.808,833.508 527.566,841.788 514.221,835.694C521.584,832.378 607.584,835.19 621.671,835.279C612.756,822.181 606.304,811.015 598.573,797.292C588.077,797.077 479.136,794.414 477.115,792.519C487.285,788.916 546.961,791.712 560.135,792.185C551.844,779.958 543.744,767.603 535.84,755.123C523.759,754.419 453.947,754.899 447.362,751.694C460.065,750.443 480.35,751.546 494.844,750.87C491.232,746.518 488.871,743.615 485.687,738.825L486.091,737.358L486.47,737.613L484.569,736.473L484.96,736.219C490.076,740.335 493.693,745.758 497.71,751.027C524.557,751.161 550.687,752.927 577.025,753.046C569.922,743.342 563.47,735.45 558.718,724.421Z" style="fill:rgb(2,2,2);fill-rule:nonzero;"/>
    </g>
    <g transform="matrix(0.5,0,0,0.5,-61.6002,-243.04)">
        <path d="M841.837,838.214C846.927,838.166 848.106,838.066 852.986,839.1C848.788,841.847 833.052,841.038 827.852,840.879C832.83,839.905 837.869,840.739 841.837,838.214Z" style="fill:rgb(20,20,20);fill-rule:nonzero;"/>
    </g>
    <g transform="matrix(0.5,0,0,0.5,-61.6002,-243.04)">
        <path d="M539.084,755.577C594.262,756.83 648.399,759.757 703.92,760.036C707.536,768.325 720.74,786.448 726.492,795.201C710.225,795.12 694.673,795.037 678.439,794.233C667.432,793.895 655.574,794.022 644.493,793.963C641.359,787.476 629.228,769.724 624.072,765.047C623.985,771.604 638.466,786.306 642.62,793.812L564.551,792.391C556.196,781.508 546.67,767.171 539.084,755.577Z" style="fill:white;fill-rule:nonzero;"/>
    </g>
    <g transform="matrix(0.5,0,0,0.5,-61.6002,-243.04)">
        <path d="M1370.81,1040.39C1382.09,1039.27 1440.25,1028.68 1445.88,1031.77C1442.65,1035.39 1411.98,1039.13 1404.62,1040.37C1411.01,1046.66 1418.65,1053.58 1422.48,1061.75C1413.84,1054.1 1409.74,1049.26 1402.7,1040.02C1381.59,1042 1361.21,1046.15 1340.31,1049.51C1319.09,1052.92 1296.37,1054.23 1275.4,1057.43C1285.68,1067.62 1294.96,1077.06 1304.19,1088.23C1325.72,1084.95 1347.32,1082.12 1368.97,1079.74C1367.22,1075.19 1345.82,1055.76 1339.98,1048.26C1349.99,1054.87 1364.33,1068.59 1371.78,1078.1C1377.43,1079.31 1425.62,1071.29 1436.9,1071.55C1433.65,1074.81 1408.7,1077.14 1399.92,1079.57C1408.84,1089.52 1416.66,1092.13 1420.56,1096.46C1417.81,1097.81 1417.43,1097.21 1413.9,1096.99C1407.23,1093.31 1401.51,1085.64 1396.68,1079.7C1361.99,1083.63 1325.19,1089.39 1290.27,1093.81C1268.36,1096.59 1232.14,1099.06 1211.87,1103.31C1204.54,1102.64 1149.09,1108.32 1143.14,1111.07L1140.66,1111.54C1135.08,1110.42 1074.93,1117.4 1073.04,1119.66C1079.17,1126.06 1087.25,1134.22 1091.54,1142.01C1086.88,1138.44 1074.88,1125.8 1072.16,1120.63C1067.49,1116.17 1050.94,1120.29 1044.39,1120.68C1025.5,1121.81 994.849,1127.68 976.72,1124.52C984.359,1120.59 1003.16,1121.53 1013.1,1119.17C1002.29,1105.88 992.075,1094.61 982.035,1080.46C970.088,1081.35 938.098,1084.67 927.621,1081.31C930.693,1078.52 942.569,1078.79 946.849,1078.74C943.9,1068.83 929.755,1059.61 924.19,1043.65L924.73,1043.38C933.264,1054.71 941.737,1066.08 950.151,1077.5C953.675,1078.37 1016.92,1074.44 1023.59,1073.67L1024.45,1071.93C1025.16,1072.47 1025.87,1073.01 1026.57,1073.56C1047.03,1074.04 1085.3,1068.39 1103.95,1071.01C1094.3,1073.37 1068.92,1073.78 1065.26,1077.06C1075.79,1087.85 1085.99,1100.03 1095.9,1111.49C1104.9,1110.4 1160.23,1105.22 1163.25,1102.77C1161.06,1095.58 1142.78,1084.4 1140.53,1075.75L1141.4,1075.29C1148.16,1081.21 1162.18,1096.59 1167.2,1103.83C1187.4,1100.97 1214.13,1097.69 1234.36,1096.41C1225.99,1087.66 1213.14,1074.86 1206.9,1064.93C1178.5,1065.75 1130.97,1074.99 1104.59,1072.06C1122.29,1067.72 1141.48,1067.89 1159.56,1065.61C1219.04,1058.12 1278.83,1053.73 1338.26,1045.73C1348.4,1044.36 1358.56,1043.81 1368.57,1041.55L1363.3,1033.5L1363.55,1032.76L1370.81,1040.39Z" style="fill:rgb(2,2,2);fill-rule:nonzero;"/>
    </g>
    <g transform="matrix(0.5,0,0,0.5,-61.6002,-243.04)">
        <path d="M984.944,1080.32L985.911,1080.21C1004.48,1078.14 1043.2,1076.8 1063.42,1075.58C1064.03,1076.07 1064.65,1076.57 1065.26,1077.06C1069.52,1087.27 1085.45,1103.29 1093.36,1112.2C1068.23,1114.27 1042.72,1117.26 1017.61,1118.9C1015.36,1119.04 1014.7,1117.52 1013.46,1116.01C1004.25,1103.25 992.96,1091.97 984.944,1080.32Z" style="fill:white;fill-rule:nonzero;"/>
    </g>
    <g transform="matrix(0.5,0,0,0.5,-61.6002,-243.04)">
        <path d="M1265.64,1058.38L1274.52,1057.63C1280.94,1067.46 1293.26,1079.43 1301.58,1088.61C1283.04,1090.14 1264.54,1092.19 1246.12,1094.76C1243.57,1095.16 1240.99,1095.4 1238.42,1095.68C1235.37,1094.78 1212.17,1068.82 1208.55,1064.93L1265.64,1058.38Z" style="fill:white;fill-rule:nonzero;"/>
    </g>
    <g transform="matrix(0.5,0,0,0.5,-61.6002,-243.04)">
        <path d="M727.467,949.593C734.922,954.176 777.975,1007.29 787.402,1018.33C839.004,1078.25 889.725,1138.93 939.55,1200.34C947.943,1210.79 993.934,1265.2 995.056,1273.55L993.756,1274.09C985.031,1269.11 970.838,1248.29 964.005,1239.62C951.523,1223.99 938.834,1208.53 925.941,1193.23C861.783,1116.95 792.97,1032.74 726.459,959.384C687.584,999.237 647.681,1044.82 609.677,1086.02C578.911,1117.64 337.009,1385.39 330.128,1388.08L328.334,1387.27L328.075,1385.22C330.963,1377.46 357.901,1351.12 365.191,1343.22L434.676,1267.13L598.957,1086.93L679.166,999.824C688.68,989.438 717.354,956.781 727.467,949.593Z" style="fill:rgb(2,2,2);fill-rule:nonzero;"/>
    </g>
    <g transform="matrix(0.5,0,0,0.5,-61.6002,-243.04)">
        <path d="M808.36,1213.4C810.073,1213.19 814.406,1212.46 815.669,1213.27C821.959,1217.3 820.182,1236.23 817.628,1241.51C810.172,1246.68 657.768,1266.73 635.237,1269.74C630.635,1270.18 624.941,1270.25 624.203,1264.57C623.223,1257.03 621.404,1244.6 625.464,1238.06C630.89,1234.69 791.222,1215.09 808.36,1213.4Z" style="fill:rgb(2,2,2);fill-rule:nonzero;"/>
    </g>
    <g transform="matrix(0.5,0,0,0.5,-61.6002,-243.04)">
        <path d="M811.907,1218.56C813.012,1220.25 812.983,1233.63 813.077,1236.75L633.311,1262.9L632.718,1262.35C631.474,1258.83 631.805,1247 631.786,1242.55L741.666,1227.86C763.659,1224.76 790.403,1220.21 811.907,1218.56Z" style="fill:white;fill-rule:nonzero;"/>
    </g>
    <g transform="matrix(0.5,0,0,0.5,-61.6002,-243.04)">
        <path d="M730.611,920.553C738.695,923.053 782.973,978.22 791.442,988.438L900.189,1121.16L993.516,1234.76C1006.3,1250.62 1019.4,1267.14 1032.15,1283.09C1033.93,1285.32 1033.95,1286.63 1033.43,1288.85L1031.63,1289.26C1023.95,1285.76 973.15,1221.29 964.797,1211.17L823.33,1039.04C792.99,1002.22 763.201,964.7 730.75,929.602C717.558,938.624 686.3,973.392 674.013,986.5C603.444,1060.16 535.109,1137.05 464.841,1210.94C454.883,1221.41 360.729,1324.81 353.312,1328.26L352.379,1327.48C352.796,1323.39 410.781,1262.96 417.855,1255.38L632.018,1024.63L688.409,963.833C699.372,951.901 718.402,930.143 730.611,920.553Z" style="fill:rgb(2,2,2);fill-rule:nonzero;"/>
    </g>
    <g transform="matrix(0.5,0,0,0.5,-61.6002,-243.04)">
        <path d="M1422.83,708.93C1427.91,710.943 1433.22,717.372 1437.08,721.517C1450.52,722.496 1473.43,721.414 1484.91,724.282L1485.11,725.001C1475.39,725.963 1455.93,724.999 1445.36,724.687L1368.84,721.917C1376.08,731.131 1383.88,739.784 1391.31,749.29C1412.03,749.142 1432.12,749.776 1452.96,749.315C1445.46,742.095 1440.09,736.854 1433.6,728.763C1443.55,734.584 1448.17,741.207 1455.48,749.861C1463.09,749.864 1478.84,748.96 1484.75,751.646L1484.54,752.419C1473.53,752.114 1462.51,752.062 1451.5,752.263C1436.09,752.715 1311.58,752.619 1308.65,749.382C1312.76,747.563 1316.71,747.983 1321.3,747.933C1314.15,737.511 1305.02,729.608 1298.81,719.079C1288.96,717.809 1276.13,718.759 1266.81,716.184C1272.21,712.278 1356.97,718.612 1369.06,719.158C1390.65,720.11 1412.25,720.849 1433.85,721.373C1429.77,717.044 1426.53,713.602 1422.83,708.93Z" style="fill:rgb(2,2,2);fill-rule:nonzero;"/>
    </g>
    <g transform="matrix(0.5,0,0,0.5,-61.6002,-243.04)">
        <path d="M1301.95,719.324C1320.42,719.123 1348.23,719.791 1366.47,721.118C1370.55,727.463 1387.05,746.098 1387.48,748.918C1366.4,749.42 1344.37,748.484 1323.07,748.47C1316.88,737.291 1306.89,728.976 1301.95,719.324Z" style="fill:white;fill-rule:nonzero;"/>
    </g>
    <g transform="matrix(0.5,0,0,0.5,-61.6002,-243.04)">
        <path d="M478.638,682.713C483.886,685.947 498.873,709.039 502.737,714.874C527.699,715.784 552.648,717.033 577.577,718.621C573.266,711.112 562.166,699.131 559.385,691.075C565.998,696.907 575.139,711.085 580.407,718.869C604.412,718.908 630.88,720.859 655.324,721.465C649.297,713.535 641.572,704.26 637.846,695.232C641.499,696.588 655.609,717.352 658.771,721.789C683.844,722.081 707.429,723.627 732.302,724.368C725.384,713.968 717.2,706.15 710.531,694.573C719.307,700.851 728.883,715.267 735.281,724.223C758.384,724.861 781.48,725.722 804.567,726.807C797.629,718.863 793.163,713.61 787.034,704.868L786.959,703.482L785.401,702.204L785.816,702.119C792.711,708.08 801.205,718.991 807.236,726.163C830.904,726.886 854.285,728.251 877.92,729.253L878.664,727.652C873.536,720.324 867.18,715.138 862.183,708.127L862.88,707.066C868.813,711.009 877.872,723.374 882.491,729.353C894.409,729.95 917.2,728.385 926.254,732.189L925.7,733.007C889.521,734.1 837.125,730.876 799.993,729.394L632.998,723.617C577.609,721.838 522.245,719.373 466.917,716.222C450.418,715.315 426.466,715.523 410.983,713.818L410.212,712.597C415.275,709.959 488.917,714.048 499.393,714.834C493.466,704.034 483.964,695.624 478.638,682.713Z" style="fill:rgb(2,2,2);fill-rule:nonzero;"/>
    </g>
    <g transform="matrix(0.5,0,0,0.5,-61.6002,-243.04)">
        <path d="M58.311,1234.41C66.989,1232.11 79.071,1234.78 88.036,1234.49C155.288,1232.36 221.294,1240.26 287.813,1248.9C298.23,1250.26 335.617,1249.14 341.683,1253.81C329.091,1259.13 262.701,1251.05 247.239,1248.82C239.921,1257.34 229.53,1273.08 221.914,1283.05C218.139,1288.78 216.402,1292.04 210.794,1296.04L210.42,1295.29C219.397,1278.66 230.74,1263.57 242.578,1248.91C222.529,1245.49 184.256,1242.03 163.499,1240.82C158.048,1248.22 131.233,1284.97 126.027,1288.84C126.475,1279.81 152.522,1248.48 159.621,1240.29C143.397,1239.3 65.377,1241.02 58.311,1234.41Z" style="fill:rgb(2,2,2);fill-rule:nonzero;"/>
    </g>
    <g transform="matrix(0.5,0,0,0.5,-61.6002,-243.04)">
        <path d="M434.854,672.926C431.275,668.748 429.118,666.234 426.046,661.548L426.339,659.914L424.939,658.945L425.146,659.852L426.131,659.601L424.933,659.282L425.422,658.832C430.523,662.323 434.376,667.953 438.253,672.873C467.345,673.638 496.488,677.155 525.802,678.028C520.333,670.986 516.511,666.408 512.382,658.539C520.2,664.743 523.688,670.056 529.515,678.034C545.297,680.134 585.462,681.713 601.991,681.884C598.592,677.931 596.663,675.652 593.717,671.273L594.161,669.96L593.237,670.426L592.666,668.892L592.859,668.874L592.978,668.715C598.03,672.181 601.133,676.848 604.965,681.703C621.751,683.083 639.049,683.925 655.943,685.144L656.03,687.031C633.625,687.319 616.832,685.95 594.545,685.038C546.867,683.04 499.219,680.376 451.615,677.045C440.479,676.376 429.365,675.675 418.22,675.176C404.772,674.574 390.024,675.374 376.92,672.085L377.358,671.47C394.243,670.605 417.337,672.278 434.854,672.926Z" style="fill:rgb(2,2,2);fill-rule:nonzero;"/>
    </g>
    <g transform="matrix(0.5,0,0,0.5,-61.6002,-243.04)">
        <path d="M836.841,697.141C834.39,694.083 831.993,690.839 829.616,687.71L830.217,686.835L828.441,685.627L829.904,687.989L828.372,685.646L828.959,685.606C832.804,688.654 835.84,691.294 839.467,694.552C873.417,697.316 910.666,698.783 944.815,700.344C940.893,696.545 938.174,693.882 934.612,689.638L934.596,687.701L933.582,688.182L933.047,687.285L933.46,686.631C939.624,690.52 944.123,695.637 949.217,700.853C973.536,701.38 999.985,702.725 1024.28,704.104C1022.09,701.418 1018.7,697.83 1017.7,694.686C1021.64,697.016 1024.56,700.785 1027.68,704.238C1044.05,706.075 1059.82,704.111 1077.43,707.071L1087.83,707.154L1087.15,708.843C1076.54,708.485 1064.82,710.34 1054.45,708.148C1039.89,708.195 1026.68,706.846 1012.2,706.212C983.391,705.164 954.596,703.885 925.812,702.374C901.022,701.14 859.779,700.855 836.841,697.141Z" style="fill:rgb(2,2,2);fill-rule:nonzero;"/>
    </g>
    <g transform="matrix(0.5,0,0,0.5,-61.6002,-243.04)">
        <path d="M1077.43,707.071L1087.83,707.154L1087.15,708.843C1076.54,708.485 1064.82,710.34 1054.45,708.148C1063.12,708.019 1068.85,708.882 1077.43,707.071Z" style="fill:rgb(166,166,170);fill-rule:nonzero;"/>
    </g>
    <g transform="matrix(0.5,0,0,0.5,-61.6002,-243.04)">
        <path d="M1805.37,895.48C1806.22,895.772 1808.24,896.456 1808.79,897.226C1821.66,915.24 1834.48,938.183 1846.29,956.583C1861.53,980.328 1875.46,1001.61 1889.65,1025.68C1892.02,1029.69 1891.85,1029.51 1891.67,1033.56C1887.08,1031.61 1876.67,1013.11 1873.17,1007.89C1854.62,980.615 1836.75,952.884 1819.59,924.718C1815.58,918.045 1804.42,902.208 1805.37,895.48Z" style="fill:rgb(2,2,2);fill-rule:nonzero;"/>
    </g>
    <g transform="matrix(0.5,0,0,0.5,-61.6002,-243.04)">
        <path d="M718.907,1065.41C730.051,1064.37 776.012,1063.05 783.146,1068.83C780.819,1070.47 717.609,1071.2 705.978,1072.29C696.017,1073.43 655.516,1080.74 649.046,1078.73C655.178,1070.68 706.96,1066.33 718.907,1065.41Z" style="fill:rgb(2,2,2);fill-rule:nonzero;"/>
    </g>
    <g transform="matrix(0.5,0,0,0.5,-61.6002,-243.04)">
        <path d="M786.18,1076.64C786.418,1076.83 786.686,1076.99 786.893,1077.22C792.737,1083.56 789.69,1197.5 788.546,1211.87C786.716,1211.59 787.665,1211.93 785.828,1210.55C783.283,1199.82 784.162,1088.87 786.18,1076.64Z" style="fill:rgb(2,2,2);fill-rule:nonzero;"/>
    </g>
    <g transform="matrix(0.5,0,0,0.5,-61.6002,-243.04)">
        <path d="M1393.57,1166.37C1396.32,1165.92 1397.45,1165.75 1399.38,1167.5C1393.3,1172.35 1360.73,1174.24 1351.18,1175.87L1246.85,1194.05C1242.58,1194.67 1240.69,1195.4 1236.86,1193.88L1236.88,1192.57C1245.32,1188.39 1261.6,1187.15 1271.41,1185.49C1312.05,1178.61 1352.73,1171.96 1393.57,1166.37Z" style="fill:rgb(2,2,2);fill-rule:nonzero;"/>
    </g>
    <g transform="matrix(0.5,0,0,0.5,-61.6002,-243.04)">
        <path d="M1187.54,1198.4C1189.27,1198.24 1188.31,1198.11 1190.29,1199.42L1190.15,1201.02C1183.58,1204.79 1078.69,1220.02 1063.48,1221.55C1062.64,1221.54 1062.2,1221.02 1061.25,1220.43L1061.55,1218.67C1065.84,1215.27 1173.91,1200.13 1187.54,1198.4Z" style="fill:rgb(2,2,2);fill-rule:nonzero;"/>
    </g>
    <g transform="matrix(0.5,0,0,0.5,-61.6002,-243.04)">
        <path d="M649.14,1084.69C654.035,1091.61 651.235,1210.39 649.404,1226.55L648.048,1225.36C644.905,1215.36 645.764,1096.06 649.14,1084.69Z" style="fill:rgb(2,2,2);fill-rule:nonzero;"/>
    </g>
    <g transform="matrix(0.5,0,0,0.5,-61.6002,-243.04)">
        <path d="M1361.18,755.659C1366.43,758.709 1380.83,777.718 1384.05,784.042L1446.32,783.707C1442.17,778.416 1430.38,766.578 1428.3,760.68C1435.63,767.662 1442.35,775.254 1448.4,783.374C1458.28,783.71 1471.15,783.274 1481.25,783.186C1484.87,783.034 1484.77,782.929 1488.42,784.099L1488.44,785.153C1480.53,788.047 1465.23,786.416 1456.3,786.495L1397.25,786.905C1387.68,786.892 1361.48,787.693 1354.1,786.425L1354.15,785.696C1361.42,784.224 1374.89,784.373 1382.73,784.214C1375.41,772.88 1366.58,766.949 1361.18,755.659Z" style="fill:rgb(2,2,2);fill-rule:nonzero;"/>
    </g>
    <g transform="matrix(0.5,0,0,0.5,-61.6002,-243.04)">
        <path d="M1366.52,893.726C1372.2,896.875 1381.1,909.64 1385.27,915.315C1397.13,914.573 1458.63,908.823 1465.26,910.95C1460.78,914.351 1424.96,915.888 1415.33,917.059L1427.05,929.293C1433.91,936.219 1437.7,941.296 1442.95,949.37C1432.95,942.118 1421.12,927.067 1414.19,916.88C1404.42,917.381 1365.68,921.533 1359.09,919.529L1359.61,918.51C1364.52,916.577 1377.08,916.226 1383,915.83C1377.41,908.517 1369.97,902.469 1366.52,893.726Z" style="fill:rgb(2,2,2);fill-rule:nonzero;"/>
    </g>
    <g transform="matrix(0.5,0,0,0.5,-61.6002,-243.04)">
        <path d="M680.82,685.535C676.899,680.878 674.538,678.57 672.303,672.79L673.105,672.581C678.981,677.65 681.169,682.03 686.188,686.291C706.422,687.809 735.743,690.25 755.569,690.203C751.654,685.431 748.56,681.923 745.51,676.532C751.499,680.57 754.44,685.072 759.559,690.023C777.346,691.464 793.877,691.589 811.76,693.632L811.627,694.155C794.114,696.367 764.346,693.547 745.567,692.547C722.127,691.299 691.462,691.185 668.737,687.674C672.624,687.545 678.425,687.944 680.82,685.535Z" style="fill:rgb(2,2,2);fill-rule:nonzero;"/>
    </g>
    <g transform="matrix(0.5,0,0,0.5,-61.6002,-243.04)">
        <path d="M828.232,875.584C838.774,874.485 900.803,874.597 910.379,876.165C905.991,877.756 841.328,879.278 836,878.306C814.725,877.689 793.459,878.8 772.187,878.955C766.323,878.998 760.357,879.224 754.568,878.2C761.973,874.642 815.377,876.026 828.232,875.584Z" style="fill:rgb(20,20,20);fill-rule:nonzero;"/>
    </g>
    <g transform="matrix(0.5,0,0,0.5,-61.6002,-243.04)">
        <path d="M1464.66,877.435C1468.5,877.191 1468.65,876.976 1472.43,878.194L1472.96,879.309C1469.58,880.415 1431.48,882.796 1425.85,883.207C1429.95,888.565 1442.91,900.429 1444.57,905.286C1435.65,897.77 1430.71,892.888 1423.89,883.512L1409.75,884.199C1396.11,885.893 1368.95,886.511 1355.42,885.846C1368.02,882.199 1401.64,882.186 1416.76,881.038C1432.04,879.877 1449.35,878.444 1464.66,877.435Z" style="fill:rgb(2,2,2);fill-rule:nonzero;"/>
    </g>
    <g transform="matrix(0.5,0,0,0.5,-61.6002,-243.04)">
        <path d="M1595.87,1161.18L1598.19,1162.22C1598.54,1162.9 1599.07,1163.8 1599.09,1164.48C1599.52,1177.64 1602.58,1208.85 1596.34,1219.27C1587.87,1212.13 1592.77,1171.6 1595.87,1161.18Z" style="fill:rgb(2,2,2);fill-rule:nonzero;"/>
    </g>
    <g transform="matrix(0.5,0,0,0.5,-61.6002,-243.04)">
        <path d="M1452.65,848.419C1457.36,847.763 1474.2,847.107 1478.46,849.353C1461.57,851.453 1442.04,851.986 1424.67,853.39C1428.82,859.55 1432.87,865.777 1436.82,872.067C1429.11,864.347 1428.24,859.114 1422.96,853.379L1417.75,853.432C1407.72,854.019 1373.18,856.433 1365.2,854.479C1371,851.319 1439.48,849.573 1452.65,848.419Z" style="fill:rgb(2,2,2);fill-rule:nonzero;"/>
    </g>
    <g transform="matrix(0.5,0,0,0.5,-61.6002,-243.04)">
        <path d="M1495.59,1167.09C1502.92,1165.87 1552.82,1171.32 1563.22,1173.47C1564.54,1173.75 1564.4,1175.03 1564.76,1176.68C1554.53,1177.48 1509.29,1173.47 1497.67,1170.71C1496.23,1170.37 1496.21,1168.9 1495.59,1167.09Z" style="fill:rgb(2,2,2);fill-rule:nonzero;"/>
    </g>
    <g transform="matrix(0.5,0,0,0.5,-61.6002,-243.04)">
        <path d="M1451.13,817.5C1458.45,817.04 1478.47,816.066 1484.63,818.072C1481.54,819.737 1441.16,820.786 1434.46,821.054C1428.03,821.084 1403.6,823.073 1400.57,820.343C1402.93,818.647 1444.61,817.752 1451.13,817.5Z" style="fill:rgb(2,2,2);fill-rule:nonzero;"/>
    </g>
    <g transform="matrix(0.5,0,0,0.5,-61.6002,-243.04)">
        <path d="M369.848,1068.71L370.627,1069.46C370.232,1074.63 347.337,1104.41 342.986,1110.34C341.682,1109.11 342.194,1109.94 342.019,1107.57C345.966,1099.04 363.18,1075.65 369.848,1068.71Z" style="fill:rgb(2,2,2);fill-rule:nonzero;"/>
    </g>
    <g transform="matrix(0.5,0,0,0.5,-61.6002,-243.04)">
        <path d="M143.904,1068.78L144.621,1069.49C144.042,1075.17 125.29,1095.3 120.154,1101.19C119.816,1100.85 119.294,1099.56 119.053,1099.04C121.01,1092.83 138.683,1074.2 143.904,1068.78Z" style="fill:rgb(2,2,2);fill-rule:nonzero;"/>
    </g>
    <g transform="matrix(0.5,0,0,0.5,-61.6002,-243.04)">
        <path d="M495.233,970.715L495.761,972.344C494.088,978.276 477.441,997.319 472.526,1004.45L471.801,1005.52L471.267,1002.99C474.114,994.964 488.902,977.185 495.233,970.715Z" style="fill:rgb(2,2,2);fill-rule:nonzero;"/>
    </g>
    <g transform="matrix(0.5,0,0,0.5,-61.6002,-243.04)">
        <path d="M620.726,916.792L621.425,917.497C620.95,921.637 606.411,939.291 602.991,943.701L601.867,942.51C602.79,936.603 616.141,921.314 620.726,916.792Z" style="fill:rgb(2,2,2);fill-rule:nonzero;"/>
    </g>
    <g transform="matrix(0.5,0,0,0.5,-61.6002,-243.04)">
        <path d="M914.931,949.613C905.381,934.456 899.394,932.992 890.578,913.818C897.52,923.331 911.095,938.353 916.226,948.296L914.931,949.613Z" style="fill:rgb(20,20,20);fill-rule:nonzero;"/>
    </g>
    <g transform="matrix(0.5,0,0,0.5,-61.6002,-243.04)">
        <path d="M761.397,801.067C771.015,810.484 780.897,825.567 788.742,836.884L785.96,836.703C778.366,826.222 767.521,812.115 761.397,801.067Z" style="fill:rgb(20,20,20);fill-rule:nonzero;"/>
    </g>
    <g transform="matrix(0.5,0,0,0.5,-61.6002,-243.04)">
        <path d="M1575.94,1130.59C1580.89,1135.37 1578.46,1148.93 1577.47,1155.47C1573.35,1149.95 1572.46,1136.48 1575.94,1130.59Z" style="fill:rgb(2,2,2);fill-rule:nonzero;"/>
    </g>
    <g transform="matrix(0.5,0,0,0.5,-61.6002,-243.04)">
        <path d="M1023.59,1073.67C1021.64,1070.04 1004.75,1047.99 1000.56,1041.89C1000.42,1039.58 1000.79,1040.66 998.854,1038.82L999.88,1040.58L1000.84,1040.55C1008.75,1049.34 1018.62,1061.92 1024.45,1071.93L1023.59,1073.67Z" style="fill:rgb(20,20,20);fill-rule:nonzero;"/>
    </g>
    <g transform="matrix(0.5,0,0,0.5,-61.6002,-243.04)">
        <path d="M994.815,1132.82C1000.53,1135.2 1012.18,1150.82 1015.44,1156.38C1009.2,1154.2 997.184,1139.23 994.815,1132.82Z" style="fill:rgb(2,2,2);fill-rule:nonzero;"/>
    </g>
    <g transform="matrix(0.5,0,0,0.5,-61.6002,-243.04)">
        <path d="M1821.34,825.398C1823.29,826.457 1822.58,825.914 1823.84,827.977C1824.67,834.538 1823.44,838.681 1820.66,844.638C1819.11,843.731 1819.6,843.99 1818.42,842.459C1817.84,835.78 1819.08,831.691 1821.34,825.398Z" style="fill:rgb(2,2,2);fill-rule:nonzero;"/>
    </g>
    <g transform="matrix(0.5,0,0,0.5,-61.6002,-243.04)">
        <path d="M575.034,840.322C579.931,846.181 588.041,858.376 590.787,865.55C585.936,862.535 576.428,846.225 574.129,840.614L575.034,840.322Z" style="fill:rgb(20,20,20);fill-rule:nonzero;"/>
    </g>
    <g transform="matrix(0.5,0,0,0.5,-61.6002,-243.04)">
        <path d="M1279.8,1096.04C1286.54,1098.9 1298.29,1111.22 1302.43,1117.26C1296.56,1115.95 1282.84,1101.12 1279.8,1096.04Z" style="fill:rgb(2,2,2);fill-rule:nonzero;"/>
    </g>
    <g transform="matrix(0.5,0,0,0.5,-61.6002,-243.04)">
        <path d="M1211.87,1103.31C1219.04,1108.32 1229.3,1117.56 1232.53,1125.73C1226.65,1122.06 1215.42,1109.33 1211.87,1103.31Z" style="fill:rgb(2,2,2);fill-rule:nonzero;"/>
    </g>
    <g transform="matrix(0.5,0,0,0.5,-61.6002,-243.04)">
        <path d="M656.027,841.272C660.407,847.658 669.786,860.003 671.123,866.988L670.329,867.186C665.772,858.823 659.137,851.947 654.848,841.649L656.027,841.272Z" style="fill:rgb(20,20,20);fill-rule:nonzero;"/>
    </g>
    <g transform="matrix(0.5,0,0,0.5,-61.6002,-243.04)">
        <path d="M1420.34,795.648C1425.84,797.656 1437.53,811.519 1439.97,816.87C1435.17,815.048 1423.39,800.419 1420.34,795.648Z" style="fill:rgb(2,2,2);fill-rule:nonzero;"/>
    </g>
    <g transform="matrix(0.5,0,0,0.5,-61.6002,-243.04)">
        <path d="M191.844,989.806C192.359,995.234 181.843,1006.18 178.319,1010.23L178.196,1007.59C182.002,1000.17 186.148,995.749 191.844,989.806Z" style="fill:rgb(2,2,2);fill-rule:nonzero;"/>
    </g>
    <g transform="matrix(0.5,0,0,0.5,-61.6002,-243.04)">
        <path d="M1140.66,1111.54L1143.14,1111.07C1145.52,1113.87 1158.04,1128.13 1158.25,1130.96C1150.87,1124.36 1146.67,1119.36 1140.66,1111.54Z" style="fill:rgb(20,20,20);fill-rule:nonzero;"/>
    </g>
    <g transform="matrix(0.5,0,0,0.5,-61.6002,-243.04)">
        <path d="M813.213,845.657C817.016,848.015 829.688,865.026 831.863,869.254C824.893,865.57 816.843,852.614 813.213,845.657Z" style="fill:rgb(20,20,20);fill-rule:nonzero;"/>
    </g>
    <g transform="matrix(0.5,0,0,0.5,-61.6002,-243.04)">
        <path d="M1691.62,910.759C1692.07,916.675 1685.5,924.486 1681.88,929.885L1681.35,927.412C1683.15,920.858 1687.43,915.968 1691.62,910.759Z" style="fill:rgb(2,2,2);fill-rule:nonzero;"/>
    </g>
    <g transform="matrix(0.5,0,0,0.5,-61.6002,-243.04)">
        <path d="M1719.54,878.731C1720.11,884.968 1714.03,891.716 1710.21,897.145C1709.7,891.361 1716.16,883.393 1719.54,878.731Z" style="fill:rgb(20,20,20);fill-rule:nonzero;"/>
    </g>
    <g transform="matrix(0.5,0,0,0.5,-61.6002,-243.04)">
        <path d="M1672.76,883.837C1673.49,884.604 1673.04,884.02 1673.5,885.927C1671.34,891.409 1667.57,895.956 1664.05,900.695C1663.27,900.235 1663.77,900.617 1663.13,899.061C1665.76,893.399 1669.18,888.953 1672.76,883.837Z" style="fill:rgb(20,20,20);fill-rule:nonzero;"/>
    </g>
    <g transform="matrix(0.5,0,0,0.5,-61.6002,-243.04)">
        <path d="M680.82,685.535C678.425,687.944 672.624,687.545 668.737,687.674C667.797,687.726 658.485,687.045 656.03,687.031L655.943,685.144C662.849,686.108 673.979,686.566 680.82,685.535Z" style="fill:rgb(86,85,90);fill-rule:nonzero;"/>
    </g>
    <g transform="matrix(0.5,0,0,0.5,-61.6002,-243.04)">
        <path d="M894.861,760.049L893.963,761.69C888.882,762.714 884.07,763.451 878.841,762.958L875.973,760.909C882.089,760.95 889.421,761.921 894.861,760.049Z" style="fill:rgb(217,217,219);fill-rule:nonzero;"/>
    </g>
    <g transform="matrix(0.5,0,0,0.5,-61.6002,-243.04)">
        <path d="M894.861,760.049C898.422,759.441 901.802,759.667 904.688,761.989L904.335,762.969C899.959,763.354 898.301,763.044 893.963,761.69L894.861,760.049Z" style="fill:rgb(20,20,20);fill-rule:nonzero;"/>
    </g>
    <g transform="matrix(0.5,0,0,0.5,-61.6002,-243.04)">
        <path d="M219.587,918.057L219.762,919.18C218.411,922.311 216.749,922.829 213.698,925.117L213.326,923.584C215.043,920.147 215.797,920.535 219.587,918.057Z" style="fill:rgb(217,217,219);fill-rule:nonzero;"/>
    </g>
</svg>
