<svg version="1.1" xmlns="http://www.w3.org/2000/svg" style="display: block;" viewBox="0 0 2048 2048" width="1024" height="1024" preserveAspectRatio="none">
<path transform="translate(0,0)" fill="rgb(255,255,255)" d="M 0 0 L 2048 0 L 2048 2048 L 0 2048 L 0 0 z"/>
<path transform="translate(0,0)" fill="rgb(2,2,2)" d="M 1098.7 707.031 C 1096.44 704.382 1093.1 701.076 1092.14 697.896 C 1096.09 700.079 1099.2 704.012 1102.34 707.409 C 1119.68 708.12 1154.64 707.573 1169.96 710.897 C 1174.63 711.738 1179.3 712.613 1183.96 713.522 C 1180.91 710.751 1176.43 706.945 1173.8 703.986 L 1174.1 702.781 L 1172.79 702.703 L 1172.86 701.854 L 1172.85 702.547 L 1174.03 702.498 L 1173.5 703.32 L 1175.16 703.263 C 1179.43 706.623 1182.6 709.353 1186.6 712.975 C 1207.66 713.223 1228.73 712.752 1249.76 711.563 C 1259.2 717.842 1286.99 743.079 1297.35 751.761 L 1348.77 794.919 C 1361.54 805.585 1374.61 816.218 1386.49 827.903 C 1389.08 830.453 1390.8 832.173 1391.3 835.987 C 1392.81 847.524 1382.05 847.396 1373.58 847.778 C 1367.84 848.036 1362.54 848.114 1356.75 848.896 C 1356.47 885.006 1356.49 921.117 1356.78 957.227 C 1361.25 956.829 1367.49 956.462 1371.77 955.697 C 1368.62 950.401 1364.4 944.815 1360.83 938.79 C 1365.84 943.561 1370.24 947.741 1373.07 954.149 C 1381.92 957.341 1447.07 945.756 1469.05 948.592 C 1453.28 954.14 1414.26 953.551 1407.12 958.322 C 1414.14 965.058 1431.19 982.804 1436.23 990.319 C 1440.47 989.937 1448.67 988.742 1452.37 989.831 L 1453.11 991.356 C 1448.13 996.141 1406.88 995.511 1401.83 999.644 C 1408.86 1008.47 1420.1 1018.97 1428.26 1028.71 C 1419.6 1024.6 1404.86 1008.38 1401.18 999.704 C 1393.8 996.836 1368.35 1003.07 1357.07 1001.31 C 1357.06 1008.39 1358.06 1027.18 1356.21 1034.67 C 1355.31 1038.32 1346.71 1039.09 1342.07 1039.62 C 1322.01 1041.9 1301.7 1043.81 1281.54 1046.01 C 1245.38 1050.15 1209.18 1053.99 1172.96 1057.53 C 1156.29 1059.18 1138.62 1062.01 1121.92 1061.98 C 1115.92 1061.97 1109.67 1060.83 1104.14 1058.46 C 1094.21 1054.2 1008.6 972.397 996.264 959.305 C 980.295 942.353 966.674 923.567 951.988 905.542 C 942.451 893.836 916.939 867.33 912.176 855.073 C 897.898 855.317 883.617 855.261 869.342 854.905 C 866.39 846.906 864.316 839.059 861.035 830.471 C 870.315 818.158 883.944 803.256 894.189 791.364 L 947.478 728.807 C 966.81 724.695 1010.82 723.846 1032.11 722.349 C 1063.92 720.113 1096.92 718.665 1128.78 716.605 C 1135.74 716.155 1165.29 714.799 1169.12 713.115 C 1160.83 710.531 1119.07 711.193 1108.12 710.515 C 1102.1 710.142 1093.49 709.411 1087.15 708.843 L 1087.83 707.154 L 1098.7 707.031 z"/>
<path transform="translate(0,0)" fill="rgb(255,255,255)" d="M 1357.01 959.403 C 1366.85 960.037 1403.46 956.272 1407.12 958.322 C 1410.76 968.483 1426.13 981.631 1434.2 990.558 C 1413.88 993.76 1393.54 994.143 1373.5 997.414 C 1366.92 996.715 1363.72 998.376 1357 1000.01 L 1357.01 959.403 z"/>
<path transform="translate(0,0)" fill="rgb(255,255,255)" d="M 1247.11 756.937 C 1251.21 759.295 1268.61 773.998 1273.26 777.925 C 1300.76 801.105 1326.42 820.602 1350.14 847.691 C 1349.4 905.792 1349.32 971.972 1350.27 1029.9 C 1306.19 1033.48 1258.16 1040.37 1213.24 1044.85 C 1182.8 1048.04 1150.66 1050.91 1120.49 1055.14 C 1118.97 1033.61 1120.54 1007.25 1120.65 985.229 L 1120.76 859.286 C 1130.8 856.322 1159.61 830.363 1169.01 822.515 C 1195.19 800.827 1221.22 778.967 1247.11 756.937 z"/>
<path transform="translate(0,0)" fill="rgb(2,2,2)" d="M 1231.2 842.428 C 1250.65 841.795 1286.98 842.631 1307.48 843.965 C 1308.3 844.019 1309.88 845.519 1309.98 846.488 C 1312.35 868.147 1315.05 991.819 1310.17 1005.22 C 1305.47 1009.18 1252.75 1012.46 1243.04 1013.32 C 1221.38 1016.18 1198.48 1017.19 1176.65 1018.89 C 1168.97 1020.44 1168.17 1009.77 1168.06 1003.71 C 1167.81 990.833 1168.05 977.129 1167.87 964.05 C 1167.28 938.036 1167.47 912.01 1168.46 886.007 C 1168.79 874.222 1168.83 859.169 1170.16 847.657 C 1185.7 844.354 1214.97 843.209 1231.2 842.428 z"/>
<path transform="translate(0,0)" fill="rgb(255,255,255)" d="M 1222.33 849.5 C 1231.52 848.524 1247.2 848.96 1256.83 849.039 C 1273.49 849.243 1290.16 849.215 1306.82 848.955 L 1305.04 1000.24 C 1287.86 1001.08 1269.07 1003.06 1251.91 1004.77 C 1226.51 1006.49 1200.92 1009.44 1175.31 1011.12 C 1172.64 958.452 1173.62 905.245 1172.99 852.204 C 1187.88 852.064 1207.14 850.403 1222.33 849.5 z"/>
<path transform="translate(0,0)" fill="rgb(2,2,2)" d="M 1208.47 865.44 C 1218.56 864.976 1227.58 864.961 1237.63 865.04 C 1238.72 878.002 1238.12 902.086 1238.11 915.597 C 1238.09 941.692 1238.18 969.679 1236.58 995.63 C 1229.89 996.966 1218.85 997.675 1211.75 998.34 C 1204.26 998.998 1190.48 1000.88 1184.06 998.459 C 1179.31 990.46 1180.92 881.162 1182.76 866.32 L 1208.47 865.44 z"/>
<path transform="translate(0,0)" fill="rgb(255,255,255)" d="M 1213.62 935.424 C 1218.48 934.972 1226.06 935.06 1231.15 934.98 C 1231.23 954.181 1231.1 973.713 1231.97 992.867 C 1223.57 992.891 1216.64 993.212 1208.25 993.791 L 1186.9 995.099 C 1188.44 979.781 1187.8 953.101 1187.91 937.144 C 1196.26 936.329 1205.2 935.939 1213.62 935.424 z"/>
<path transform="translate(0,0)" fill="rgb(255,255,255)" d="M 1229.93 881.073 C 1231.92 883.229 1231.05 923.679 1231.03 929.85 L 1189.04 931.521 C 1187.04 928.852 1188.59 915.745 1188.87 911.71 C 1206.88 897.046 1209.41 892.903 1229.93 881.073 z"/>
<path transform="translate(0,0)" fill="rgb(255,255,255)" d="M 1228.68 870.617 C 1231.17 872.719 1230.23 871.405 1231.1 875.004 C 1229.42 878.668 1219.96 882.863 1215.96 885.513 C 1206.7 891.649 1198.36 897.493 1190.68 905.593 L 1189.04 905.546 L 1189.32 902.02 C 1194.62 893.038 1218.91 876.088 1228.68 870.617 z"/>
<path transform="translate(0,0)" fill="rgb(255,255,255)" d="M 1210.27 873.469 C 1214.31 872.502 1216 871.915 1220.1 871.925 L 1220.32 872.61 C 1208.03 876.185 1206.01 881.667 1196.12 887.826 L 1189.9 892.957 L 1189.18 892.382 C 1190.02 880.443 1203.25 880.761 1210.27 873.469 z"/>
<path transform="translate(0,0)" fill="rgb(255,255,255)" d="M 1187.11 878.55 C 1187.53 876.618 1187.4 875.123 1188.64 874.354 C 1192.88 871.721 1205.33 872.984 1210.27 873.469 C 1206.47 874.404 1190.06 878.977 1187.11 878.55 z"/>
<path transform="translate(0,0)" fill="rgb(2,2,2)" d="M 1284.44 862.446 C 1287.6 862.284 1289.72 861.815 1292.5 863.231 C 1296.36 870.715 1293.8 976.88 1292.5 990.969 C 1283.2 992.805 1266.22 993.888 1256.24 994.71 C 1252.65 995.006 1251.4 995.576 1248.9 993.118 C 1246.4 985.659 1246.58 876.279 1248.44 865.225 C 1251.74 862.046 1277.42 862.664 1284.44 862.446 z"/>
<path transform="translate(0,0)" fill="rgb(255,255,255)" d="M 1281.78 931.443 C 1285.57 931.13 1284.17 930.495 1286.54 932.414 C 1288.18 949.502 1286.21 968.645 1287.67 986.891 C 1277.77 987.788 1267.86 988.575 1257.95 989.254 L 1254.58 989.594 C 1251.71 986.236 1253.61 942.015 1253.87 934.133 C 1262.48 932.825 1272.98 932.195 1281.78 931.443 z"/>
<path transform="translate(0,0)" fill="rgb(255,255,255)" d="M 1285.42 868.724 C 1288.27 872.458 1286.7 918.693 1286.6 926.726 C 1276.3 927.21 1265.65 928.076 1255.33 928.773 C 1252.56 925.054 1253.71 900.753 1253.76 894.468 C 1261.68 887.235 1276.55 875.208 1285.42 868.724 z"/>
<path transform="translate(0,0)" fill="rgb(255,255,255)" d="M 1274.75 869.843 C 1277.32 870.217 1276.59 869.594 1277.91 871.006 C 1274.79 874.019 1261.16 882.772 1256.6 886 C 1255.61 886.711 1256.28 886.362 1254.45 886.644 C 1253.27 879.462 1268.97 871.983 1274.75 869.843 z"/>
<path transform="translate(0,0)" fill="rgb(255,255,255)" d="M 1223.58 718.413 C 1228.44 717.849 1237.95 718.041 1243.2 718.008 C 1233.02 729.295 1214.84 743.413 1203.07 753.168 L 1143.93 802.857 C 1135.12 810.366 1120.17 822.41 1113.61 831.045 C 1041.6 827.198 966.246 830.875 894.096 829.223 C 885.517 829.161 878.565 829.218 870.026 829.779 C 890.964 807.145 909.914 781.832 930.744 759.016 C 937.7 751.398 945.021 743.277 950.58 734.624 C 966.851 732.969 988.549 733.621 1006 732.327 C 1078.48 726.953 1151.13 724.263 1223.58 718.413 z"/>
<path transform="translate(0,0)" fill="rgb(2,2,2)" d="M 1195.95 728.951 L 1196.38 729.406 C 1195.96 732.018 1192.59 734.626 1190.37 736.918 C 1198.06 737.046 1205.8 737.315 1213.49 737.535 C 1207.86 739.258 1201.38 739.446 1195.48 739.693 C 1187.77 740.017 1189.61 742.101 1184.12 744.953 C 1184.43 742.552 1184.58 743.676 1183.78 741.566 C 1177.48 740.642 1157.65 742.821 1149.93 743.444 C 1145.32 748.931 1137.7 755.881 1132.37 761.016 C 1147.87 760.886 1164.68 759.567 1180 761.055 L 1179.58 761.744 C 1172.47 763.795 1166.02 763.555 1158.63 763.716 C 1154.09 769.878 1150.33 774.929 1143.89 779.359 C 1147.82 773.27 1152.28 769.001 1157.28 763.783 C 1141.26 764.372 1125.23 764.807 1109.2 765.089 C 1104.66 771.842 1098.57 777.639 1092.82 783.403 C 1102.37 783.366 1149.23 781.499 1155.67 783.292 L 1155.29 784.202 C 1151.43 785.568 1128.19 786.053 1121.89 786.39 C 1117.45 791.91 1109.3 799.759 1104.14 805.027 C 1109.45 804.89 1121.64 803.765 1125.63 806.158 L 1124.94 807.271 C 1119.59 808.499 1090.17 807.93 1081.63 808.662 L 1080.26 808.786 C 1076.2 813.333 1074.64 815.076 1069.7 818.978 L 1068.01 818.866 L 1068.48 819.774 L 1067.73 820.118 L 1067.31 819.951 C 1069.55 815.639 1073.64 812.395 1077.26 808.986 C 1061 808.836 1044.74 808.809 1028.48 808.907 C 1022.76 814.482 1019.34 817.6 1012.62 821.844 L 1025.09 809.069 C 1008.68 808.83 992.274 808.945 975.872 809.413 C 973.206 812.377 968.037 818.573 964.154 819.438 C 965.48 815.93 969.869 812.351 972.736 809.592 C 957.201 808.869 938.959 809.618 922.903 809.403 C 919.887 812.152 913.945 818.06 910.276 818.888 C 911.723 815.434 915.436 812.505 918.256 809.834 C 913.313 809.982 901.888 810.946 898.232 808.234 C 900.343 806.535 937.189 806.868 943.246 806.817 C 949.659 800.553 955.061 795.561 961.878 789.748 C 947.054 789.758 928.885 790.386 914.484 789.009 L 914.415 788.374 C 922.654 786.467 928.495 786.883 936.982 786.977 C 940.889 781.945 947.983 774.84 952.559 769.715 C 944.113 770.043 938.458 770.511 930.002 768.782 C 937.079 765.993 970.587 767.286 982.05 766.041 L 983.538 765.871 C 988.483 759.231 993.527 755.33 999.821 750.091 C 985.54 750.505 954.732 753.603 943.016 750.245 L 943.203 749.51 C 954.024 748.157 966.92 747.996 978.054 747.359 C 981.556 744.322 985.092 740.704 989.294 739.066 C 988.261 741.962 984.801 744.754 982.435 747.029 C 995.276 747.032 1007.5 746.477 1020.33 745.9 C 1023.72 742.181 1028.86 735.892 1033.57 734.558 L 1031.75 737.305 L 1032.4 735.102 L 1030.96 736.115 L 1031.85 737.312 C 1029.91 739.923 1025.83 743.108 1023.23 745.365 L 1069.46 744.034 C 1072.64 740.228 1076.02 735.509 1080.87 734.411 C 1079.52 737.653 1075.1 740.874 1072.27 743.328 L 1120.81 742.051 C 1125.4 733.026 1127.89 731.92 1136.66 728.064 L 1123.14 741.067 C 1143.57 739.804 1164.92 739.428 1185.5 738.582 C 1188.57 735.179 1192.47 731.991 1195.95 728.951 z"/>
<path transform="translate(0,0)" fill="rgb(255,255,255)" d="M 1091.55 786.444 C 1098.98 785.787 1111.51 785.987 1119.34 785.859 C 1113.26 791.792 1106.77 797.641 1102.83 805.16 C 1096.45 805.582 1089.67 805.685 1083.25 805.882 L 1051.37 806.187 C 1057.22 800.011 1064.47 794.314 1069.09 787.27 C 1076.58 787.105 1084.07 786.829 1091.55 786.444 z"/>
<path transform="translate(0,0)" fill="rgb(255,255,255)" d="M 994.57 788.468 L 1015.32 788.095 C 1009.69 794.249 1003.28 799.798 997.286 806.408 C 986.775 807.047 977.663 806.8 967.181 806.567 C 961.199 806.265 952.742 806.615 946.571 806.69 C 952.74 800.252 959.565 796.101 966.178 789.129 C 975.643 788.966 985.107 788.746 994.57 788.468 z"/>
<path transform="translate(0,0)" fill="rgb(255,255,255)" d="M 1017.68 788.447 C 1033.56 787.647 1050.73 787.982 1066.72 788.073 C 1059.7 794.823 1055.12 798.911 1049.02 806.49 L 1000.07 806.26 C 1006.61 800.044 1011.66 795.142 1017.68 788.447 z"/>
<path transform="translate(0,0)" fill="rgb(255,255,255)" d="M 1071.8 766.513 L 1107.45 765.595 C 1101.34 772.374 1095.33 776.075 1090.01 783.988 L 1074.64 784.304 C 1063.86 784.888 1051.84 784.755 1040.97 784.865 C 1046.8 778.368 1052.66 774.789 1057.51 767.03 L 1071.8 766.513 z"/>
<path transform="translate(0,0)" fill="rgb(255,255,255)" d="M 1035 767.488 L 1056.31 767.118 C 1050.34 772.59 1043.29 778.594 1038.42 784.947 C 1029.53 785.277 1020.42 785.376 1011.5 785.576 C 1004.23 785.836 997.2 785.644 989.935 785.5 C 996.05 780.026 1001.43 775.512 1006.57 769.045 C 1015.86 768.336 1025.66 767.979 1035 767.488 z"/>
<path transform="translate(0,0)" fill="rgb(255,255,255)" d="M 1136.7 743.432 C 1138.86 743.151 1144.69 743.141 1147.14 743.065 C 1141.94 748.412 1135.2 754.719 1131.63 761.064 L 1095.75 762.379 C 1091.45 762.626 1086.69 762.66 1082.34 762.786 C 1088.08 757.095 1094.41 751.928 1098.89 745.281 C 1111.5 744.734 1124.1 744.118 1136.7 743.432 z"/>
<path transform="translate(0,0)" fill="rgb(255,255,255)" d="M 970.235 769.537 C 981.472 769.166 993.073 769.16 1004.35 769.022 C 998.229 775.317 993.6 778.422 987.653 785.721 L 970.496 786.317 C 960.584 786.937 949.107 786.67 939.067 786.668 C 943.232 781.796 950.636 774.79 955.334 770.061 L 970.235 769.537 z"/>
<path transform="translate(0,0)" fill="rgb(255,255,255)" d="M 1075.24 746.619 L 1095.77 745.468 C 1090.53 751.401 1085.2 757.259 1079.8 763.042 C 1072.23 764.057 1062.07 763.906 1054.25 764.016 L 1032.96 764.636 C 1038.17 759.514 1043.92 754.257 1048.06 748.299 C 1057.1 747.09 1066.13 746.941 1075.24 746.619 z"/>
<path transform="translate(0,0)" fill="rgb(255,255,255)" d="M 1037.66 748.462 C 1040.13 748.18 1040.1 748.209 1042.56 748.609 L 1043.1 750.283 C 1041.16 754.006 1033.19 761.2 1029.61 764.856 C 1017.9 765.96 1005.55 766.048 993.75 766.358 C 991.782 766.472 990.778 766.319 988.81 766.166 L 988.094 764.603 C 990.225 760.599 998.887 753.655 1002.73 750.217 C 1014.01 749.14 1026.27 748.903 1037.66 748.462 z"/>
<path transform="translate(0,0)" fill="rgb(255,255,255)" d="M 915.531 855.796 L 1040.65 856.943 C 1065.41 857.123 1091.44 856.788 1116.09 857.976 C 1118.33 896.757 1112.82 940.592 1114.98 980.318 C 1116.21 1002.77 1115.94 1030.3 1115.06 1052.73 C 1114.16 1053.5 1114.03 1053.25 1112.54 1053.55 C 1101.48 1050.06 1072.52 1021.17 1062.9 1011.6 C 1036.61 985.479 1004.48 962.363 982.325 932.854 C 961.623 905.285 938.339 881.373 915.531 855.796 z"/>
<path transform="translate(0,0)" fill="rgb(255,255,255)" d="M 1248.76 717.726 C 1275.88 743.115 1303.71 767.733 1332.22 791.548 C 1345.51 802.77 1373.82 825.396 1383.94 836.934 C 1374.55 838.882 1364.23 839.428 1354.68 839.911 C 1346.32 834.006 1335.92 823.277 1327.72 816.24 C 1308.83 800.212 1289.79 784.355 1270.62 768.668 C 1264.65 763.726 1250.69 748.966 1243.49 752.23 C 1214.84 773.649 1185.07 802.608 1156.4 825.022 C 1146.92 832.437 1130.77 847.765 1120.45 852.682 C 1119.8 845.857 1118.94 840.779 1117.7 834.027 C 1125.55 825.985 1141.8 813.338 1150.87 805.839 C 1166.99 792.362 1182.95 778.706 1198.76 764.874 C 1215.41 750.559 1234.99 734.538 1248.76 717.726 z"/>
<path transform="translate(0,0)" fill="rgb(255,255,255)" d="M 870.505 836.56 C 903.393 835.031 944.873 836.221 978.344 836.441 L 1114.34 836.864 C 1114.98 843.16 1114.9 845.691 1118.36 850.879 L 874.538 849.426 C 872.828 844.868 871.289 841.389 870.505 836.56 z"/>
<path transform="translate(0,0)" fill="rgb(2,2,2)" d="M 521.419 877.19 L 428.472 760.488 C 413.662 742.05 347.223 663.087 342.022 649.577 L 342.911 649.192 C 353.321 657.595 380.913 692.646 391.668 705.66 C 438.144 761.975 483.635 819.095 528.121 876.994 C 550.814 876.649 576.398 873.956 599.279 872.581 C 622.245 871.2 647.765 870.295 670.329 867.186 L 671.123 866.988 C 692.025 866.855 719.185 863.31 738.591 864.024 C 749.341 873.682 757.013 886.421 766.293 896.762 C 785.417 918.075 803.713 939.904 822.337 961.612 C 825.479 965.274 849.404 995.295 851.803 996.975 C 870.213 993.83 888.748 995.395 906.367 992.819 C 896.665 980.62 887.518 967.991 878.953 954.969 C 868.485 955.156 828.099 957.815 821.659 955.539 L 821.564 954.327 C 825.277 952.496 836.801 952.866 841.585 952.764 C 832.425 941.831 821.74 928.389 817.495 914.707 C 810.093 914.768 792.736 915.42 786.573 913.848 L 786.048 912.752 C 788.558 911.885 788.981 911.692 791.585 911.345 C 792.711 906.445 779.155 891.527 776.228 884.836 L 776.456 884.244 C 785.918 893.565 788.696 899.982 795.331 911.062 C 812.99 911.08 843.303 911.95 859.931 909.806 C 854.79 902.889 845.58 890.665 842.555 883.057 C 849.263 891.207 856.578 901.291 863.046 909.835 C 874.631 909.616 937.281 907.277 943.548 909.047 L 943.12 909.961 C 935.035 911.89 925.723 910.611 917.38 911.349 C 884.506 914.259 851.781 912.757 818.754 915.09 C 827.623 929.193 833.779 940.037 845.337 952.132 C 856.964 951.337 909.823 951.18 914.931 949.613 L 916.226 948.296 C 923.305 953.221 968.603 945.409 978.249 950.323 C 969.259 952.301 954.987 952.159 945.513 952.574 C 924.284 953.502 902.833 953.463 881.661 955.264 C 890.429 968.296 900.364 978.907 909.238 992.899 C 929.877 993.037 954.805 990.347 976.016 990.246 C 988.449 990.187 1002.4 987.943 1015.06 989.52 C 1008.9 992.677 951.833 994.75 941.674 995.323 C 947.596 1005.04 960.726 1021.66 968.079 1032.26 C 982.577 1031.45 1047.14 1026.45 1056.42 1029.49 L 1054.01 1029.28 L 1054.32 1030.32 C 1041.83 1032.31 1029.23 1032.15 1016.66 1033.17 C 979.823 1036.15 942.987 1038.59 906.009 1038.63 C 900.27 1038.63 895.924 1038.93 890.26 1037.78 C 897.744 1034.02 952.619 1033.64 965.478 1032.78 C 959.519 1021.83 948.274 1009.79 940.437 995.718 C 917.182 996.76 892.663 997.567 869.658 998.842 C 877.682 1008.67 888.871 1022.6 892.484 1034.58 C 884.378 1023.15 874.177 1011.65 869.01 998.887 L 853.632 999.418 C 880.497 1032.07 909.534 1065.06 936.911 1097.6 C 954.003 1117.92 982.098 1153.62 999.708 1171.11 C 1014.96 1166.79 1033.4 1164.65 1049.21 1162.41 L 1123.99 1152.06 L 1323.93 1124.19 C 1361.28 1118.99 1400.28 1114.23 1437.32 1107.84 C 1449.96 1045.05 1461.93 982.128 1473.24 919.085 C 1476.84 899.552 1480.62 880.052 1484.58 860.589 C 1485.93 853.59 1489.04 825.811 1495.62 823.24 C 1499.6 832.804 1485.25 894.531 1482.43 908.598 C 1496.85 908.827 1511.26 908.964 1525.68 909.009 C 1531 899.776 1537.68 891.625 1543.36 881.588 C 1531.64 880.673 1501.54 881.901 1492.92 877.908 C 1496.3 875.281 1511.36 876.374 1516.11 876.523 C 1522.06 865.825 1528.36 858.7 1536.36 849.523 C 1529.38 849.341 1501.06 849.7 1497.62 846.585 C 1499.59 844.525 1502.8 844.574 1506.13 843.953 C 1510.24 838.644 1512.16 836.65 1517 832.006 C 1514.71 836.272 1512.14 840.487 1509.68 844.662 C 1525.39 844.913 1541.11 845.017 1556.83 844.974 C 1559.33 841.635 1564.04 834.917 1567.69 833.429 C 1566.46 837.665 1562.88 841.47 1560.06 845.069 C 1576.86 845.153 1593.65 844.854 1610.44 844.173 C 1612.98 841.317 1617.95 834.922 1621.27 833.731 C 1620.43 837.338 1616.86 841.238 1614.5 844.323 C 1630.87 844.297 1647.24 843.957 1663.6 843.305 C 1666.62 839.319 1670.84 833.022 1675.02 830.797 L 1673.79 833.743 L 1674.88 830.985 L 1673.5 832.054 L 1674.15 833.356 C 1672.79 836.016 1669.14 840.441 1667.18 843.002 C 1680.8 843.081 1697.01 842.186 1710.58 841.146 C 1712.73 837.813 1716.09 832.602 1719.34 830.646 C 1719.03 833.637 1715.21 838.139 1713.26 840.839 C 1728.21 840.013 1743.16 839.327 1758.12 838.78 C 1759.41 835.414 1761.07 829.962 1764.72 828.696 C 1764.2 832.177 1761.25 835.265 1759 838.189 C 1763.46 837.838 1782.38 835.407 1784.71 838.15 C 1778.04 844.908 1671.73 843.012 1657.64 848.021 C 1653.56 858.863 1646.65 867.245 1640.72 877.171 C 1656.56 876.201 1673.62 875.47 1689.27 873.628 C 1691.32 861.81 1697.82 854.059 1704.81 844.51 C 1701.1 855.256 1694.14 862.808 1689.63 873.239 C 1705.94 872.713 1745.02 868.802 1758.21 870.892 C 1750.12 875.826 1617.02 880.738 1597.17 882.26 C 1591.33 891.341 1585.16 900.163 1579.41 909.089 C 1586.19 909.192 1615.09 910.519 1618.84 907.804 C 1618.98 901.367 1628.54 887.777 1633.54 884.678 C 1629.8 893.822 1623.71 898.512 1619.91 908.406 C 1644.21 908.158 1667.72 906.338 1691.94 905.2 C 1702.52 904.702 1719.21 903.49 1729.4 904.74 L 1729.68 905.526 C 1719.45 908.756 1704.44 908.017 1693.22 908.5 C 1678.3 909.099 1663.39 910.003 1648.51 911.211 C 1646.15 916.775 1638.51 933.842 1633.71 936.792 C 1636.88 928.012 1642.3 919.778 1647.26 911.899 C 1602.85 912.746 1610.45 903.044 1587.06 940.752 C 1623.41 941.07 1659.27 938.97 1695.6 939.197 C 1700.74 939.229 1705.37 939.548 1710.44 940.477 C 1690.95 944.784 1680.96 941.481 1664.68 943.226 C 1659.16 954.669 1651.53 964.775 1646.61 974.836 C 1658.58 974.986 1672.3 974.672 1683.89 977.103 C 1670.05 980.263 1647.39 978.93 1632.63 979.035 C 1626.5 990.052 1619.02 999.78 1613.11 1010.35 C 1618.62 1010.46 1645.75 1010.26 1648.88 1012.22 L 1648.45 1013.36 C 1639.66 1014.84 1607.39 1014.19 1597.86 1013.65 C 1593.01 1022.31 1581.43 1040.88 1575.52 1048.78 C 1586.25 1048.94 1607.52 1048.42 1616.66 1051.97 L 1616.48 1052.84 C 1603.38 1056.08 1578.76 1051.76 1564.49 1052.33 C 1562.58 1052.41 1561.37 1053.62 1560.19 1055.02 C 1556.22 1066.56 1545.96 1077.04 1542.47 1085.88 C 1554.3 1087.7 1574.05 1086.31 1583.48 1090.6 L 1583.08 1091.38 C 1566.81 1092.9 1538.34 1089.22 1520.51 1088.98 C 1517.93 1094.91 1513.55 1103.9 1508.89 1108.18 L 1508.41 1107 C 1510.3 1100.53 1514.36 1094.59 1517.87 1088.77 C 1499.43 1087.06 1468.34 1088.34 1452.42 1083.8 C 1465.89 1081.61 1527.77 1083.88 1541.46 1086.09 C 1541.55 1078.47 1554.16 1060.56 1558.6 1053.19 C 1554.92 1051.51 1514.81 1050.72 1507.85 1050.48 C 1505.04 1059.26 1492.67 1078.46 1485.84 1085.12 C 1490.41 1074.36 1499.68 1060.7 1506.27 1050.44 C 1489.93 1050 1471.96 1050.87 1456.54 1046.65 C 1465.59 1044.59 1469.8 1044.81 1479.22 1044.62 C 1484.55 1033.22 1493.45 1020.68 1501.89 1011.37 C 1497.57 1021.96 1488.18 1035.06 1481.76 1044.92 C 1494.38 1044.93 1508.89 1045.94 1521.65 1046.57 C 1526.95 1034.36 1534.67 1024.71 1542.78 1014.32 C 1530.49 1014.19 1480.18 1014.59 1471.81 1010.84 C 1478.02 1009.31 1497.15 1009.86 1504.71 1009.96 C 1509.77 999.768 1518.4 989.119 1524.3 978.114 C 1509.86 977.657 1484.91 977.7 1471.45 974.571 C 1480.67 972.767 1486.77 973.025 1496.19 972.964 C 1499.57 963.323 1506.93 953.709 1512.85 945.21 C 1506.46 944.628 1484.65 945.042 1481.26 941.178 C 1485.51 938.828 1527.17 941.122 1534.68 941.296 C 1539.98 931.959 1546.73 922.554 1553.07 913.878 C 1542.32 913.689 1512.07 911.681 1503.09 913.942 C 1502.31 921.722 1493.78 932.213 1488.89 938.313 C 1493.08 927.982 1498.44 922.674 1502.36 913.807 C 1499.54 912.938 1486.19 911.881 1482.46 911.524 L 1458.12 1041.85 C 1454.12 1063.98 1450.21 1087.16 1445.83 1109.3 C 1445.38 1111.58 1443 1114.37 1441.47 1116.19 C 1458.75 1116.41 1567.47 1120.09 1575.1 1126.25 L 1575.04 1128.05 C 1564.16 1134.4 1445.32 1119.52 1438.71 1124.53 L 1439.13 1126.77 C 1442.4 1128.38 1472.13 1128.07 1478.37 1129.36 C 1492.68 1132.34 1548.88 1132.19 1558.8 1137.22 L 1558.73 1138.71 C 1553.67 1140.53 1449.56 1132.94 1439.26 1131.77 C 1439.28 1136.73 1439.52 1142.06 1439.65 1147.05 C 1469.48 1150.26 1500.2 1152.58 1530.08 1155.78 C 1545.16 1157.39 1566.33 1158.2 1580.51 1161.32 C 1597.13 1142.23 1615.34 1115.85 1631.44 1094.98 L 1730.94 964.998 C 1749.39 940.549 1765.87 915.166 1785.49 891.665 C 1797.48 877.303 1809.5 862.989 1821.75 848.847 C 1825.13 855.941 1831.26 864.247 1835.66 871.074 L 1865.64 917.489 C 1884.71 946.979 1903.51 976.643 1922.04 1006.48 C 1928.75 1017.17 1944.13 1039.51 1947.13 1050.15 L 1945.54 1050.02 C 1938.44 1042.85 1913.9 1002.51 1906.77 991.542 L 1854.77 911.613 C 1844.17 895.164 1830.91 875.774 1822.9 858.431 C 1818.76 863.915 1814.71 869.465 1810.74 875.079 C 1817.7 881.985 1823.26 891.041 1828.6 899.252 C 1838.4 914.33 1925.76 1055.33 1926.68 1061.7 C 1927.05 1064.21 1927.38 1065.46 1925.78 1067.59 C 1917.12 1064.14 1860.02 964.036 1851.7 950.444 L 1823.63 904.809 C 1818.95 897.148 1811.56 885.865 1808.31 877.988 C 1780.94 905.204 1767.7 929.007 1745.5 959.272 C 1714.48 1001.57 1680.48 1042.64 1648.49 1084.23 L 1610.29 1134.16 C 1602.46 1144.39 1591.59 1159.15 1582.66 1168.03 C 1536.63 1167.75 1489.32 1158.66 1443.42 1156.84 C 1441.16 1190.99 1444.35 1251.1 1442.16 1287.43 C 1442.11 1288.31 1441.11 1288.49 1440.11 1288.94 C 1435.6 1282.69 1439.15 1170.85 1437.99 1151.78 C 1414.46 1153.46 1374.37 1160.95 1349.72 1164.7 L 1154.92 1193.74 L 1083.42 1204.67 C 1067.44 1207.09 1048.84 1210.26 1032.86 1211.29 C 1050.84 1233.56 1069.9 1255.14 1088.74 1276.68 C 1091.77 1280.15 1097.25 1285.61 1095.63 1290.35 L 1093.22 1291.02 C 1087.22 1287.93 1041.96 1233.26 1035.01 1225.15 L 841.697 998.075 L 776.246 920.951 C 764.254 906.81 749.862 888.883 737.203 875.701 C 696.315 916.599 652.889 964.227 612.76 1006.56 L 377.094 1253.38 L 298.93 1334.21 C 292.522 1340.8 271.898 1366.11 263.672 1365 L 262.724 1363.41 C 264.508 1356.71 315.319 1304.9 323.095 1296.71 L 452.828 1161.27 C 543.883 1065.99 634.526 968.218 726.217 873.757 C 665.594 876.466 602.451 881.228 541.842 885.344 L 381.934 895.342 C 347.173 897.746 312.389 899.814 277.589 901.545 C 260.722 902.345 243.862 902.893 226.982 903.113 C 222.949 903.166 219.49 902.426 218.439 898.308 C 221.943 887.91 238.305 863.089 245.031 852.547 L 292.782 778.443 C 300.474 766.558 335.103 710.308 342.192 705.255 L 343.84 705.538 C 344.726 710.594 329.934 731.115 326.406 736.661 L 286.949 798.175 C 266.506 830.012 244.419 867.109 222.422 897.362 C 309.565 891.3 397.776 887.732 485.065 880.053 C 450.388 834.916 413.945 790.493 379.289 745.239 C 364.638 726.107 348.267 707.712 333.57 688.555 C 327.033 700.575 309.899 725.161 301.816 737.655 L 236.38 838.088 C 226.612 852.816 200.209 896.02 190.187 906.815 C 190.435 905.953 190.683 905.091 190.93 904.229 C 192.229 899.215 195.026 894.307 197.758 889.907 C 219.907 854.24 243.527 819.352 266.165 783.999 C 279.89 762.175 293.797 740.467 307.886 718.876 C 313.847 709.667 326.531 688.942 333.821 681.985 L 335.353 682.235 C 344.87 688.976 375.141 728.919 384.419 740.793 C 419.784 786.054 459.923 833.127 492.789 880.065 C 502.325 879.033 511.868 878.075 521.419 877.19 z"/>
<path transform="translate(0,0)" fill="rgb(255,255,255)" d="M 1538.43 849.054 C 1556.12 848.903 1575.22 849.343 1592.8 849.319 C 1604.1 849.304 1650.24 845.289 1657.64 848.021 C 1652.98 852.818 1640.99 871.789 1638.14 877.958 C 1616.32 878.788 1594.47 878.874 1572.65 878.216 C 1576.77 871.942 1582.63 863.487 1586.27 857.057 C 1579.34 864.836 1575.02 869.123 1569.88 878.12 C 1562.03 878.28 1554.19 878.329 1546.35 878.266 L 1518.24 877.058 C 1523.73 869.556 1533.8 856.547 1538.43 849.054 z"/>
<path transform="translate(0,0)" fill="rgb(255,255,255)" d="M 1432.94 1119.42 L 1434.32 1119.48 C 1435.43 1122.41 1434.81 1140.27 1434.84 1144.87 C 1398.49 1149.02 1359.71 1155.52 1323.34 1161.04 L 1188.26 1181.36 C 1153.11 1186.56 1117.98 1191.94 1082.89 1197.5 C 1065.53 1200.18 1046.3 1202.68 1029.21 1206.17 L 1018.88 1193.7 C 1013.13 1187.31 1008.62 1181.98 1003.34 1175.21 C 1021.5 1174.87 1045.1 1171.35 1063.49 1168.86 L 1153.83 1156.16 L 1293.99 1137.6 C 1340.39 1131.43 1386.32 1124.63 1432.94 1119.42 z"/>
<path transform="translate(0,0)" fill="rgb(2,2,2)" d="M 1421.61 1124.47 L 1423.91 1124.45 L 1424.52 1125.74 C 1422.18 1127.77 1416.59 1129.77 1413.45 1130.22 C 1364.05 1137.2 1314.89 1145.78 1265.5 1152.85 L 1022.25 1188.85 L 1018.93 1188.48 L 1018.51 1187.27 C 1024.49 1182.37 1107.59 1171.88 1121.54 1169.91 L 1250.04 1150.76 L 1353.69 1134.93 C 1374.14 1131.61 1401.42 1126.07 1421.61 1124.47 z"/>
<path transform="translate(0,0)" fill="rgb(255,255,255)" d="M 1658.77 943.529 L 1660.24 943.8 C 1660.7 947.893 1647.61 966.467 1644.68 975.357 C 1629.68 975.41 1614.68 975.238 1599.69 974.841 C 1605.68 964.997 1614.09 953.505 1617.81 942.828 C 1609.47 953.19 1603.93 962.096 1598.05 974.147 L 1596.11 974.708 C 1580.22 974.328 1564.34 974.141 1548.45 974.145 C 1551.13 968.46 1562.14 951.433 1565.89 945.11 C 1593.53 943.638 1630.31 943.929 1658.77 943.529 z"/>
<path transform="translate(0,0)" fill="rgb(255,255,255)" d="M 1557.28 1013.45 C 1570.35 1012.8 1583.44 1012.87 1596.49 1013.69 C 1587.09 1024.48 1581.96 1034.76 1573.93 1046.4 C 1572.34 1048.71 1571.45 1048.02 1568.25 1048.18 C 1553.63 1047.36 1539 1046.84 1524.35 1046.62 C 1529.79 1036.52 1537.77 1024.49 1543.8 1013.89 L 1557.28 1013.45 z"/>
<path transform="translate(0,0)" fill="rgb(255,255,255)" d="M 1530.13 978.505 C 1545.98 978.103 1561.84 978.273 1577.68 979.015 C 1571.01 988.8 1564.9 998.96 1559.39 1009.44 L 1557.25 1010.1 C 1541.08 1010.35 1524.91 1010.18 1508.75 1009.58 C 1513.28 1002.16 1522.27 986.977 1527.73 979.209 C 1528.53 978.974 1529.33 978.74 1530.13 978.505 z"/>
<path transform="translate(0,0)" fill="rgb(255,255,255)" d="M 1582.32 978.397 C 1597.38 978.426 1614.15 978.67 1629.09 979.798 C 1626.19 984.002 1611.01 1009.3 1609.16 1010.33 C 1593.29 1009.98 1577.43 1009.86 1561.57 1009.98 C 1564.97 1004.07 1577.92 980.739 1582.32 978.397 z"/>
<path transform="translate(0,0)" fill="rgb(255,255,255)" d="M 1516.04 944.89 C 1528.35 944.119 1549.96 944.984 1562.79 945.426 C 1557.41 953.45 1549.88 965.581 1545.81 974.161 C 1529.95 974.857 1514.05 974.396 1498.26 972.781 C 1502.92 962.687 1510.53 955.336 1516.04 944.89 z"/>
<path transform="translate(0,0)" fill="rgb(255,255,255)" d="M 1546.86 881.883 C 1562.44 881.699 1578.02 881.71 1593.6 881.917 C 1588.67 889.711 1579.97 901.283 1576.76 909.349 C 1561.16 910.73 1544.66 910.089 1529.01 909.532 C 1533.23 901.709 1541.7 890.334 1546.86 881.883 z"/>
<path transform="translate(0,0)" fill="rgb(255,255,255)" d="M 1561.41 913.527 C 1575.04 912.918 1588.87 913.065 1602.53 913.05 C 1595.95 922.407 1591.51 929.972 1585.8 939.813 C 1582.65 941.603 1578.52 941.182 1574.74 941.214 C 1562.06 941.712 1550.16 941.379 1537.48 941.089 C 1542.97 932.824 1548.43 924.103 1554.52 916.242 C 1556.78 913.336 1557.96 913.87 1561.41 913.527 z"/>
<path transform="translate(0,0)" fill="rgb(2,2,2)" d="M 1565.14 572.352 C 1573.89 571.403 1620.04 578.042 1628.13 581.064 C 1630.68 585.618 1629.33 586.954 1625.84 590.135 L 1624.45 591.391 C 1623 596.295 1623.4 609.298 1623.22 615.322 C 1628.55 615.889 1656.25 615.496 1658.67 620.582 C 1661 625.484 1660.19 638.47 1658 644.042 C 1655.23 646.04 1650.47 645.93 1646.86 646.237 C 1645.22 698.558 1645.31 759.672 1646.27 812.083 C 1688.32 810.637 1731.24 807.076 1773.35 805.789 C 1784.56 805.446 1815.38 803.144 1825 805.268 C 1830.41 808.88 1865.18 867.262 1871.8 877.829 L 1942.13 989.072 L 1975.68 1042.91 C 1979.85 1049.58 1994.22 1067.93 1991.77 1074.81 L 1989.85 1075.36 C 1986.89 1073.81 1984.34 1071.54 1982.68 1068.66 C 1974.44 1054.4 1965.56 1040.72 1956.68 1026.89 C 1929.53 984.629 1902.62 942.221 1875.95 899.661 L 1843.32 848.331 C 1837.2 838.859 1828.06 826.591 1823.76 816.68 C 1813.03 830.232 1802.43 843.879 1791.43 857.294 C 1722 942.017 1656.15 1029.74 1588.44 1115.86 C 1585.99 1118.97 1583.67 1121.61 1580.12 1123.38 L 1579.1 1122.44 C 1580.48 1113.27 1641.53 1036.97 1650.91 1025.06 C 1684.42 982.551 1717.72 938.132 1751.57 895.928 L 1794.55 842.756 C 1801.43 834.146 1811.98 821.55 1817.31 812.455 L 1818.03 811.2 C 1805.62 810.754 1774.26 813.447 1759.76 814.129 L 1613.98 821.479 C 1589.76 822.601 1563.23 824.748 1539.27 823.957 C 1522.66 807.55 1507.72 795.778 1491.19 777.288 C 1489.31 762.177 1490.74 722.019 1490.95 705.288 C 1398.85 698.599 1306.7 692.641 1214.5 687.415 C 1163.55 683.699 1109.24 681.806 1057.84 678.719 L 627.471 654.335 L 440.38 643.143 C 409.53 641.308 366.01 640.308 336.337 636.778 C 324.584 649.253 308.767 678.142 298.736 693.75 C 275.709 729.115 253.264 764.855 231.409 800.956 C 211.52 833.776 191.816 866.677 171.016 898.981 C 169.019 902.082 167.673 904.364 164.533 904.954 C 162.316 902.822 163.128 904.12 162.544 900.655 C 164.347 893.828 206.198 829.913 212.981 819.03 L 279.25 712.583 C 288.298 697.89 321.571 639.251 332.505 629.903 C 361.152 632.996 400.463 634.077 430.36 635.909 C 504.758 640.599 579.182 644.879 653.627 648.748 L 1196.13 679.711 L 1344.69 688.137 C 1393.42 690.341 1442.13 692.987 1490.82 696.076 C 1491.95 680.095 1492.37 663.019 1493.11 646.914 C 1489.29 646.932 1486.23 647.411 1482.96 645.622 C 1477.31 639.26 1479.76 629.367 1480.22 620.014 C 1487.16 618.292 1509.59 616.319 1516.95 615.811 C 1517.02 608.486 1517.36 600.152 1516.54 592.914 C 1516.2 589.968 1515.05 590.115 1511.89 587.887 C 1510.68 584.746 1510.56 586.212 1511.5 583.381 C 1519.22 577.985 1554.42 574.007 1565.14 572.352 z"/>
<path transform="translate(0,0)" fill="rgb(255,255,255)" d="M 1570.75 642.377 C 1593.6 642.678 1617.3 644.059 1640.19 645.094 C 1638.52 662.757 1639.18 703.278 1639.53 722.27 C 1639.98 747.374 1638.51 788.922 1640.84 812.653 C 1607.67 813.685 1575.03 815.753 1541.89 817.073 C 1532.2 807.452 1506.43 784.415 1500.2 775.527 C 1499.53 757.711 1500.09 737.255 1500.17 719.249 C 1500.23 699.394 1500.68 665.036 1498.78 646.155 C 1520.85 645.037 1541.42 643.126 1563.91 642.414 C 1561.54 659.132 1562.88 800.538 1568.25 810.47 L 1567.75 808.352 L 1569.14 808.335 C 1571.08 795.359 1570.09 769.668 1570.25 755.2 C 1570.77 717.595 1570.93 679.985 1570.75 642.377 z"/>
<path transform="translate(0,0)" fill="rgb(255,255,255)" d="M 1601.33 652.144 C 1594.71 651.424 1586.12 651.365 1580.52 649.081 L 1580.76 648.419 C 1588.96 647.996 1624.89 649.842 1632.78 651.635 L 1633.34 652.677 C 1630.06 654.869 1609.85 652.808 1603.5 652.824 L 1604.07 674.819 C 1610.81 675.081 1628 675.49 1633.37 678.348 C 1630.97 680.055 1626.38 679.425 1623.28 679.21 C 1623.36 687.939 1623.31 696.951 1623.55 705.651 C 1629.09 705.816 1630.91 705.551 1636.12 707.649 C 1630.87 710.359 1610.78 709.198 1603.79 709.049 C 1603.93 716.759 1604.36 724.127 1602.95 731.72 C 1601.24 727.727 1601.3 713.487 1601.29 708.674 C 1592.98 708.048 1584.5 707.68 1576.43 705.733 L 1576.05 704.829 C 1580.63 704.016 1581.62 703.912 1586.25 704.203 L 1586.03 677.052 C 1582.24 676.77 1579.65 676.887 1576.21 675.275 C 1581.49 672.899 1596.15 674.428 1602.09 674.916 C 1601.55 667.338 1601.3 659.742 1601.33 652.144 z"/>
<path transform="translate(0,0)" fill="rgb(2,2,2)" d="M 1601.33 652.144 C 1594.71 651.424 1586.12 651.365 1580.52 649.081 L 1580.76 648.419 C 1588.96 647.996 1624.89 649.842 1632.78 651.635 L 1633.34 652.677 C 1630.06 654.869 1609.85 652.808 1603.5 652.824 L 1604.07 674.819 C 1610.81 675.081 1628 675.49 1633.37 678.348 C 1630.97 680.055 1626.38 679.425 1623.28 679.21 C 1623.36 687.939 1623.31 696.951 1623.55 705.651 C 1629.09 705.816 1630.91 705.551 1636.12 707.649 C 1630.87 710.359 1610.78 709.198 1603.79 709.049 C 1603.93 716.759 1604.36 724.127 1602.95 731.72 C 1601.24 727.727 1601.3 713.487 1601.29 708.674 C 1592.98 708.048 1584.5 707.68 1576.43 705.733 L 1576.05 704.829 C 1580.63 704.016 1581.62 703.912 1586.25 704.203 L 1587.94 704.018 C 1597.77 705.415 1610.95 705.381 1621.11 705.625 L 1620.98 678.975 C 1613.49 678.658 1593.64 675.698 1588.68 678.722 L 1587.91 682.392 L 1586.03 677.052 C 1582.24 676.77 1579.65 676.887 1576.21 675.275 C 1581.49 672.899 1596.15 674.428 1602.09 674.916 C 1601.55 667.338 1601.3 659.742 1601.33 652.144 z"/>
<path transform="translate(0,0)" fill="rgb(166,166,170)" d="M 1586.03 677.052 L 1587.91 682.392 C 1588.47 689.655 1588.13 696.74 1587.94 704.018 L 1586.25 704.203 L 1586.03 677.052 z"/>
<path transform="translate(0,0)" fill="rgb(255,255,255)" d="M 1523.9 652.763 C 1516.61 653.493 1509.19 654.992 1502.4 652.54 C 1508.11 649.888 1550.37 647.606 1558.4 648.495 C 1555.35 651.367 1532.01 652.28 1526.18 652.67 L 1526.78 676.305 C 1534.62 675.679 1552.72 673.975 1559.49 675.421 C 1555.84 677.554 1550.38 678.038 1546.01 678.824 L 1545.97 704.201 L 1543.78 704.501 C 1538.72 704.959 1535.31 705.17 1530.24 705.131 C 1523.69 705.839 1521.58 706.031 1514.89 705.592 C 1514.57 697.535 1514.65 688.823 1514.57 680.711 C 1510.71 680.014 1509.92 681.711 1504.71 679.459 L 1505.17 678.273 C 1512.03 676.855 1517.18 676.93 1524.17 676.761 L 1523.9 652.763 z"/>
<path transform="translate(0,0)" fill="rgb(2,2,2)" d="M 1523.9 652.763 C 1516.61 653.493 1509.19 654.992 1502.4 652.54 C 1508.11 649.888 1550.37 647.606 1558.4 648.495 C 1555.35 651.367 1532.01 652.28 1526.18 652.67 L 1526.78 676.305 C 1534.62 675.679 1552.72 673.975 1559.49 675.421 C 1555.84 677.554 1550.38 678.038 1546.01 678.824 L 1543.83 679.623 C 1536.83 678.653 1523.39 678.456 1516.74 680.872 L 1514.57 680.711 C 1510.71 680.014 1509.92 681.711 1504.71 679.459 L 1505.17 678.273 C 1512.03 676.855 1517.18 676.93 1524.17 676.761 L 1523.9 652.763 z"/>
<path transform="translate(0,0)" fill="rgb(86,85,90)" d="M 1543.83 679.623 L 1546.01 678.824 L 1545.97 704.201 L 1543.78 704.501 C 1543.52 697.916 1542.58 685.429 1543.83 679.623 z"/>
<path transform="translate(0,0)" fill="rgb(166,166,170)" d="M 1516.74 680.872 C 1517.27 688.778 1516.65 697.05 1516.24 704.996 C 1520.44 704.96 1526.19 704.735 1530.24 705.131 C 1523.69 705.839 1521.58 706.031 1514.89 705.592 C 1514.57 697.535 1514.65 688.823 1514.57 680.711 L 1516.74 680.872 z"/>
<path transform="translate(0,0)" fill="rgb(2,2,2)" d="M 1543.78 704.501 L 1545.97 704.201 C 1550.2 704.105 1554.15 703.594 1558.02 705.066 C 1555.08 707.634 1529.66 708.723 1524.02 709.13 L 1524 735.546 C 1530.47 735.554 1536.92 735.457 1543.38 735.409 C 1547.92 735.375 1557.41 733.562 1560.41 736.482 C 1554.59 738.983 1550.66 737.198 1545.13 739.483 L 1542.91 738.942 C 1537.86 737.726 1510.98 738.877 1503.88 738.897 L 1504.57 738.098 C 1511.14 735.551 1514.99 735.885 1522.03 735.787 L 1521.85 708.958 C 1512.5 709.257 1506.95 709.462 1497.75 708.471 C 1504.6 706.65 1507.88 706.34 1514.89 705.592 C 1521.58 706.031 1523.69 705.839 1530.24 705.131 C 1535.31 705.17 1538.72 704.959 1543.78 704.501 z"/>
<path transform="translate(0,0)" fill="rgb(2,2,2)" d="M 1620.71 768.477 C 1610.02 768.363 1586.21 768.31 1576.63 765.766 L 1575.87 764.943 C 1587.58 763.537 1629.25 764.739 1640.47 767.461 C 1633.39 768.258 1629.83 768.727 1622.7 768.429 L 1622.09 792.702 C 1626.39 792.8 1629.29 792.514 1633.26 794.193 C 1631.66 795.868 1622.97 796.058 1620.34 796.104 L 1600.58 796.406 L 1599.07 796.076 C 1593.85 796.162 1580.74 797.3 1577.16 794.412 C 1579.1 792.132 1614.23 793.068 1619.99 792.928 C 1620.03 785.025 1619.86 776.246 1620.71 768.477 z"/>
<path transform="translate(0,0)" fill="rgb(2,2,2)" d="M 1585.15 740.545 L 1584.25 738.417 C 1581.44 737.741 1579.48 737.289 1576.72 736.29 L 1576.77 735.267 C 1585.4 733.99 1625.62 735.9 1634.82 737.128 L 1635.1 737.9 C 1630.12 739.409 1629.37 739.253 1624.04 739.257 C 1624.02 745.702 1624.24 752.367 1623.31 758.71 C 1621.87 752.308 1621.95 745.592 1621.75 739.009 C 1615.3 738.886 1592.71 737.857 1588.24 738.582 C 1586.71 742.379 1587.04 745.44 1587.01 749.55 L 1585.15 740.545 z"/>
<path transform="translate(0,0)" fill="rgb(2,2,2)" d="M 1543.77 764.176 L 1545.52 763.628 L 1550.03 763.894 C 1553.16 764.065 1554.69 763.752 1557.34 765.436 C 1552.58 768.085 1529.83 767.9 1523.13 768.058 C 1523.1 773.524 1523 777.855 1522.59 783.337 L 1521.35 784.613 L 1522.23 785.302 L 1521.88 786.22 L 1522.13 784.945 L 1521.21 785.111 L 1521.67 786.267 L 1522.14 784.619 L 1520.98 783.811 C 1520.26 779.081 1520.48 772.681 1520.47 767.774 C 1516.14 767.887 1509 768.457 1505.39 766.506 C 1512.01 763.644 1535.72 763.893 1543.77 764.176 z"/>
<path transform="translate(0,0)" fill="rgb(2,2,2)" d="M 1523.16 793.459 C 1527.63 792.489 1556.19 792.039 1558.71 794.496 C 1554.32 797.932 1554.29 793.91 1549.11 797.213 C 1548.62 800.532 1548.04 803.727 1547.44 807.028 C 1546.49 805.215 1546.69 798.672 1546.63 796.14 C 1538.93 796.182 1529.68 797.176 1523.16 793.459 z"/>
<path transform="translate(0,0)" fill="rgb(86,85,90)" d="M 1542.91 738.942 L 1545.13 739.483 C 1546.43 745.535 1545.87 757.149 1545.52 763.628 L 1543.77 764.176 C 1542.77 758.413 1542.98 745.313 1542.91 738.942 z"/>
<path transform="translate(0,0)" fill="rgb(86,85,90)" d="M 1599.07 796.076 L 1600.58 796.406 C 1601.75 801.214 1602.47 805.172 1601.48 810.118 C 1599.5 806.142 1599.48 800.676 1599.07 796.076 z"/>
<path transform="translate(0,0)" fill="rgb(86,85,90)" d="M 1585.15 740.545 L 1587.01 749.55 C 1587.1 751.037 1586.84 753.959 1586.75 755.566 L 1586.14 755.913 C 1584.58 749.373 1584.87 747.075 1585.15 740.545 z"/>
<path transform="translate(0,0)" fill="rgb(255,255,255)" d="M 1571.08 579.212 C 1581.87 581.3 1607.86 584.073 1616.06 586.596 C 1617.7 590.312 1617 590.161 1616.59 594.833 C 1608.93 593.961 1580.7 591.31 1574.68 593.458 L 1574.69 593.877 C 1579.76 595.184 1580.75 595.221 1586.01 595.169 C 1586.11 601.378 1585.88 607.488 1587.21 613.515 C 1572.96 612.122 1559.17 612.834 1544.98 614.09 L 1545.29 596.226 C 1552.15 595.575 1557.32 595.724 1563.53 592.927 C 1558.66 590.878 1531.94 594.663 1525.4 595.687 L 1525.09 596.597 C 1530.52 598.417 1536.69 597.214 1542.74 596.806 L 1543.02 614.079 C 1537.09 614.909 1528.47 615.298 1522.3 615.753 C 1522.87 605.164 1523.01 597.72 1521.99 587.227 C 1532.86 584.363 1553.89 581.425 1565.84 579.401 C 1565.88 588.469 1566.49 597.526 1567.65 606.519 C 1570.57 602.911 1570.83 584.819 1571.08 579.212 z"/>
<path transform="translate(0,0)" fill="rgb(255,255,255)" d="M 1571.91 618.461 C 1598.69 621.266 1625.98 622.29 1652.8 625.245 L 1653.06 640.272 C 1628.7 640.765 1597.03 638.076 1571.99 636.881 C 1572.2 630.919 1571.99 624.473 1571.91 618.461 z"/>
<path transform="translate(0,0)" fill="rgb(255,255,255)" d="M 1559.1 619.434 C 1562.28 618.845 1561.1 618.662 1563.96 619.666 C 1565.75 624.482 1564.99 631.499 1564.93 637.04 C 1541.33 638.829 1516.57 641.144 1493.01 641.834 C 1490.6 641.83 1490.66 641.956 1488.46 641.042 C 1486.29 637.03 1487.13 630.446 1487.25 625.554 L 1559.1 619.434 z"/>
<path transform="translate(0,0)" fill="rgb(255,255,255)" d="M 1588.81 595.805 C 1598.23 596.4 1607.65 596.889 1617.08 597.272 C 1617 603.333 1617.04 609.395 1617.18 615.454 C 1607.72 614.922 1597.96 614.533 1588.58 613.415 L 1588.81 595.805 z"/>
<path transform="translate(0,0)" fill="rgb(2,2,2)" d="M 656.623 890.866 L 657.477 892.08 C 655.24 896.552 650.235 901.796 646.843 905.738 C 654.631 905.317 669.69 903.691 676.406 906.222 L 676.388 907.381 C 670.124 909.457 655.205 909.833 648.003 910.655 C 616.375 914.266 587.128 914.676 555.557 919.447 C 549.653 929.973 535.986 948.099 528.395 957.86 C 546.871 956.409 621.98 949.272 636.452 951.842 L 636.703 952.622 C 629.136 956.75 582.741 958.818 570.005 960.079 C 565.044 970.07 553.7 983.933 546.06 992.049 L 544.431 992.4 L 543.552 994.234 L 544.71 993.219 L 543.285 994.04 C 545.76 985.628 561.483 967.613 567.578 960.535 C 543.426 961.329 519.657 963.926 495.565 965.74 C 471.721 967.536 446.107 968.188 422.416 971.156 C 414.95 983.976 404.311 997.784 395.357 1009.88 C 448.477 1008.63 501.337 1004.5 554.477 1003.82 C 560.78 1003.74 573.824 1002.64 578.777 1006.17 C 573.89 1008.54 524.683 1009.33 515.272 1009.98 C 511.951 1017.04 497.59 1038.72 491.195 1042.03 L 491.268 1042.78 L 490.22 1043.05 C 493.828 1032.81 506.984 1018.35 514.469 1010.72 C 490.685 1009.46 461.789 1012.01 437.697 1013.68 C 430.907 1027.51 415.757 1046.59 405.887 1058.99 L 478.094 1058.97 C 491.707 1059 515.091 1058.49 527.457 1060.83 L 527.028 1061.27 C 512.885 1064.98 469.75 1064.09 453.169 1064.19 C 445.154 1076.11 423.687 1107.51 414.28 1116.07 C 418.954 1102.25 440.022 1075.9 449.907 1064.17 C 398.841 1063.92 347.776 1064.79 296.749 1066.79 C 292.315 1073.71 268.819 1107.01 263.455 1110.48 C 264.409 1101.52 287.991 1073.81 295.333 1066.94 C 270.654 1067.12 245.973 1066.94 221.3 1066.38 C 211.92 1080.11 196.786 1098.27 186.306 1111.76 C 225.5 1116.06 263.741 1113.28 303.07 1113.7 C 331.711 1114.1 360.312 1116.24 388.944 1116.43 C 398.88 1116.5 471.906 1113.28 476.419 1119 C 473.394 1122.35 447.094 1120.99 441.198 1121.03 C 424.082 1121.28 406.969 1121.68 389.86 1122.21 C 383.759 1133.24 356.773 1169.68 347.748 1177.93 L 348.514 1176.07 C 353.91 1162.72 377.073 1134.28 386.479 1122.08 C 361.096 1120.73 335.693 1119.81 310.279 1119.32 C 298.236 1133.11 282.065 1161.52 269.743 1172.82 C 275.286 1158.41 295.458 1132.12 305.733 1119.82 C 282.137 1120.23 256.298 1119.43 231.943 1119.73 C 225.318 1132.96 203.487 1160.53 194.095 1172.91 C 224.713 1174.44 253.754 1172.66 284.24 1173.17 C 308.75 1173.91 333.124 1176.65 357.633 1177.69 C 373.418 1178.35 389.173 1178.78 404.965 1179.03 C 407.313 1179.07 411.315 1180.44 412.811 1182.44 C 405.547 1186.65 333.705 1181.46 321.286 1180.84 C 318.496 1185 315.329 1189.36 312.431 1193.49 C 303.384 1207.08 281.856 1237.35 270.665 1248.41 C 277.212 1233.04 306.725 1194.37 317.773 1180.49 C 290.724 1177.55 259.009 1178.81 231.477 1179.15 C 228.311 1191.84 199.271 1230.13 188.948 1239.01 C 195.117 1222.94 219.983 1194.65 231.166 1179.64 C 205.578 1178.72 184.104 1177.94 158.61 1175.18 C 150.738 1187.5 122.123 1223.49 111.609 1232.44 L 112.551 1230.74 C 120.342 1216.44 144.084 1188.9 155.286 1174.95 C 144.895 1172.78 134.367 1171.33 123.777 1170.61 C 113.036 1169.87 71.4282 1171 66.4785 1167.84 C 73.2615 1165.51 82.1042 1166.43 89.2179 1165.94 C 123.22 1163.61 156.369 1171.79 189.867 1172.79 C 202.275 1152.29 217.072 1137.47 229.352 1119.49 C 202.995 1118.27 179.161 1117 152.789 1114.2 C 146.576 1125.46 122.894 1155 113.581 1164.08 C 118.864 1151.16 139.686 1126.39 149.332 1114.32 C 139.615 1112.91 129.841 1111.91 120.038 1111.33 C 109.946 1110.81 72.5004 1112.41 67.1649 1109.49 C 79.7451 1102.36 164.919 1110.68 184.818 1111.36 C 188.274 1100.11 209.626 1076.06 218.042 1066.17 C 203.921 1066.06 101.796 1063.79 95.7405 1060.55 C 104.335 1056.81 164.138 1060.06 178.597 1060.54 C 181.874 1049.11 201.51 1028.12 209.787 1018.44 C 194.953 1017.62 180.103 1017.12 165.247 1016.93 C 159.468 1016.86 132.474 1018.15 129.976 1014.34 C 141.621 1011.61 169.525 1012.3 181.974 1012.59 C 202.876 1013.08 223.077 1013.95 244.109 1013.53 C 248.918 1005.67 268.286 982.08 274.425 975.741 C 265.346 975.951 152.553 976.383 151.091 974.597 C 160.693 970.8 223.065 970.993 236.556 970.925 C 244.234 958.162 257.057 943.128 267.042 932.047 C 248.064 932.276 229.088 932.623 210.115 933.086 C 206.307 938.439 189.866 959.233 184.961 961.757 C 185.113 955.582 200.827 938.886 205.367 933.908 C 195.342 933.279 136.402 934.007 133.676 932.836 L 133.351 931.283 C 135.237 929.434 137.344 928.843 139.965 928.827 C 156.624 928.722 173.417 928.979 190.063 928.878 C 223.3 928.566 256.53 927.696 289.738 926.267 C 292.311 921.254 293.023 919.725 297.423 916.425 L 298.744 916.666 C 298.03 920.103 294.712 923.02 292.239 925.75 C 311.255 926.38 342.485 925.199 361.726 924.031 C 367.659 916.954 372.312 911.066 379.322 904.957 C 375.353 913.136 371.952 917.053 366.294 924.076 C 386.857 923.811 411.001 923.272 431.325 921.462 C 437.812 914.149 443.259 906.932 450.546 900.284 C 446.413 909.164 443.855 913.538 437.244 920.704 C 458.887 920.539 480.505 919.197 502.002 916.685 C 508.231 909.309 514.034 902.262 520.876 895.413 C 517.107 903.681 512.765 909.331 507.501 916.677 C 528.529 915.768 549.535 914.406 570.504 912.594 C 576.621 908.46 579.196 902.285 586.603 897.385 C 584.306 902.446 581.072 906.6 577.869 911.159 C 595.395 910.955 623.609 909.013 641.203 906.707 C 646.322 901.079 650.862 895.857 656.623 890.866 z"/>
<path transform="translate(0,0)" fill="rgb(255,255,255)" d="M 432.442 1014.58 L 433.623 1014.65 C 433.462 1017.33 407.339 1050.54 403.39 1058.94 C 378.897 1058.99 354.407 1059.44 329.929 1060.28 C 329.087 1059.87 329.602 1060.19 328.61 1059.03 C 339.034 1046.63 350.514 1030.41 359.76 1017.03 C 372.972 1015.09 416.587 1014.96 432.442 1014.58 z"/>
<path transform="translate(0,0)" fill="rgb(255,255,255)" d="M 324.896 1017.56 C 336.138 1017.06 346.537 1017.09 357.765 1017.16 C 349.742 1025.48 329.276 1049.81 326.747 1060.71 L 282.841 1061.82 L 253.169 1061.76 C 263.001 1051.52 278.546 1030.75 286.373 1018.86 C 298.79 1017.64 312.349 1017.75 324.896 1017.56 z"/>
<path transform="translate(0,0)" fill="rgb(255,255,255)" d="M 212.49 1018.64 C 234.438 1017.99 260.853 1018.62 282.938 1018.98 C 274.078 1029.11 257.162 1050.41 250.349 1061.28 C 238.098 1063.05 195.161 1061.03 180.196 1060.61 C 189.959 1046.12 203.966 1033.05 212.49 1018.64 z"/>
<path transform="translate(0,0)" fill="rgb(255,255,255)" d="M 307.645 930.464 C 319.411 930.22 331.18 930.128 342.948 930.188 C 332.79 940.725 319.972 956.794 312.552 969.383 C 301.401 970.206 288.517 970.458 277.223 970.935 C 264.715 971.131 251.715 970.928 239.167 970.901 C 245.653 962.943 265.292 939.16 269.495 931.55 C 280.416 930.612 296.387 930.681 307.645 930.464 z"/>
<path transform="translate(0,0)" fill="rgb(255,255,255)" d="M 302.886 974.456 C 318.274 974.1 333.667 974.001 349.059 974.157 C 338.151 986.135 328.248 999.375 318.909 1012.61 L 294.22 1013.32 C 279.109 1014.4 263.716 1013.93 248.593 1013.34 C 257.209 1000.9 268.641 987.854 278.087 975.391 C 286.349 974.975 294.616 974.663 302.886 974.456 z"/>
<path transform="translate(0,0)" fill="rgb(255,255,255)" d="M 455.398 925.421 C 463.169 924.746 474.525 924.948 482.568 924.849 C 474.556 933.02 459.588 953.119 453.862 963.416 C 441.008 964.518 428.135 965.395 415.25 966.047 C 405.361 966.457 395.466 966.726 385.568 966.852 C 392.055 957.97 408.069 937.036 412.343 928.257 C 424.921 926.631 442.377 926.129 455.398 925.421 z"/>
<path transform="translate(0,0)" fill="rgb(255,255,255)" d="M 401.745 971.442 C 406.985 971.065 414.612 971.199 420.054 971.15 C 411.626 980.94 398.25 998.256 392.387 1010.06 C 377.743 1011.33 360.159 1011.51 345.25 1011.98 L 323.635 1012.31 C 331.691 1000.57 345.428 985.334 352.099 973.803 C 367.559 972.535 386.056 972.182 401.745 971.442 z"/>
<path transform="translate(0,0)" fill="rgb(255,255,255)" d="M 533.235 920.568 C 539.495 920.14 546.813 920.126 553.17 919.968 C 544.654 928.813 531.457 947.726 525.321 958.621 C 508.142 959.936 490.952 961.106 473.753 962.131 L 457.418 963.181 C 466.609 951.516 477.085 936.706 485.425 924.356 C 500.178 922.339 518.331 921.403 533.235 920.568 z"/>
<path transform="translate(0,0)" fill="rgb(255,255,255)" d="M 384.235 928.525 L 410.047 928.355 C 403 937.21 386.782 957.18 382.317 966.731 C 369.096 967.942 355.11 968.341 341.78 968.923 L 315.688 969.305 C 322.519 959.332 338.417 941.019 346.935 929.864 C 359.166 928.842 371.932 928.79 384.235 928.525 z"/>
<path transform="translate(0,0)" fill="rgb(2,2,2)" d="M 753.388 1087.42 C 758.931 1086.89 765.174 1087.07 770.794 1087.06 C 772.601 1121.33 770.994 1173.68 769.609 1207.86 C 748.994 1212.37 702.201 1216.35 679.877 1219.36 C 673.952 1220.24 668.529 1220.77 662.577 1221.33 C 660.824 1206.5 661.193 1178.54 661.447 1163.79 C 661.793 1141.19 662.329 1118.59 663.055 1095.99 C 683.301 1092.64 732.583 1088.64 753.388 1087.42 z"/>
<path transform="translate(0,0)" fill="rgb(255,255,255)" d="M 712.749 1154.4 C 715.864 1153.97 715.721 1153.84 718.715 1154.65 C 720.596 1159.28 719.754 1200.63 719.71 1208.68 C 706.627 1209.71 692.102 1212 678.975 1213.81 C 675.233 1214.48 672.277 1215.36 669.129 1213.89 C 668.093 1202.19 669.933 1173.89 669.834 1159.3 L 712.749 1154.4 z"/>
<path transform="translate(0,0)" fill="rgb(255,255,255)" d="M 703.507 1099.41 C 706.687 1098.96 716.052 1098.75 719.662 1098.58 L 719.628 1149.62 L 685.758 1153.38 L 669.252 1155.16 C 670.364 1139.05 669.428 1118.93 669.037 1102.43 C 680.192 1101.82 692.304 1100.48 703.507 1099.41 z"/>
<path transform="translate(0,0)" fill="rgb(255,255,255)" d="M 752.229 1150.59 C 756.124 1150.19 759.08 1149.44 762.665 1150.83 C 764.317 1160.48 762.376 1187.33 763.925 1201.23 L 764.104 1202.77 L 734.562 1206.34 L 722.895 1208.07 L 723.109 1153.64 L 752.229 1150.59 z"/>
<path transform="translate(0,0)" fill="rgb(255,255,255)" d="M 747.777 1096.42 C 752.166 1095.97 759.509 1095.86 764.114 1095.66 C 763.527 1111.97 763.135 1128.28 762.939 1144.6 C 755.504 1146.01 746.381 1146.9 738.754 1147.84 L 723.016 1149.27 L 723.024 1098.16 C 731.27 1097.51 739.521 1096.93 747.777 1096.42 z"/>
<path transform="translate(0,0)" fill="rgb(2,2,2)" d="M 558.718 724.421 C 564.779 730.872 574.603 745.496 580.38 753.474 C 606.447 754.486 633.948 755.921 659.914 756.096 C 656.607 751.763 643.884 736.426 643.703 732.108 C 649.746 738.037 657.991 749.193 663.455 756.151 C 689.13 756.338 714.802 756.779 740.468 757.475 C 734.882 750.365 729.388 743.184 723.987 735.932 L 724.157 735.029 C 729.59 737.983 739.312 752.163 742.923 757.835 C 770.614 757.608 799.417 759.163 827.162 760.271 C 820.845 752.381 814.4 744.695 808.094 736.735 C 816.586 742.504 823.591 751.838 829.397 760.218 C 845.079 759.96 860.33 760.802 875.973 760.909 L 878.841 762.958 C 869.108 763.795 859.542 763.554 849.776 763.235 C 809.032 761.904 768.325 762.119 727.579 760.57 C 720.223 760.29 712.594 760.229 705.246 760.36 C 713.439 771.497 722.921 783.855 730.539 795.225 C 756.173 794.869 781.676 796.029 806.535 795.645 C 803.748 792.156 785.202 769.286 785.191 766.612 C 791.802 772.525 804.709 788.461 809.978 795.94 C 818.011 796.015 871.685 796.331 876.15 799.131 C 866.014 802.29 805.781 798.783 791.053 799.209 C 728.153 801.024 663.864 796.932 601.07 797.432 C 608.485 810.387 618.162 823.035 624.774 835.725 L 702.903 836.117 L 701.882 834.346 C 698.797 829.074 683.762 809.735 683.544 805.996 L 683.45 806.877 L 682.961 805.271 L 683.567 806.671 L 684.744 806.977 C 693.229 817.012 699.311 824.434 705.23 836.133 C 728.743 836.55 763.067 837.966 785.96 836.703 L 788.742 836.884 C 803.593 838.264 826.089 837.867 841.837 838.214 C 846.927 838.166 848.106 838.066 852.986 839.1 C 848.788 841.847 833.052 841.038 827.852 840.879 C 798.679 841.912 762.488 838.844 735.2 840.965 C 741.941 850.361 749.438 860.143 754.722 870.364 C 745.436 861.065 740.054 852.194 733.253 840.949 C 724.145 840.606 660.636 838.574 656.027 841.272 L 654.848 841.649 C 654 840.697 652.636 839.876 651.403 840.024 C 641.313 841.236 580.376 836.569 575.034 840.322 L 574.129 840.614 C 567.808 833.508 527.566 841.788 514.221 835.694 C 521.584 832.378 607.584 835.19 621.671 835.279 C 612.756 822.181 606.304 811.015 598.573 797.292 C 588.077 797.077 479.136 794.414 477.115 792.519 C 487.285 788.916 546.961 791.712 560.135 792.185 C 551.844 779.958 543.744 767.603 535.84 755.123 C 523.759 754.419 453.947 754.899 447.362 751.694 C 460.065 750.443 480.35 751.546 494.844 750.87 C 491.232 746.518 488.871 743.615 485.687 738.825 L 486.091 737.358 L 486.47 737.613 L 484.569 736.473 L 484.96 736.219 C 490.076 740.335 493.693 745.758 497.71 751.027 C 524.557 751.161 550.687 752.927 577.025 753.046 C 569.922 743.342 563.47 735.45 558.718 724.421 z"/>
<path transform="translate(0,0)" fill="rgb(20,20,20)" d="M 841.837 838.214 C 846.927 838.166 848.106 838.066 852.986 839.1 C 848.788 841.847 833.052 841.038 827.852 840.879 C 832.83 839.905 837.869 840.739 841.837 838.214 z"/>
<path transform="translate(0,0)" fill="rgb(255,255,255)" d="M 539.084 755.577 C 594.262 756.83 648.399 759.757 703.92 760.036 C 707.536 768.325 720.74 786.448 726.492 795.201 C 710.225 795.12 694.673 795.037 678.439 794.233 C 667.432 793.895 655.574 794.022 644.493 793.963 C 641.359 787.476 629.228 769.724 624.072 765.047 C 623.985 771.604 638.466 786.306 642.62 793.812 L 564.551 792.391 C 556.196 781.508 546.67 767.171 539.084 755.577 z"/>
<path transform="translate(0,0)" fill="rgb(2,2,2)" d="M 1370.81 1040.39 C 1382.09 1039.27 1440.25 1028.68 1445.88 1031.77 C 1442.65 1035.39 1411.98 1039.13 1404.62 1040.37 C 1411.01 1046.66 1418.65 1053.58 1422.48 1061.75 C 1413.84 1054.1 1409.74 1049.26 1402.7 1040.02 C 1381.59 1042 1361.21 1046.15 1340.31 1049.51 C 1319.09 1052.92 1296.37 1054.23 1275.4 1057.43 C 1285.68 1067.62 1294.96 1077.06 1304.19 1088.23 C 1325.72 1084.95 1347.32 1082.12 1368.97 1079.74 C 1367.22 1075.19 1345.82 1055.76 1339.98 1048.26 C 1349.99 1054.87 1364.33 1068.59 1371.78 1078.1 C 1377.43 1079.31 1425.62 1071.29 1436.9 1071.55 C 1433.65 1074.81 1408.7 1077.14 1399.92 1079.57 C 1408.84 1089.52 1416.66 1092.13 1420.56 1096.46 C 1417.81 1097.81 1417.43 1097.21 1413.9 1096.99 C 1407.23 1093.31 1401.51 1085.64 1396.68 1079.7 C 1361.99 1083.63 1325.19 1089.39 1290.27 1093.81 C 1268.36 1096.59 1232.14 1099.06 1211.87 1103.31 C 1204.54 1102.64 1149.09 1108.32 1143.14 1111.07 L 1140.66 1111.54 C 1135.08 1110.42 1074.93 1117.4 1073.04 1119.66 C 1079.17 1126.06 1087.25 1134.22 1091.54 1142.01 C 1086.88 1138.44 1074.88 1125.8 1072.16 1120.63 C 1067.49 1116.17 1050.94 1120.29 1044.39 1120.68 C 1025.5 1121.81 994.849 1127.68 976.72 1124.52 C 984.359 1120.59 1003.16 1121.53 1013.1 1119.17 C 1002.29 1105.88 992.075 1094.61 982.035 1080.46 C 970.088 1081.35 938.098 1084.67 927.621 1081.31 C 930.693 1078.52 942.569 1078.79 946.849 1078.74 C 943.9 1068.83 929.755 1059.61 924.19 1043.65 L 924.73 1043.38 C 933.264 1054.71 941.737 1066.08 950.151 1077.5 C 953.675 1078.37 1016.92 1074.44 1023.59 1073.67 L 1024.45 1071.93 C 1025.16 1072.47 1025.87 1073.01 1026.57 1073.56 C 1047.03 1074.04 1085.3 1068.39 1103.95 1071.01 C 1094.3 1073.37 1068.92 1073.78 1065.26 1077.06 C 1075.79 1087.85 1085.99 1100.03 1095.9 1111.49 C 1104.9 1110.4 1160.23 1105.22 1163.25 1102.77 C 1161.06 1095.58 1142.78 1084.4 1140.53 1075.75 L 1141.4 1075.29 C 1148.16 1081.21 1162.18 1096.59 1167.2 1103.83 C 1187.4 1100.97 1214.13 1097.69 1234.36 1096.41 C 1225.99 1087.66 1213.14 1074.86 1206.9 1064.93 C 1178.5 1065.75 1130.97 1074.99 1104.59 1072.06 C 1122.29 1067.72 1141.48 1067.89 1159.56 1065.61 C 1219.04 1058.12 1278.83 1053.73 1338.26 1045.73 C 1348.4 1044.36 1358.56 1043.81 1368.57 1041.55 L 1363.3 1033.5 L 1363.55 1032.76 L 1370.81 1040.39 z"/>
<path transform="translate(0,0)" fill="rgb(255,255,255)" d="M 984.944 1080.32 L 985.911 1080.21 C 1004.48 1078.14 1043.2 1076.8 1063.42 1075.58 C 1064.03 1076.07 1064.65 1076.57 1065.26 1077.06 C 1069.52 1087.27 1085.45 1103.29 1093.36 1112.2 C 1068.23 1114.27 1042.72 1117.26 1017.61 1118.9 C 1015.36 1119.04 1014.7 1117.52 1013.46 1116.01 C 1004.25 1103.25 992.96 1091.97 984.944 1080.32 z"/>
<path transform="translate(0,0)" fill="rgb(255,255,255)" d="M 1265.64 1058.38 L 1274.52 1057.63 C 1280.94 1067.46 1293.26 1079.43 1301.58 1088.61 C 1283.04 1090.14 1264.54 1092.19 1246.12 1094.76 C 1243.57 1095.16 1240.99 1095.4 1238.42 1095.68 C 1235.37 1094.78 1212.17 1068.82 1208.55 1064.93 L 1265.64 1058.38 z"/>
<path transform="translate(0,0)" fill="rgb(2,2,2)" d="M 727.467 949.593 C 734.922 954.176 777.975 1007.29 787.402 1018.33 C 839.004 1078.25 889.725 1138.93 939.55 1200.34 C 947.943 1210.79 993.934 1265.2 995.056 1273.55 L 993.756 1274.09 C 985.031 1269.11 970.838 1248.29 964.005 1239.62 C 951.523 1223.99 938.834 1208.53 925.941 1193.23 C 861.783 1116.95 792.97 1032.74 726.459 959.384 C 687.584 999.237 647.681 1044.82 609.677 1086.02 C 578.911 1117.64 337.009 1385.39 330.128 1388.08 L 328.334 1387.27 L 328.075 1385.22 C 330.963 1377.46 357.901 1351.12 365.191 1343.22 L 434.676 1267.13 L 598.957 1086.93 L 679.166 999.824 C 688.68 989.438 717.354 956.781 727.467 949.593 z"/>
<path transform="translate(0,0)" fill="rgb(2,2,2)" d="M 808.36 1213.4 C 810.073 1213.19 814.406 1212.46 815.669 1213.27 C 821.959 1217.3 820.182 1236.23 817.628 1241.51 C 810.172 1246.68 657.768 1266.73 635.237 1269.74 C 630.635 1270.18 624.941 1270.25 624.203 1264.57 C 623.223 1257.03 621.404 1244.6 625.464 1238.06 C 630.89 1234.69 791.222 1215.09 808.36 1213.4 z"/>
<path transform="translate(0,0)" fill="rgb(255,255,255)" d="M 811.907 1218.56 C 813.012 1220.25 812.983 1233.63 813.077 1236.75 L 633.311 1262.9 L 632.718 1262.35 C 631.474 1258.83 631.805 1247 631.786 1242.55 L 741.666 1227.86 C 763.659 1224.76 790.403 1220.21 811.907 1218.56 z"/>
<path transform="translate(0,0)" fill="rgb(2,2,2)" d="M 730.611 920.553 C 738.695 923.053 782.973 978.22 791.442 988.438 L 900.189 1121.16 L 993.516 1234.76 C 1006.3 1250.62 1019.4 1267.14 1032.15 1283.09 C 1033.93 1285.32 1033.95 1286.63 1033.43 1288.85 L 1031.63 1289.26 C 1023.95 1285.76 973.15 1221.29 964.797 1211.17 L 823.33 1039.04 C 792.99 1002.22 763.201 964.7 730.75 929.602 C 717.558 938.624 686.3 973.392 674.013 986.5 C 603.444 1060.16 535.109 1137.05 464.841 1210.94 C 454.883 1221.41 360.729 1324.81 353.312 1328.26 L 352.379 1327.48 C 352.796 1323.39 410.781 1262.96 417.855 1255.38 L 632.018 1024.63 L 688.409 963.833 C 699.372 951.901 718.402 930.143 730.611 920.553 z"/>
<path transform="translate(0,0)" fill="rgb(2,2,2)" d="M 1422.83 708.93 C 1427.91 710.943 1433.22 717.372 1437.08 721.517 C 1450.52 722.496 1473.43 721.414 1484.91 724.282 L 1485.11 725.001 C 1475.39 725.963 1455.93 724.999 1445.36 724.687 L 1368.84 721.917 C 1376.08 731.131 1383.88 739.784 1391.31 749.29 C 1412.03 749.142 1432.12 749.776 1452.96 749.315 C 1445.46 742.095 1440.09 736.854 1433.6 728.763 C 1443.55 734.584 1448.17 741.207 1455.48 749.861 C 1463.09 749.864 1478.84 748.96 1484.75 751.646 L 1484.54 752.419 C 1473.53 752.114 1462.51 752.062 1451.5 752.263 C 1436.09 752.715 1311.58 752.619 1308.65 749.382 C 1312.76 747.563 1316.71 747.983 1321.3 747.933 C 1314.15 737.511 1305.02 729.608 1298.81 719.079 C 1288.96 717.809 1276.13 718.759 1266.81 716.184 C 1272.21 712.278 1356.97 718.612 1369.06 719.158 C 1390.65 720.11 1412.25 720.849 1433.85 721.373 C 1429.77 717.044 1426.53 713.602 1422.83 708.93 z"/>
<path transform="translate(0,0)" fill="rgb(255,255,255)" d="M 1301.95 719.324 C 1320.42 719.123 1348.23 719.791 1366.47 721.118 C 1370.55 727.463 1387.05 746.098 1387.48 748.918 C 1366.4 749.42 1344.37 748.484 1323.07 748.47 C 1316.88 737.291 1306.89 728.976 1301.95 719.324 z"/>
<path transform="translate(0,0)" fill="rgb(2,2,2)" d="M 478.638 682.713 C 483.886 685.947 498.873 709.039 502.737 714.874 C 527.699 715.784 552.648 717.033 577.577 718.621 C 573.266 711.112 562.166 699.131 559.385 691.075 C 565.998 696.907 575.139 711.085 580.407 718.869 C 604.412 718.908 630.88 720.859 655.324 721.465 C 649.297 713.535 641.572 704.26 637.846 695.232 C 641.499 696.588 655.609 717.352 658.771 721.789 C 683.844 722.081 707.429 723.627 732.302 724.368 C 725.384 713.968 717.2 706.15 710.531 694.573 C 719.307 700.851 728.883 715.267 735.281 724.223 C 758.384 724.861 781.48 725.722 804.567 726.807 C 797.629 718.863 793.163 713.61 787.034 704.868 L 786.959 703.482 L 785.401 702.204 L 785.816 702.119 C 792.711 708.08 801.205 718.991 807.236 726.163 C 830.904 726.886 854.285 728.251 877.92 729.253 L 878.664 727.652 C 873.536 720.324 867.18 715.138 862.183 708.127 L 862.88 707.066 C 868.813 711.009 877.872 723.374 882.491 729.353 C 894.409 729.95 917.2 728.385 926.254 732.189 L 925.7 733.007 C 889.521 734.1 837.125 730.876 799.993 729.394 L 632.998 723.617 C 577.609 721.838 522.245 719.373 466.917 716.222 C 450.418 715.315 426.466 715.523 410.983 713.818 L 410.212 712.597 C 415.275 709.959 488.917 714.048 499.393 714.834 C 493.466 704.034 483.964 695.624 478.638 682.713 z"/>
<path transform="translate(0,0)" fill="rgb(2,2,2)" d="M 58.3113 1234.41 C 66.9894 1232.11 79.0706 1234.78 88.0358 1234.49 C 155.288 1232.36 221.294 1240.26 287.813 1248.9 C 298.23 1250.26 335.617 1249.14 341.683 1253.81 C 329.091 1259.13 262.701 1251.05 247.239 1248.82 C 239.921 1257.34 229.53 1273.08 221.914 1283.05 C 218.139 1288.78 216.402 1292.04 210.794 1296.04 L 210.42 1295.29 C 219.397 1278.66 230.74 1263.57 242.578 1248.91 C 222.529 1245.49 184.256 1242.03 163.499 1240.82 C 158.048 1248.22 131.233 1284.97 126.027 1288.84 C 126.475 1279.81 152.522 1248.48 159.621 1240.29 C 143.397 1239.3 65.3772 1241.02 58.3113 1234.41 z"/>
<path transform="translate(0,0)" fill="rgb(2,2,2)" d="M 75.2748 1295.38 C 84.7862 1294.64 97.2801 1296.65 107.008 1296.77 C 147.411 1297.25 186.114 1305.15 225.833 1311.34 C 234.89 1312.75 274.205 1312.91 278.627 1316.31 L 278.728 1319.3 C 241.411 1322.25 189.455 1310.87 152.346 1305.71 C 128.08 1302.34 100.142 1302.01 76.325 1297.59 L 75.2748 1295.38 z"/>
<path transform="translate(0,0)" fill="rgb(2,2,2)" d="M 434.854 672.926 C 431.275 668.748 429.118 666.234 426.046 661.548 L 426.339 659.914 L 424.939 658.945 L 425.146 659.852 L 426.131 659.601 L 424.933 659.282 L 425.422 658.832 C 430.523 662.323 434.376 667.953 438.253 672.873 C 467.345 673.638 496.488 677.155 525.802 678.028 C 520.333 670.986 516.511 666.408 512.382 658.539 C 520.2 664.743 523.688 670.056 529.515 678.034 C 545.297 680.134 585.462 681.713 601.991 681.884 C 598.592 677.931 596.663 675.652 593.717 671.273 L 594.161 669.96 L 593.237 670.426 L 592.666 668.892 L 592.859 668.874 L 592.978 668.715 C 598.03 672.181 601.133 676.848 604.965 681.703 C 621.751 683.083 639.049 683.925 655.943 685.144 L 656.03 687.031 C 633.625 687.319 616.832 685.95 594.545 685.038 C 546.867 683.04 499.219 680.376 451.615 677.045 C 440.479 676.376 429.365 675.675 418.22 675.176 C 404.772 674.574 390.024 675.374 376.92 672.085 L 377.358 671.47 C 394.243 670.605 417.337 672.278 434.854 672.926 z"/>
<path transform="translate(0,0)" fill="rgb(2,2,2)" d="M 836.841 697.141 C 834.39 694.083 831.993 690.839 829.616 687.71 L 830.217 686.835 L 828.441 685.627 L 829.904 687.989 L 828.372 685.646 L 828.959 685.606 C 832.804 688.654 835.84 691.294 839.467 694.552 C 873.417 697.316 910.666 698.783 944.815 700.344 C 940.893 696.545 938.174 693.882 934.612 689.638 L 934.596 687.701 L 933.582 688.182 L 933.047 687.285 L 933.46 686.631 C 939.624 690.52 944.123 695.637 949.217 700.853 C 973.536 701.38 999.985 702.725 1024.28 704.104 C 1022.09 701.418 1018.7 697.83 1017.7 694.686 C 1021.64 697.016 1024.56 700.785 1027.68 704.238 C 1044.05 706.075 1059.82 704.111 1077.43 707.071 L 1087.83 707.154 L 1087.15 708.843 C 1076.54 708.485 1064.82 710.34 1054.45 708.148 C 1039.89 708.195 1026.68 706.846 1012.2 706.212 C 983.391 705.164 954.596 703.885 925.812 702.374 C 901.022 701.14 859.779 700.855 836.841 697.141 z"/>
<path transform="translate(0,0)" fill="rgb(166,166,170)" d="M 1077.43 707.071 L 1087.83 707.154 L 1087.15 708.843 C 1076.54 708.485 1064.82 710.34 1054.45 708.148 C 1063.12 708.019 1068.85 708.882 1077.43 707.071 z"/>
<path transform="translate(0,0)" fill="rgb(2,2,2)" d="M 1805.37 895.48 C 1806.22 895.772 1808.24 896.456 1808.79 897.226 C 1821.66 915.24 1834.48 938.183 1846.29 956.583 C 1861.53 980.328 1875.46 1001.61 1889.65 1025.68 C 1892.02 1029.69 1891.85 1029.51 1891.67 1033.56 C 1887.08 1031.61 1876.67 1013.11 1873.17 1007.89 C 1854.62 980.615 1836.75 952.884 1819.59 924.718 C 1815.58 918.045 1804.42 902.208 1805.37 895.48 z"/>
<path transform="translate(0,0)" fill="rgb(2,2,2)" d="M 718.907 1065.41 C 730.051 1064.37 776.012 1063.05 783.146 1068.83 C 780.819 1070.47 717.609 1071.2 705.978 1072.29 C 696.017 1073.43 655.516 1080.74 649.046 1078.73 C 655.178 1070.68 706.96 1066.33 718.907 1065.41 z"/>
<path transform="translate(0,0)" fill="rgb(2,2,2)" d="M 786.18 1076.64 C 786.418 1076.83 786.686 1076.99 786.893 1077.22 C 792.737 1083.56 789.69 1197.5 788.546 1211.87 C 786.716 1211.59 787.665 1211.93 785.828 1210.55 C 783.283 1199.82 784.162 1088.87 786.18 1076.64 z"/>
<path transform="translate(0,0)" fill="rgb(2,2,2)" d="M 1393.57 1166.37 C 1396.32 1165.92 1397.45 1165.75 1399.38 1167.5 C 1393.3 1172.35 1360.73 1174.24 1351.18 1175.87 L 1246.85 1194.05 C 1242.58 1194.67 1240.69 1195.4 1236.86 1193.88 L 1236.88 1192.57 C 1245.32 1188.39 1261.6 1187.15 1271.41 1185.49 C 1312.05 1178.61 1352.73 1171.96 1393.57 1166.37 z"/>
<path transform="translate(0,0)" fill="rgb(2,2,2)" d="M 1187.54 1198.4 C 1189.27 1198.24 1188.31 1198.11 1190.29 1199.42 L 1190.15 1201.02 C 1183.58 1204.79 1078.69 1220.02 1063.48 1221.55 C 1062.64 1221.54 1062.2 1221.02 1061.25 1220.43 L 1061.55 1218.67 C 1065.84 1215.27 1173.91 1200.13 1187.54 1198.4 z"/>
<path transform="translate(0,0)" fill="rgb(2,2,2)" d="M 649.14 1084.69 C 654.035 1091.61 651.235 1210.39 649.404 1226.55 L 648.048 1225.36 C 644.905 1215.36 645.764 1096.06 649.14 1084.69 z"/>
<path transform="translate(0,0)" fill="rgb(2,2,2)" d="M 1361.18 755.659 C 1366.43 758.709 1380.83 777.718 1384.05 784.042 L 1446.32 783.707 C 1442.17 778.416 1430.38 766.578 1428.3 760.68 C 1435.63 767.662 1442.35 775.254 1448.4 783.374 C 1458.28 783.71 1471.15 783.274 1481.25 783.186 C 1484.87 783.034 1484.77 782.929 1488.42 784.099 L 1488.44 785.153 C 1480.53 788.047 1465.23 786.416 1456.3 786.495 L 1397.25 786.905 C 1387.68 786.892 1361.48 787.693 1354.1 786.425 L 1354.15 785.696 C 1361.42 784.224 1374.89 784.373 1382.73 784.214 C 1375.41 772.88 1366.58 766.949 1361.18 755.659 z"/>
<path transform="translate(0,0)" fill="rgb(2,2,2)" d="M 1366.52 893.726 C 1372.2 896.875 1381.1 909.64 1385.27 915.315 C 1397.13 914.573 1458.63 908.823 1465.26 910.95 C 1460.78 914.351 1424.96 915.888 1415.33 917.059 L 1427.05 929.293 C 1433.91 936.219 1437.7 941.296 1442.95 949.37 C 1432.95 942.118 1421.12 927.067 1414.19 916.88 C 1404.42 917.381 1365.68 921.533 1359.09 919.529 L 1359.61 918.51 C 1364.52 916.577 1377.08 916.226 1383 915.83 C 1377.41 908.517 1369.97 902.469 1366.52 893.726 z"/>
<path transform="translate(0,0)" fill="rgb(2,2,2)" d="M 680.82 685.535 C 676.899 680.878 674.538 678.57 672.303 672.79 L 673.105 672.581 C 678.981 677.65 681.169 682.03 686.188 686.291 C 706.422 687.809 735.743 690.25 755.569 690.203 C 751.654 685.431 748.56 681.923 745.51 676.532 C 751.499 680.57 754.44 685.072 759.559 690.023 C 777.346 691.464 793.877 691.589 811.76 693.632 L 811.627 694.155 C 794.114 696.367 764.346 693.547 745.567 692.547 C 722.127 691.299 691.462 691.185 668.737 687.674 C 672.624 687.545 678.425 687.944 680.82 685.535 z"/>
<path transform="translate(0,0)" fill="rgb(20,20,20)" d="M 828.232 875.584 C 838.774 874.485 900.803 874.597 910.379 876.165 C 905.991 877.756 841.328 879.278 836 878.306 C 814.725 877.689 793.459 878.8 772.187 878.955 C 766.323 878.998 760.357 879.224 754.568 878.2 C 761.973 874.642 815.377 876.026 828.232 875.584 z"/>
<path transform="translate(0,0)" fill="rgb(2,2,2)" d="M 1464.66 877.435 C 1468.5 877.191 1468.65 876.976 1472.43 878.194 L 1472.96 879.309 C 1469.58 880.415 1431.48 882.796 1425.85 883.207 C 1429.95 888.565 1442.91 900.429 1444.57 905.286 C 1435.65 897.77 1430.71 892.888 1423.89 883.512 L 1409.75 884.199 C 1396.11 885.893 1368.95 886.511 1355.42 885.846 C 1368.02 882.199 1401.64 882.186 1416.76 881.038 C 1432.04 879.877 1449.35 878.444 1464.66 877.435 z"/>
<path transform="translate(0,0)" fill="rgb(2,2,2)" d="M 1595.87 1161.18 L 1598.19 1162.22 C 1598.54 1162.9 1599.07 1163.8 1599.09 1164.48 C 1599.52 1177.64 1602.58 1208.85 1596.34 1219.27 C 1587.87 1212.13 1592.77 1171.6 1595.87 1161.18 z"/>
<path transform="translate(0,0)" fill="rgb(2,2,2)" d="M 1452.65 848.419 C 1457.36 847.763 1474.2 847.107 1478.46 849.353 C 1461.57 851.453 1442.04 851.986 1424.67 853.39 C 1428.82 859.55 1432.87 865.777 1436.82 872.067 C 1429.11 864.347 1428.24 859.114 1422.96 853.379 L 1417.75 853.432 C 1407.72 854.019 1373.18 856.433 1365.2 854.479 C 1371 851.319 1439.48 849.573 1452.65 848.419 z"/>
<path transform="translate(0,0)" fill="rgb(2,2,2)" d="M 1495.59 1167.09 C 1502.92 1165.87 1552.82 1171.32 1563.22 1173.47 C 1564.54 1173.75 1564.4 1175.03 1564.76 1176.68 C 1554.53 1177.48 1509.29 1173.47 1497.67 1170.71 C 1496.23 1170.37 1496.21 1168.9 1495.59 1167.09 z"/>
<path transform="translate(0,0)" fill="rgb(2,2,2)" d="M 1451.13 817.5 C 1458.45 817.04 1478.47 816.066 1484.63 818.072 C 1481.54 819.737 1441.16 820.786 1434.46 821.054 C 1428.03 821.084 1403.6 823.073 1400.57 820.343 C 1402.93 818.647 1444.61 817.752 1451.13 817.5 z"/>
<path transform="translate(0,0)" fill="rgb(2,2,2)" d="M 369.848 1068.71 L 370.627 1069.46 C 370.232 1074.63 347.337 1104.41 342.986 1110.34 C 341.682 1109.11 342.194 1109.94 342.019 1107.57 C 345.966 1099.04 363.18 1075.65 369.848 1068.71 z"/>
<path transform="translate(0,0)" fill="rgb(2,2,2)" d="M 143.904 1068.78 L 144.621 1069.49 C 144.042 1075.17 125.29 1095.3 120.154 1101.19 C 119.816 1100.85 119.294 1099.56 119.053 1099.04 C 121.01 1092.83 138.683 1074.2 143.904 1068.78 z"/>
<path transform="translate(0,0)" fill="rgb(2,2,2)" d="M 495.233 970.715 L 495.761 972.344 C 494.088 978.276 477.441 997.319 472.526 1004.45 L 471.801 1005.52 L 471.267 1002.99 C 474.114 994.964 488.902 977.185 495.233 970.715 z"/>
<path transform="translate(0,0)" fill="rgb(2,2,2)" d="M 620.726 916.792 L 621.425 917.497 C 620.95 921.637 606.411 939.291 602.991 943.701 L 601.867 942.51 C 602.79 936.603 616.141 921.314 620.726 916.792 z"/>
<path transform="translate(0,0)" fill="rgb(20,20,20)" d="M 914.931 949.613 C 905.381 934.456 899.394 932.992 890.578 913.818 C 897.52 923.331 911.095 938.353 916.226 948.296 L 914.931 949.613 z"/>
<path transform="translate(0,0)" fill="rgb(20,20,20)" d="M 761.397 801.067 C 771.015 810.484 780.897 825.567 788.742 836.884 L 785.96 836.703 C 778.366 826.222 767.521 812.115 761.397 801.067 z"/>
<path transform="translate(0,0)" fill="rgb(2,2,2)" d="M 1575.94 1130.59 C 1580.89 1135.37 1578.46 1148.93 1577.47 1155.47 C 1573.35 1149.95 1572.46 1136.48 1575.94 1130.59 z"/>
<path transform="translate(0,0)" fill="rgb(20,20,20)" d="M 1023.59 1073.67 C 1021.64 1070.04 1004.75 1047.99 1000.56 1041.89 C 1000.42 1039.58 1000.79 1040.66 998.854 1038.82 L 999.88 1040.58 L 1000.84 1040.55 C 1008.75 1049.34 1018.62 1061.92 1024.45 1071.93 L 1023.59 1073.67 z"/>
<path transform="translate(0,0)" fill="rgb(2,2,2)" d="M 994.815 1132.82 C 1000.53 1135.2 1012.18 1150.82 1015.44 1156.38 C 1009.2 1154.2 997.184 1139.23 994.815 1132.82 z"/>
<path transform="translate(0,0)" fill="rgb(2,2,2)" d="M 1821.34 825.398 C 1823.29 826.457 1822.58 825.914 1823.84 827.977 C 1824.67 834.538 1823.44 838.681 1820.66 844.638 C 1819.11 843.731 1819.6 843.99 1818.42 842.459 C 1817.84 835.78 1819.08 831.691 1821.34 825.398 z"/>
<path transform="translate(0,0)" fill="rgb(20,20,20)" d="M 575.034 840.322 C 579.931 846.181 588.041 858.376 590.787 865.55 C 585.936 862.535 576.428 846.225 574.129 840.614 L 575.034 840.322 z"/>
<path transform="translate(0,0)" fill="rgb(2,2,2)" d="M 1279.8 1096.04 C 1286.54 1098.9 1298.29 1111.22 1302.43 1117.26 C 1296.56 1115.95 1282.84 1101.12 1279.8 1096.04 z"/>
<path transform="translate(0,0)" fill="rgb(2,2,2)" d="M 1211.87 1103.31 C 1219.04 1108.32 1229.3 1117.56 1232.53 1125.73 C 1226.65 1122.06 1215.42 1109.33 1211.87 1103.31 z"/>
<path transform="translate(0,0)" fill="rgb(20,20,20)" d="M 656.027 841.272 C 660.407 847.658 669.786 860.003 671.123 866.988 L 670.329 867.186 C 665.772 858.823 659.137 851.947 654.848 841.649 L 656.027 841.272 z"/>
<path transform="translate(0,0)" fill="rgb(2,2,2)" d="M 1420.34 795.648 C 1425.84 797.656 1437.53 811.519 1439.97 816.87 C 1435.17 815.048 1423.39 800.419 1420.34 795.648 z"/>
<path transform="translate(0,0)" fill="rgb(2,2,2)" d="M 191.844 989.806 C 192.359 995.234 181.843 1006.18 178.319 1010.23 L 178.196 1007.59 C 182.002 1000.17 186.148 995.749 191.844 989.806 z"/>
<path transform="translate(0,0)" fill="rgb(20,20,20)" d="M 1140.66 1111.54 L 1143.14 1111.07 C 1145.52 1113.87 1158.04 1128.13 1158.25 1130.96 C 1150.87 1124.36 1146.67 1119.36 1140.66 1111.54 z"/>
<path transform="translate(0,0)" fill="rgb(20,20,20)" d="M 813.213 845.657 C 817.016 848.015 829.688 865.026 831.863 869.254 C 824.893 865.57 816.843 852.614 813.213 845.657 z"/>
<path transform="translate(0,0)" fill="rgb(2,2,2)" d="M 1691.62 910.759 C 1692.07 916.675 1685.5 924.486 1681.88 929.885 L 1681.35 927.412 C 1683.15 920.858 1687.43 915.968 1691.62 910.759 z"/>
<path transform="translate(0,0)" fill="rgb(20,20,20)" d="M 1719.54 878.731 C 1720.11 884.968 1714.03 891.716 1710.21 897.145 C 1709.7 891.361 1716.16 883.393 1719.54 878.731 z"/>
<path transform="translate(0,0)" fill="rgb(20,20,20)" d="M 1672.76 883.837 C 1673.49 884.604 1673.04 884.02 1673.5 885.927 C 1671.34 891.409 1667.57 895.956 1664.05 900.695 C 1663.27 900.235 1663.77 900.617 1663.13 899.061 C 1665.76 893.399 1669.18 888.953 1672.76 883.837 z"/>
<path transform="translate(0,0)" fill="rgb(86,85,90)" d="M 680.82 685.535 C 678.425 687.944 672.624 687.545 668.737 687.674 C 667.797 687.726 658.485 687.045 656.03 687.031 L 655.943 685.144 C 662.849 686.108 673.979 686.566 680.82 685.535 z"/>
<path transform="translate(0,0)" fill="rgb(217,217,219)" d="M 894.861 760.049 L 893.963 761.69 C 888.882 762.714 884.07 763.451 878.841 762.958 L 875.973 760.909 C 882.089 760.95 889.421 761.921 894.861 760.049 z"/>
<path transform="translate(0,0)" fill="rgb(20,20,20)" d="M 894.861 760.049 C 898.422 759.441 901.802 759.667 904.688 761.989 L 904.335 762.969 C 899.959 763.354 898.301 763.044 893.963 761.69 L 894.861 760.049 z"/>
<path transform="translate(0,0)" fill="rgb(217,217,219)" d="M 219.587 918.057 L 219.762 919.18 C 218.411 922.311 216.749 922.829 213.698 925.117 L 213.326 923.584 C 215.043 920.147 215.797 920.535 219.587 918.057 z"/>
</svg>